%TF.GenerationSoftware,KiCad,Pcbnew,8.0.3*%
%TF.CreationDate,2024-07-03T23:55:28+09:00*%
%TF.ProjectId,mcu_rp2040,6d63755f-7270-4323-9034-302e6b696361,rev?*%
%TF.SameCoordinates,Original*%
%TF.FileFunction,Drillmap*%
%TF.FilePolarity,Positive*%
%FSLAX45Y45*%
G04 Gerber Fmt 4.5, Leading zero omitted, Abs format (unit mm)*
G04 Created by KiCad (PCBNEW 8.0.3) date 2024-07-03 23:55:28*
%MOMM*%
%LPD*%
G01*
G04 APERTURE LIST*
%ADD10C,0.050000*%
%ADD11C,0.200000*%
%ADD12C,0.100000*%
%ADD13C,0.102000*%
G04 APERTURE END LIST*
D10*
X12300000Y-5000000D02*
G75*
G02*
X11900000Y-5000000I-200000J0D01*
G01*
X11900000Y-5000000D02*
G75*
G02*
X12300000Y-5000000I200000J0D01*
G01*
X12700000Y-10600000D02*
G75*
G02*
X12300000Y-10600000I-200000J0D01*
G01*
X12300000Y-10600000D02*
G75*
G02*
X12700000Y-10600000I200000J0D01*
G01*
X15300000Y-10600000D02*
G75*
G02*
X14900000Y-10600000I-200000J0D01*
G01*
X14900000Y-10600000D02*
G75*
G02*
X15300000Y-10600000I200000J0D01*
G01*
X10500000Y-4300000D02*
X17100000Y-4300000D01*
X17100000Y-12000000D01*
X10500000Y-12000000D01*
X10500000Y-4300000D01*
D11*
D12*
X11315000Y-4900000D02*
X11345000Y-4930000D01*
X11345000Y-4900000D02*
X11315000Y-4930000D01*
X11315000Y-6545000D02*
X11345000Y-6575000D01*
X11345000Y-6545000D02*
X11315000Y-6575000D01*
X11315000Y-10105000D02*
X11345000Y-10135000D01*
X11345000Y-10105000D02*
X11315000Y-10135000D01*
X11325000Y-8375000D02*
X11355000Y-8405000D01*
X11355000Y-8375000D02*
X11325000Y-8405000D01*
X15352800Y-9496880D02*
X15382800Y-9526880D01*
X15382800Y-9496880D02*
X15352800Y-9526880D01*
X15364680Y-9234440D02*
X15394680Y-9264440D01*
X15394680Y-9234440D02*
X15364680Y-9264440D01*
X15813680Y-7403680D02*
X15843680Y-7433680D01*
X15843680Y-7403680D02*
X15813680Y-7433680D01*
X15815000Y-5585000D02*
X15845000Y-5615000D01*
X15845000Y-5585000D02*
X15815000Y-5615000D01*
X15845000Y-9205000D02*
X15875000Y-9235000D01*
X15875000Y-9205000D02*
X15845000Y-9235000D01*
X16065000Y-7865000D02*
X16095000Y-7895000D01*
X16095000Y-7865000D02*
X16065000Y-7895000D01*
X16075000Y-6145000D02*
X16105000Y-6175000D01*
X16105000Y-6145000D02*
X16075000Y-6175000D01*
X16105000Y-9325000D02*
X16135000Y-9355000D01*
X16135000Y-9325000D02*
X16105000Y-9355000D01*
X16125000Y-11295000D02*
X16155000Y-11325000D01*
X16155000Y-11295000D02*
X16125000Y-11325000D01*
X11630000Y-4586000D02*
G75*
G02*
X11550000Y-4586000I-40000J0D01*
G01*
X11550000Y-4586000D02*
G75*
G02*
X11630000Y-4586000I40000J0D01*
G01*
X11630000Y-5602000D02*
G75*
G02*
X11550000Y-5602000I-40000J0D01*
G01*
X11550000Y-5602000D02*
G75*
G02*
X11630000Y-5602000I40000J0D01*
G01*
X11630000Y-6364000D02*
G75*
G02*
X11550000Y-6364000I-40000J0D01*
G01*
X11550000Y-6364000D02*
G75*
G02*
X11630000Y-6364000I40000J0D01*
G01*
X11630000Y-7380000D02*
G75*
G02*
X11550000Y-7380000I-40000J0D01*
G01*
X11550000Y-7380000D02*
G75*
G02*
X11630000Y-7380000I40000J0D01*
G01*
X11630000Y-8142000D02*
G75*
G02*
X11550000Y-8142000I-40000J0D01*
G01*
X11550000Y-8142000D02*
G75*
G02*
X11630000Y-8142000I40000J0D01*
G01*
X11630000Y-9158000D02*
G75*
G02*
X11550000Y-9158000I-40000J0D01*
G01*
X11550000Y-9158000D02*
G75*
G02*
X11630000Y-9158000I40000J0D01*
G01*
X11630000Y-9920000D02*
G75*
G02*
X11550000Y-9920000I-40000J0D01*
G01*
X11550000Y-9920000D02*
G75*
G02*
X11630000Y-9920000I40000J0D01*
G01*
X11630000Y-10936000D02*
G75*
G02*
X11550000Y-10936000I-40000J0D01*
G01*
X11550000Y-10936000D02*
G75*
G02*
X11630000Y-10936000I40000J0D01*
G01*
X15340000Y-5282000D02*
G75*
G02*
X15260000Y-5282000I-40000J0D01*
G01*
X15260000Y-5282000D02*
G75*
G02*
X15340000Y-5282000I40000J0D01*
G01*
X15340000Y-6298000D02*
G75*
G02*
X15260000Y-6298000I-40000J0D01*
G01*
X15260000Y-6298000D02*
G75*
G02*
X15340000Y-6298000I40000J0D01*
G01*
X15948000Y-5348000D02*
G75*
G02*
X15868000Y-5348000I-40000J0D01*
G01*
X15868000Y-5348000D02*
G75*
G02*
X15948000Y-5348000I40000J0D01*
G01*
X15948000Y-6364000D02*
G75*
G02*
X15868000Y-6364000I-40000J0D01*
G01*
X15868000Y-6364000D02*
G75*
G02*
X15948000Y-6364000I40000J0D01*
G01*
X15948000Y-7126000D02*
G75*
G02*
X15868000Y-7126000I-40000J0D01*
G01*
X15868000Y-7126000D02*
G75*
G02*
X15948000Y-7126000I40000J0D01*
G01*
X15948000Y-8142000D02*
G75*
G02*
X15868000Y-8142000I-40000J0D01*
G01*
X15868000Y-8142000D02*
G75*
G02*
X15948000Y-8142000I40000J0D01*
G01*
X15948000Y-8904000D02*
G75*
G02*
X15868000Y-8904000I-40000J0D01*
G01*
X15868000Y-8904000D02*
G75*
G02*
X15948000Y-8904000I40000J0D01*
G01*
X15948000Y-9920000D02*
G75*
G02*
X15868000Y-9920000I-40000J0D01*
G01*
X15868000Y-9920000D02*
G75*
G02*
X15948000Y-9920000I40000J0D01*
G01*
X15948000Y-10682000D02*
G75*
G02*
X15868000Y-10682000I-40000J0D01*
G01*
X15868000Y-10682000D02*
G75*
G02*
X15948000Y-10682000I40000J0D01*
G01*
X15948000Y-11698000D02*
G75*
G02*
X15868000Y-11698000I-40000J0D01*
G01*
X15868000Y-11698000D02*
G75*
G02*
X15948000Y-11698000I40000J0D01*
G01*
X11590000Y-5811000D02*
X11590000Y-5901000D01*
X11545000Y-5856000D02*
X11635000Y-5856000D01*
X11590000Y-6065000D02*
X11590000Y-6155000D01*
X11545000Y-6110000D02*
X11635000Y-6110000D01*
X11590000Y-7589000D02*
X11590000Y-7679000D01*
X11545000Y-7634000D02*
X11635000Y-7634000D01*
X11590000Y-7843000D02*
X11590000Y-7933000D01*
X11545000Y-7888000D02*
X11635000Y-7888000D01*
X11590000Y-9367000D02*
X11590000Y-9457000D01*
X11545000Y-9412000D02*
X11635000Y-9412000D01*
X11590000Y-9621000D02*
X11590000Y-9711000D01*
X11545000Y-9666000D02*
X11635000Y-9666000D01*
X11590000Y-11145000D02*
X11590000Y-11235000D01*
X11545000Y-11190000D02*
X11635000Y-11190000D01*
X11590000Y-11399000D02*
X11590000Y-11489000D01*
X11545000Y-11444000D02*
X11635000Y-11444000D01*
X15350000Y-4628500D02*
X15350000Y-4718500D01*
X15305000Y-4673500D02*
X15395000Y-4673500D01*
X15350000Y-4882500D02*
X15350000Y-4972500D01*
X15305000Y-4927500D02*
X15395000Y-4927500D01*
X15908000Y-4795000D02*
X15908000Y-4885000D01*
X15863000Y-4840000D02*
X15953000Y-4840000D01*
X15908000Y-5049000D02*
X15908000Y-5139000D01*
X15863000Y-5094000D02*
X15953000Y-5094000D01*
X15908000Y-6573000D02*
X15908000Y-6663000D01*
X15863000Y-6618000D02*
X15953000Y-6618000D01*
X15908000Y-6827000D02*
X15908000Y-6917000D01*
X15863000Y-6872000D02*
X15953000Y-6872000D01*
X15908000Y-8351000D02*
X15908000Y-8441000D01*
X15863000Y-8396000D02*
X15953000Y-8396000D01*
X15908000Y-8605000D02*
X15908000Y-8695000D01*
X15863000Y-8650000D02*
X15953000Y-8650000D01*
X15908000Y-10129000D02*
X15908000Y-10219000D01*
X15863000Y-10174000D02*
X15953000Y-10174000D01*
X15908000Y-10383000D02*
X15908000Y-10473000D01*
X15863000Y-10428000D02*
X15953000Y-10428000D01*
X10863356Y-4875356D02*
X10863356Y-4804644D01*
X10792644Y-4804644D01*
X10792644Y-4875356D01*
X10863356Y-4875356D01*
X10863356Y-5129356D02*
X10863356Y-5058644D01*
X10792644Y-5058644D01*
X10792644Y-5129356D01*
X10863356Y-5129356D01*
X10863356Y-5383356D02*
X10863356Y-5312644D01*
X10792644Y-5312644D01*
X10792644Y-5383356D01*
X10863356Y-5383356D01*
X10863356Y-5637356D02*
X10863356Y-5566644D01*
X10792644Y-5566644D01*
X10792644Y-5637356D01*
X10863356Y-5637356D01*
X10863356Y-5891356D02*
X10863356Y-5820644D01*
X10792644Y-5820644D01*
X10792644Y-5891356D01*
X10863356Y-5891356D01*
X10863356Y-6145356D02*
X10863356Y-6074644D01*
X10792644Y-6074644D01*
X10792644Y-6145356D01*
X10863356Y-6145356D01*
X10863356Y-6653356D02*
X10863356Y-6582644D01*
X10792644Y-6582644D01*
X10792644Y-6653356D01*
X10863356Y-6653356D01*
X10863356Y-6907356D02*
X10863356Y-6836644D01*
X10792644Y-6836644D01*
X10792644Y-6907356D01*
X10863356Y-6907356D01*
X10863356Y-7161356D02*
X10863356Y-7090644D01*
X10792644Y-7090644D01*
X10792644Y-7161356D01*
X10863356Y-7161356D01*
X10863356Y-7415356D02*
X10863356Y-7344644D01*
X10792644Y-7344644D01*
X10792644Y-7415356D01*
X10863356Y-7415356D01*
X10863356Y-7669356D02*
X10863356Y-7598644D01*
X10792644Y-7598644D01*
X10792644Y-7669356D01*
X10863356Y-7669356D01*
X10863356Y-7923356D02*
X10863356Y-7852644D01*
X10792644Y-7852644D01*
X10792644Y-7923356D01*
X10863356Y-7923356D01*
X10863356Y-8431356D02*
X10863356Y-8360644D01*
X10792644Y-8360644D01*
X10792644Y-8431356D01*
X10863356Y-8431356D01*
X10863356Y-8685356D02*
X10863356Y-8614644D01*
X10792644Y-8614644D01*
X10792644Y-8685356D01*
X10863356Y-8685356D01*
X10863356Y-8939356D02*
X10863356Y-8868644D01*
X10792644Y-8868644D01*
X10792644Y-8939356D01*
X10863356Y-8939356D01*
X10863356Y-9193356D02*
X10863356Y-9122644D01*
X10792644Y-9122644D01*
X10792644Y-9193356D01*
X10863356Y-9193356D01*
X10863356Y-9447356D02*
X10863356Y-9376644D01*
X10792644Y-9376644D01*
X10792644Y-9447356D01*
X10863356Y-9447356D01*
X10863356Y-9701356D02*
X10863356Y-9630644D01*
X10792644Y-9630644D01*
X10792644Y-9701356D01*
X10863356Y-9701356D01*
X10863356Y-10209356D02*
X10863356Y-10138644D01*
X10792644Y-10138644D01*
X10792644Y-10209356D01*
X10863356Y-10209356D01*
X10863356Y-10463356D02*
X10863356Y-10392644D01*
X10792644Y-10392644D01*
X10792644Y-10463356D01*
X10863356Y-10463356D01*
X10863356Y-10717356D02*
X10863356Y-10646644D01*
X10792644Y-10646644D01*
X10792644Y-10717356D01*
X10863356Y-10717356D01*
X10863356Y-10971356D02*
X10863356Y-10900644D01*
X10792644Y-10900644D01*
X10792644Y-10971356D01*
X10863356Y-10971356D01*
X10863356Y-11225356D02*
X10863356Y-11154644D01*
X10792644Y-11154644D01*
X10792644Y-11225356D01*
X10863356Y-11225356D01*
X10863356Y-11479356D02*
X10863356Y-11408644D01*
X10792644Y-11408644D01*
X10792644Y-11479356D01*
X10863356Y-11479356D01*
X11117356Y-4875356D02*
X11117356Y-4804644D01*
X11046644Y-4804644D01*
X11046644Y-4875356D01*
X11117356Y-4875356D01*
X11117356Y-5129356D02*
X11117356Y-5058644D01*
X11046644Y-5058644D01*
X11046644Y-5129356D01*
X11117356Y-5129356D01*
X11117356Y-5383356D02*
X11117356Y-5312644D01*
X11046644Y-5312644D01*
X11046644Y-5383356D01*
X11117356Y-5383356D01*
X11117356Y-5637356D02*
X11117356Y-5566644D01*
X11046644Y-5566644D01*
X11046644Y-5637356D01*
X11117356Y-5637356D01*
X11117356Y-5891356D02*
X11117356Y-5820644D01*
X11046644Y-5820644D01*
X11046644Y-5891356D01*
X11117356Y-5891356D01*
X11117356Y-6145356D02*
X11117356Y-6074644D01*
X11046644Y-6074644D01*
X11046644Y-6145356D01*
X11117356Y-6145356D01*
X11117356Y-6653356D02*
X11117356Y-6582644D01*
X11046644Y-6582644D01*
X11046644Y-6653356D01*
X11117356Y-6653356D01*
X11117356Y-6907356D02*
X11117356Y-6836644D01*
X11046644Y-6836644D01*
X11046644Y-6907356D01*
X11117356Y-6907356D01*
X11117356Y-7161356D02*
X11117356Y-7090644D01*
X11046644Y-7090644D01*
X11046644Y-7161356D01*
X11117356Y-7161356D01*
X11117356Y-7415356D02*
X11117356Y-7344644D01*
X11046644Y-7344644D01*
X11046644Y-7415356D01*
X11117356Y-7415356D01*
X11117356Y-7669356D02*
X11117356Y-7598644D01*
X11046644Y-7598644D01*
X11046644Y-7669356D01*
X11117356Y-7669356D01*
X11117356Y-7923356D02*
X11117356Y-7852644D01*
X11046644Y-7852644D01*
X11046644Y-7923356D01*
X11117356Y-7923356D01*
X11117356Y-8431356D02*
X11117356Y-8360644D01*
X11046644Y-8360644D01*
X11046644Y-8431356D01*
X11117356Y-8431356D01*
X11117356Y-8685356D02*
X11117356Y-8614644D01*
X11046644Y-8614644D01*
X11046644Y-8685356D01*
X11117356Y-8685356D01*
X11117356Y-8939356D02*
X11117356Y-8868644D01*
X11046644Y-8868644D01*
X11046644Y-8939356D01*
X11117356Y-8939356D01*
X11117356Y-9193356D02*
X11117356Y-9122644D01*
X11046644Y-9122644D01*
X11046644Y-9193356D01*
X11117356Y-9193356D01*
X11117356Y-9447356D02*
X11117356Y-9376644D01*
X11046644Y-9376644D01*
X11046644Y-9447356D01*
X11117356Y-9447356D01*
X11117356Y-9701356D02*
X11117356Y-9630644D01*
X11046644Y-9630644D01*
X11046644Y-9701356D01*
X11117356Y-9701356D01*
X11117356Y-10209356D02*
X11117356Y-10138644D01*
X11046644Y-10138644D01*
X11046644Y-10209356D01*
X11117356Y-10209356D01*
X11117356Y-10463356D02*
X11117356Y-10392644D01*
X11046644Y-10392644D01*
X11046644Y-10463356D01*
X11117356Y-10463356D01*
X11117356Y-10717356D02*
X11117356Y-10646644D01*
X11046644Y-10646644D01*
X11046644Y-10717356D01*
X11117356Y-10717356D01*
X11117356Y-10971356D02*
X11117356Y-10900644D01*
X11046644Y-10900644D01*
X11046644Y-10971356D01*
X11117356Y-10971356D01*
X11117356Y-11225356D02*
X11117356Y-11154644D01*
X11046644Y-11154644D01*
X11046644Y-11225356D01*
X11117356Y-11225356D01*
X11117356Y-11479356D02*
X11117356Y-11408644D01*
X11046644Y-11408644D01*
X11046644Y-11479356D01*
X11117356Y-11479356D01*
X16396856Y-4875356D02*
X16396856Y-4804644D01*
X16326144Y-4804644D01*
X16326144Y-4875356D01*
X16396856Y-4875356D01*
X16396856Y-5129356D02*
X16396856Y-5058644D01*
X16326144Y-5058644D01*
X16326144Y-5129356D01*
X16396856Y-5129356D01*
X16396856Y-5383356D02*
X16396856Y-5312644D01*
X16326144Y-5312644D01*
X16326144Y-5383356D01*
X16396856Y-5383356D01*
X16396856Y-5637356D02*
X16396856Y-5566644D01*
X16326144Y-5566644D01*
X16326144Y-5637356D01*
X16396856Y-5637356D01*
X16396856Y-5891356D02*
X16396856Y-5820644D01*
X16326144Y-5820644D01*
X16326144Y-5891356D01*
X16396856Y-5891356D01*
X16396856Y-6145356D02*
X16396856Y-6074644D01*
X16326144Y-6074644D01*
X16326144Y-6145356D01*
X16396856Y-6145356D01*
X16396856Y-6653356D02*
X16396856Y-6582644D01*
X16326144Y-6582644D01*
X16326144Y-6653356D01*
X16396856Y-6653356D01*
X16396856Y-6907356D02*
X16396856Y-6836644D01*
X16326144Y-6836644D01*
X16326144Y-6907356D01*
X16396856Y-6907356D01*
X16396856Y-7161356D02*
X16396856Y-7090644D01*
X16326144Y-7090644D01*
X16326144Y-7161356D01*
X16396856Y-7161356D01*
X16396856Y-7415356D02*
X16396856Y-7344644D01*
X16326144Y-7344644D01*
X16326144Y-7415356D01*
X16396856Y-7415356D01*
X16396856Y-7669356D02*
X16396856Y-7598644D01*
X16326144Y-7598644D01*
X16326144Y-7669356D01*
X16396856Y-7669356D01*
X16396856Y-7923356D02*
X16396856Y-7852644D01*
X16326144Y-7852644D01*
X16326144Y-7923356D01*
X16396856Y-7923356D01*
X16396856Y-8431356D02*
X16396856Y-8360644D01*
X16326144Y-8360644D01*
X16326144Y-8431356D01*
X16396856Y-8431356D01*
X16396856Y-8685356D02*
X16396856Y-8614644D01*
X16326144Y-8614644D01*
X16326144Y-8685356D01*
X16396856Y-8685356D01*
X16396856Y-8939356D02*
X16396856Y-8868644D01*
X16326144Y-8868644D01*
X16326144Y-8939356D01*
X16396856Y-8939356D01*
X16396856Y-9193356D02*
X16396856Y-9122644D01*
X16326144Y-9122644D01*
X16326144Y-9193356D01*
X16396856Y-9193356D01*
X16396856Y-9447356D02*
X16396856Y-9376644D01*
X16326144Y-9376644D01*
X16326144Y-9447356D01*
X16396856Y-9447356D01*
X16396856Y-9701356D02*
X16396856Y-9630644D01*
X16326144Y-9630644D01*
X16326144Y-9701356D01*
X16396856Y-9701356D01*
X16396856Y-10209356D02*
X16396856Y-10138644D01*
X16326144Y-10138644D01*
X16326144Y-10209356D01*
X16396856Y-10209356D01*
X16396856Y-10463356D02*
X16396856Y-10392644D01*
X16326144Y-10392644D01*
X16326144Y-10463356D01*
X16396856Y-10463356D01*
X16396856Y-10717356D02*
X16396856Y-10646644D01*
X16326144Y-10646644D01*
X16326144Y-10717356D01*
X16396856Y-10717356D01*
X16396856Y-10971356D02*
X16396856Y-10900644D01*
X16326144Y-10900644D01*
X16326144Y-10971356D01*
X16396856Y-10971356D01*
X16396856Y-11225356D02*
X16396856Y-11154644D01*
X16326144Y-11154644D01*
X16326144Y-11225356D01*
X16396856Y-11225356D01*
X16396856Y-11479356D02*
X16396856Y-11408644D01*
X16326144Y-11408644D01*
X16326144Y-11479356D01*
X16396856Y-11479356D01*
X16650856Y-4875356D02*
X16650856Y-4804644D01*
X16580144Y-4804644D01*
X16580144Y-4875356D01*
X16650856Y-4875356D01*
X16650856Y-5129356D02*
X16650856Y-5058644D01*
X16580144Y-5058644D01*
X16580144Y-5129356D01*
X16650856Y-5129356D01*
X16650856Y-5383356D02*
X16650856Y-5312644D01*
X16580144Y-5312644D01*
X16580144Y-5383356D01*
X16650856Y-5383356D01*
X16650856Y-5637356D02*
X16650856Y-5566644D01*
X16580144Y-5566644D01*
X16580144Y-5637356D01*
X16650856Y-5637356D01*
X16650856Y-5891356D02*
X16650856Y-5820644D01*
X16580144Y-5820644D01*
X16580144Y-5891356D01*
X16650856Y-5891356D01*
X16650856Y-6145356D02*
X16650856Y-6074644D01*
X16580144Y-6074644D01*
X16580144Y-6145356D01*
X16650856Y-6145356D01*
X16650856Y-6653356D02*
X16650856Y-6582644D01*
X16580144Y-6582644D01*
X16580144Y-6653356D01*
X16650856Y-6653356D01*
X16650856Y-6907356D02*
X16650856Y-6836644D01*
X16580144Y-6836644D01*
X16580144Y-6907356D01*
X16650856Y-6907356D01*
X16650856Y-7161356D02*
X16650856Y-7090644D01*
X16580144Y-7090644D01*
X16580144Y-7161356D01*
X16650856Y-7161356D01*
X16650856Y-7415356D02*
X16650856Y-7344644D01*
X16580144Y-7344644D01*
X16580144Y-7415356D01*
X16650856Y-7415356D01*
X16650856Y-7669356D02*
X16650856Y-7598644D01*
X16580144Y-7598644D01*
X16580144Y-7669356D01*
X16650856Y-7669356D01*
X16650856Y-7923356D02*
X16650856Y-7852644D01*
X16580144Y-7852644D01*
X16580144Y-7923356D01*
X16650856Y-7923356D01*
X16650856Y-8431356D02*
X16650856Y-8360644D01*
X16580144Y-8360644D01*
X16580144Y-8431356D01*
X16650856Y-8431356D01*
X16650856Y-8685356D02*
X16650856Y-8614644D01*
X16580144Y-8614644D01*
X16580144Y-8685356D01*
X16650856Y-8685356D01*
X16650856Y-8939356D02*
X16650856Y-8868644D01*
X16580144Y-8868644D01*
X16580144Y-8939356D01*
X16650856Y-8939356D01*
X16650856Y-9193356D02*
X16650856Y-9122644D01*
X16580144Y-9122644D01*
X16580144Y-9193356D01*
X16650856Y-9193356D01*
X16650856Y-9447356D02*
X16650856Y-9376644D01*
X16580144Y-9376644D01*
X16580144Y-9447356D01*
X16650856Y-9447356D01*
X16650856Y-9701356D02*
X16650856Y-9630644D01*
X16580144Y-9630644D01*
X16580144Y-9701356D01*
X16650856Y-9701356D01*
X16650856Y-10209356D02*
X16650856Y-10138644D01*
X16580144Y-10138644D01*
X16580144Y-10209356D01*
X16650856Y-10209356D01*
X16650856Y-10463356D02*
X16650856Y-10392644D01*
X16580144Y-10392644D01*
X16580144Y-10463356D01*
X16650856Y-10463356D01*
X16650856Y-10717356D02*
X16650856Y-10646644D01*
X16580144Y-10646644D01*
X16580144Y-10717356D01*
X16650856Y-10717356D01*
X16650856Y-10971356D02*
X16650856Y-10900644D01*
X16580144Y-10900644D01*
X16580144Y-10971356D01*
X16650856Y-10971356D01*
X16650856Y-11225356D02*
X16650856Y-11154644D01*
X16580144Y-11154644D01*
X16580144Y-11225356D01*
X16650856Y-11225356D01*
X16650856Y-11479356D02*
X16650856Y-11408644D01*
X16580144Y-11408644D01*
X16580144Y-11479356D01*
X16650856Y-11479356D01*
D13*
X12860000Y-4891000D02*
X12911000Y-4840000D01*
X12860000Y-4789000D01*
X12809000Y-4840000D01*
X12860000Y-4891000D01*
X12860000Y-5145000D02*
X12911000Y-5094000D01*
X12860000Y-5043000D01*
X12809000Y-5094000D01*
X12860000Y-5145000D01*
X12860000Y-5399000D02*
X12911000Y-5348000D01*
X12860000Y-5297000D01*
X12809000Y-5348000D01*
X12860000Y-5399000D01*
X12860000Y-5653000D02*
X12911000Y-5602000D01*
X12860000Y-5551000D01*
X12809000Y-5602000D01*
X12860000Y-5653000D01*
X12860000Y-5907000D02*
X12911000Y-5856000D01*
X12860000Y-5805000D01*
X12809000Y-5856000D01*
X12860000Y-5907000D01*
X12860000Y-6161000D02*
X12911000Y-6110000D01*
X12860000Y-6059000D01*
X12809000Y-6110000D01*
X12860000Y-6161000D01*
X12860000Y-6415000D02*
X12911000Y-6364000D01*
X12860000Y-6313000D01*
X12809000Y-6364000D01*
X12860000Y-6415000D01*
X12860000Y-6669000D02*
X12911000Y-6618000D01*
X12860000Y-6567000D01*
X12809000Y-6618000D01*
X12860000Y-6669000D01*
X12860000Y-6923000D02*
X12911000Y-6872000D01*
X12860000Y-6821000D01*
X12809000Y-6872000D01*
X12860000Y-6923000D01*
X12860000Y-7177000D02*
X12911000Y-7126000D01*
X12860000Y-7075000D01*
X12809000Y-7126000D01*
X12860000Y-7177000D01*
X12860000Y-7431000D02*
X12911000Y-7380000D01*
X12860000Y-7329000D01*
X12809000Y-7380000D01*
X12860000Y-7431000D01*
X12860000Y-7685000D02*
X12911000Y-7634000D01*
X12860000Y-7583000D01*
X12809000Y-7634000D01*
X12860000Y-7685000D01*
X12860000Y-7939000D02*
X12911000Y-7888000D01*
X12860000Y-7837000D01*
X12809000Y-7888000D01*
X12860000Y-7939000D01*
X12860000Y-8193000D02*
X12911000Y-8142000D01*
X12860000Y-8091000D01*
X12809000Y-8142000D01*
X12860000Y-8193000D01*
X12860000Y-8447000D02*
X12911000Y-8396000D01*
X12860000Y-8345000D01*
X12809000Y-8396000D01*
X12860000Y-8447000D01*
X12860000Y-8701000D02*
X12911000Y-8650000D01*
X12860000Y-8599000D01*
X12809000Y-8650000D01*
X12860000Y-8701000D01*
X12860000Y-8955000D02*
X12911000Y-8904000D01*
X12860000Y-8853000D01*
X12809000Y-8904000D01*
X12860000Y-8955000D01*
X12860000Y-9209000D02*
X12911000Y-9158000D01*
X12860000Y-9107000D01*
X12809000Y-9158000D01*
X12860000Y-9209000D01*
X12860000Y-9463000D02*
X12911000Y-9412000D01*
X12860000Y-9361000D01*
X12809000Y-9412000D01*
X12860000Y-9463000D01*
X12860000Y-9717000D02*
X12911000Y-9666000D01*
X12860000Y-9615000D01*
X12809000Y-9666000D01*
X12860000Y-9717000D01*
X14638000Y-4891000D02*
X14689000Y-4840000D01*
X14638000Y-4789000D01*
X14587000Y-4840000D01*
X14638000Y-4891000D01*
X14638000Y-5145000D02*
X14689000Y-5094000D01*
X14638000Y-5043000D01*
X14587000Y-5094000D01*
X14638000Y-5145000D01*
X14638000Y-5399000D02*
X14689000Y-5348000D01*
X14638000Y-5297000D01*
X14587000Y-5348000D01*
X14638000Y-5399000D01*
X14638000Y-5653000D02*
X14689000Y-5602000D01*
X14638000Y-5551000D01*
X14587000Y-5602000D01*
X14638000Y-5653000D01*
X14638000Y-5907000D02*
X14689000Y-5856000D01*
X14638000Y-5805000D01*
X14587000Y-5856000D01*
X14638000Y-5907000D01*
X14638000Y-6161000D02*
X14689000Y-6110000D01*
X14638000Y-6059000D01*
X14587000Y-6110000D01*
X14638000Y-6161000D01*
X14638000Y-6415000D02*
X14689000Y-6364000D01*
X14638000Y-6313000D01*
X14587000Y-6364000D01*
X14638000Y-6415000D01*
X14638000Y-6669000D02*
X14689000Y-6618000D01*
X14638000Y-6567000D01*
X14587000Y-6618000D01*
X14638000Y-6669000D01*
X14638000Y-6923000D02*
X14689000Y-6872000D01*
X14638000Y-6821000D01*
X14587000Y-6872000D01*
X14638000Y-6923000D01*
X14638000Y-7177000D02*
X14689000Y-7126000D01*
X14638000Y-7075000D01*
X14587000Y-7126000D01*
X14638000Y-7177000D01*
X14638000Y-7431000D02*
X14689000Y-7380000D01*
X14638000Y-7329000D01*
X14587000Y-7380000D01*
X14638000Y-7431000D01*
X14638000Y-7685000D02*
X14689000Y-7634000D01*
X14638000Y-7583000D01*
X14587000Y-7634000D01*
X14638000Y-7685000D01*
X14638000Y-7939000D02*
X14689000Y-7888000D01*
X14638000Y-7837000D01*
X14587000Y-7888000D01*
X14638000Y-7939000D01*
X14638000Y-8193000D02*
X14689000Y-8142000D01*
X14638000Y-8091000D01*
X14587000Y-8142000D01*
X14638000Y-8193000D01*
X14638000Y-8447000D02*
X14689000Y-8396000D01*
X14638000Y-8345000D01*
X14587000Y-8396000D01*
X14638000Y-8447000D01*
X14638000Y-8701000D02*
X14689000Y-8650000D01*
X14638000Y-8599000D01*
X14587000Y-8650000D01*
X14638000Y-8701000D01*
X14638000Y-8955000D02*
X14689000Y-8904000D01*
X14638000Y-8853000D01*
X14587000Y-8904000D01*
X14638000Y-8955000D01*
X14638000Y-9209000D02*
X14689000Y-9158000D01*
X14638000Y-9107000D01*
X14587000Y-9158000D01*
X14638000Y-9209000D01*
X14638000Y-9463000D02*
X14689000Y-9412000D01*
X14638000Y-9361000D01*
X14587000Y-9412000D01*
X14638000Y-9463000D01*
X14638000Y-9717000D02*
X14689000Y-9666000D01*
X14638000Y-9615000D01*
X14587000Y-9666000D01*
X14638000Y-9717000D01*
D11*
X10758277Y-12313984D02*
X10758277Y-12113984D01*
X10758277Y-12113984D02*
X10805896Y-12113984D01*
X10805896Y-12113984D02*
X10834467Y-12123508D01*
X10834467Y-12123508D02*
X10853515Y-12142555D01*
X10853515Y-12142555D02*
X10863039Y-12161603D01*
X10863039Y-12161603D02*
X10872563Y-12199698D01*
X10872563Y-12199698D02*
X10872563Y-12228269D01*
X10872563Y-12228269D02*
X10863039Y-12266365D01*
X10863039Y-12266365D02*
X10853515Y-12285412D01*
X10853515Y-12285412D02*
X10834467Y-12304460D01*
X10834467Y-12304460D02*
X10805896Y-12313984D01*
X10805896Y-12313984D02*
X10758277Y-12313984D01*
X10958277Y-12313984D02*
X10958277Y-12180650D01*
X10958277Y-12218746D02*
X10967801Y-12199698D01*
X10967801Y-12199698D02*
X10977324Y-12190174D01*
X10977324Y-12190174D02*
X10996372Y-12180650D01*
X10996372Y-12180650D02*
X11015420Y-12180650D01*
X11082086Y-12313984D02*
X11082086Y-12180650D01*
X11082086Y-12113984D02*
X11072563Y-12123508D01*
X11072563Y-12123508D02*
X11082086Y-12133031D01*
X11082086Y-12133031D02*
X11091610Y-12123508D01*
X11091610Y-12123508D02*
X11082086Y-12113984D01*
X11082086Y-12113984D02*
X11082086Y-12133031D01*
X11205896Y-12313984D02*
X11186848Y-12304460D01*
X11186848Y-12304460D02*
X11177324Y-12285412D01*
X11177324Y-12285412D02*
X11177324Y-12113984D01*
X11310658Y-12313984D02*
X11291610Y-12304460D01*
X11291610Y-12304460D02*
X11282086Y-12285412D01*
X11282086Y-12285412D02*
X11282086Y-12113984D01*
X11539229Y-12313984D02*
X11539229Y-12113984D01*
X11539229Y-12113984D02*
X11605896Y-12256841D01*
X11605896Y-12256841D02*
X11672562Y-12113984D01*
X11672562Y-12113984D02*
X11672562Y-12313984D01*
X11853515Y-12313984D02*
X11853515Y-12209222D01*
X11853515Y-12209222D02*
X11843991Y-12190174D01*
X11843991Y-12190174D02*
X11824943Y-12180650D01*
X11824943Y-12180650D02*
X11786848Y-12180650D01*
X11786848Y-12180650D02*
X11767801Y-12190174D01*
X11853515Y-12304460D02*
X11834467Y-12313984D01*
X11834467Y-12313984D02*
X11786848Y-12313984D01*
X11786848Y-12313984D02*
X11767801Y-12304460D01*
X11767801Y-12304460D02*
X11758277Y-12285412D01*
X11758277Y-12285412D02*
X11758277Y-12266365D01*
X11758277Y-12266365D02*
X11767801Y-12247317D01*
X11767801Y-12247317D02*
X11786848Y-12237793D01*
X11786848Y-12237793D02*
X11834467Y-12237793D01*
X11834467Y-12237793D02*
X11853515Y-12228269D01*
X11948753Y-12180650D02*
X11948753Y-12380650D01*
X11948753Y-12190174D02*
X11967801Y-12180650D01*
X11967801Y-12180650D02*
X12005896Y-12180650D01*
X12005896Y-12180650D02*
X12024943Y-12190174D01*
X12024943Y-12190174D02*
X12034467Y-12199698D01*
X12034467Y-12199698D02*
X12043991Y-12218746D01*
X12043991Y-12218746D02*
X12043991Y-12275888D01*
X12043991Y-12275888D02*
X12034467Y-12294936D01*
X12034467Y-12294936D02*
X12024943Y-12304460D01*
X12024943Y-12304460D02*
X12005896Y-12313984D01*
X12005896Y-12313984D02*
X11967801Y-12313984D01*
X11967801Y-12313984D02*
X11948753Y-12304460D01*
X12129705Y-12294936D02*
X12139229Y-12304460D01*
X12139229Y-12304460D02*
X12129705Y-12313984D01*
X12129705Y-12313984D02*
X12120182Y-12304460D01*
X12120182Y-12304460D02*
X12129705Y-12294936D01*
X12129705Y-12294936D02*
X12129705Y-12313984D01*
X12129705Y-12190174D02*
X12139229Y-12199698D01*
X12139229Y-12199698D02*
X12129705Y-12209222D01*
X12129705Y-12209222D02*
X12120182Y-12199698D01*
X12120182Y-12199698D02*
X12129705Y-12190174D01*
X12129705Y-12190174D02*
X12129705Y-12209222D01*
D12*
X10467500Y-12627500D02*
X10497500Y-12657500D01*
X10497500Y-12627500D02*
X10467500Y-12657500D01*
D11*
X10796372Y-12533984D02*
X10815420Y-12533984D01*
X10815420Y-12533984D02*
X10834467Y-12543508D01*
X10834467Y-12543508D02*
X10843991Y-12553031D01*
X10843991Y-12553031D02*
X10853515Y-12572079D01*
X10853515Y-12572079D02*
X10863039Y-12610174D01*
X10863039Y-12610174D02*
X10863039Y-12657793D01*
X10863039Y-12657793D02*
X10853515Y-12695888D01*
X10853515Y-12695888D02*
X10843991Y-12714936D01*
X10843991Y-12714936D02*
X10834467Y-12724460D01*
X10834467Y-12724460D02*
X10815420Y-12733984D01*
X10815420Y-12733984D02*
X10796372Y-12733984D01*
X10796372Y-12733984D02*
X10777324Y-12724460D01*
X10777324Y-12724460D02*
X10767801Y-12714936D01*
X10767801Y-12714936D02*
X10758277Y-12695888D01*
X10758277Y-12695888D02*
X10748753Y-12657793D01*
X10748753Y-12657793D02*
X10748753Y-12610174D01*
X10748753Y-12610174D02*
X10758277Y-12572079D01*
X10758277Y-12572079D02*
X10767801Y-12553031D01*
X10767801Y-12553031D02*
X10777324Y-12543508D01*
X10777324Y-12543508D02*
X10796372Y-12533984D01*
X10948753Y-12714936D02*
X10958277Y-12724460D01*
X10958277Y-12724460D02*
X10948753Y-12733984D01*
X10948753Y-12733984D02*
X10939229Y-12724460D01*
X10939229Y-12724460D02*
X10948753Y-12714936D01*
X10948753Y-12714936D02*
X10948753Y-12733984D01*
X11024944Y-12533984D02*
X11148753Y-12533984D01*
X11148753Y-12533984D02*
X11082086Y-12610174D01*
X11082086Y-12610174D02*
X11110658Y-12610174D01*
X11110658Y-12610174D02*
X11129705Y-12619698D01*
X11129705Y-12619698D02*
X11139229Y-12629222D01*
X11139229Y-12629222D02*
X11148753Y-12648269D01*
X11148753Y-12648269D02*
X11148753Y-12695888D01*
X11148753Y-12695888D02*
X11139229Y-12714936D01*
X11139229Y-12714936D02*
X11129705Y-12724460D01*
X11129705Y-12724460D02*
X11110658Y-12733984D01*
X11110658Y-12733984D02*
X11053515Y-12733984D01*
X11053515Y-12733984D02*
X11034467Y-12724460D01*
X11034467Y-12724460D02*
X11024944Y-12714936D01*
X11272562Y-12533984D02*
X11291610Y-12533984D01*
X11291610Y-12533984D02*
X11310658Y-12543508D01*
X11310658Y-12543508D02*
X11320182Y-12553031D01*
X11320182Y-12553031D02*
X11329705Y-12572079D01*
X11329705Y-12572079D02*
X11339229Y-12610174D01*
X11339229Y-12610174D02*
X11339229Y-12657793D01*
X11339229Y-12657793D02*
X11329705Y-12695888D01*
X11329705Y-12695888D02*
X11320182Y-12714936D01*
X11320182Y-12714936D02*
X11310658Y-12724460D01*
X11310658Y-12724460D02*
X11291610Y-12733984D01*
X11291610Y-12733984D02*
X11272562Y-12733984D01*
X11272562Y-12733984D02*
X11253515Y-12724460D01*
X11253515Y-12724460D02*
X11243991Y-12714936D01*
X11243991Y-12714936D02*
X11234467Y-12695888D01*
X11234467Y-12695888D02*
X11224943Y-12657793D01*
X11224943Y-12657793D02*
X11224943Y-12610174D01*
X11224943Y-12610174D02*
X11234467Y-12572079D01*
X11234467Y-12572079D02*
X11243991Y-12553031D01*
X11243991Y-12553031D02*
X11253515Y-12543508D01*
X11253515Y-12543508D02*
X11272562Y-12533984D01*
X11463039Y-12533984D02*
X11482086Y-12533984D01*
X11482086Y-12533984D02*
X11501134Y-12543508D01*
X11501134Y-12543508D02*
X11510658Y-12553031D01*
X11510658Y-12553031D02*
X11520182Y-12572079D01*
X11520182Y-12572079D02*
X11529705Y-12610174D01*
X11529705Y-12610174D02*
X11529705Y-12657793D01*
X11529705Y-12657793D02*
X11520182Y-12695888D01*
X11520182Y-12695888D02*
X11510658Y-12714936D01*
X11510658Y-12714936D02*
X11501134Y-12724460D01*
X11501134Y-12724460D02*
X11482086Y-12733984D01*
X11482086Y-12733984D02*
X11463039Y-12733984D01*
X11463039Y-12733984D02*
X11443991Y-12724460D01*
X11443991Y-12724460D02*
X11434467Y-12714936D01*
X11434467Y-12714936D02*
X11424943Y-12695888D01*
X11424943Y-12695888D02*
X11415420Y-12657793D01*
X11415420Y-12657793D02*
X11415420Y-12610174D01*
X11415420Y-12610174D02*
X11424943Y-12572079D01*
X11424943Y-12572079D02*
X11434467Y-12553031D01*
X11434467Y-12553031D02*
X11443991Y-12543508D01*
X11443991Y-12543508D02*
X11463039Y-12533984D01*
X11615420Y-12733984D02*
X11615420Y-12600650D01*
X11615420Y-12619698D02*
X11624943Y-12610174D01*
X11624943Y-12610174D02*
X11643991Y-12600650D01*
X11643991Y-12600650D02*
X11672563Y-12600650D01*
X11672563Y-12600650D02*
X11691610Y-12610174D01*
X11691610Y-12610174D02*
X11701134Y-12629222D01*
X11701134Y-12629222D02*
X11701134Y-12733984D01*
X11701134Y-12629222D02*
X11710658Y-12610174D01*
X11710658Y-12610174D02*
X11729705Y-12600650D01*
X11729705Y-12600650D02*
X11758277Y-12600650D01*
X11758277Y-12600650D02*
X11777324Y-12610174D01*
X11777324Y-12610174D02*
X11786848Y-12629222D01*
X11786848Y-12629222D02*
X11786848Y-12733984D01*
X11882086Y-12733984D02*
X11882086Y-12600650D01*
X11882086Y-12619698D02*
X11891610Y-12610174D01*
X11891610Y-12610174D02*
X11910658Y-12600650D01*
X11910658Y-12600650D02*
X11939229Y-12600650D01*
X11939229Y-12600650D02*
X11958277Y-12610174D01*
X11958277Y-12610174D02*
X11967801Y-12629222D01*
X11967801Y-12629222D02*
X11967801Y-12733984D01*
X11967801Y-12629222D02*
X11977324Y-12610174D01*
X11977324Y-12610174D02*
X11996372Y-12600650D01*
X11996372Y-12600650D02*
X12024943Y-12600650D01*
X12024943Y-12600650D02*
X12043991Y-12610174D01*
X12043991Y-12610174D02*
X12053515Y-12629222D01*
X12053515Y-12629222D02*
X12053515Y-12733984D01*
X12443991Y-12524460D02*
X12272563Y-12781603D01*
X12701134Y-12533984D02*
X12720182Y-12533984D01*
X12720182Y-12533984D02*
X12739229Y-12543508D01*
X12739229Y-12543508D02*
X12748753Y-12553031D01*
X12748753Y-12553031D02*
X12758277Y-12572079D01*
X12758277Y-12572079D02*
X12767801Y-12610174D01*
X12767801Y-12610174D02*
X12767801Y-12657793D01*
X12767801Y-12657793D02*
X12758277Y-12695888D01*
X12758277Y-12695888D02*
X12748753Y-12714936D01*
X12748753Y-12714936D02*
X12739229Y-12724460D01*
X12739229Y-12724460D02*
X12720182Y-12733984D01*
X12720182Y-12733984D02*
X12701134Y-12733984D01*
X12701134Y-12733984D02*
X12682086Y-12724460D01*
X12682086Y-12724460D02*
X12672563Y-12714936D01*
X12672563Y-12714936D02*
X12663039Y-12695888D01*
X12663039Y-12695888D02*
X12653515Y-12657793D01*
X12653515Y-12657793D02*
X12653515Y-12610174D01*
X12653515Y-12610174D02*
X12663039Y-12572079D01*
X12663039Y-12572079D02*
X12672563Y-12553031D01*
X12672563Y-12553031D02*
X12682086Y-12543508D01*
X12682086Y-12543508D02*
X12701134Y-12533984D01*
X12853515Y-12714936D02*
X12863039Y-12724460D01*
X12863039Y-12724460D02*
X12853515Y-12733984D01*
X12853515Y-12733984D02*
X12843991Y-12724460D01*
X12843991Y-12724460D02*
X12853515Y-12714936D01*
X12853515Y-12714936D02*
X12853515Y-12733984D01*
X12986848Y-12533984D02*
X13005896Y-12533984D01*
X13005896Y-12533984D02*
X13024944Y-12543508D01*
X13024944Y-12543508D02*
X13034467Y-12553031D01*
X13034467Y-12553031D02*
X13043991Y-12572079D01*
X13043991Y-12572079D02*
X13053515Y-12610174D01*
X13053515Y-12610174D02*
X13053515Y-12657793D01*
X13053515Y-12657793D02*
X13043991Y-12695888D01*
X13043991Y-12695888D02*
X13034467Y-12714936D01*
X13034467Y-12714936D02*
X13024944Y-12724460D01*
X13024944Y-12724460D02*
X13005896Y-12733984D01*
X13005896Y-12733984D02*
X12986848Y-12733984D01*
X12986848Y-12733984D02*
X12967801Y-12724460D01*
X12967801Y-12724460D02*
X12958277Y-12714936D01*
X12958277Y-12714936D02*
X12948753Y-12695888D01*
X12948753Y-12695888D02*
X12939229Y-12657793D01*
X12939229Y-12657793D02*
X12939229Y-12610174D01*
X12939229Y-12610174D02*
X12948753Y-12572079D01*
X12948753Y-12572079D02*
X12958277Y-12553031D01*
X12958277Y-12553031D02*
X12967801Y-12543508D01*
X12967801Y-12543508D02*
X12986848Y-12533984D01*
X13243991Y-12733984D02*
X13129706Y-12733984D01*
X13186848Y-12733984D02*
X13186848Y-12533984D01*
X13186848Y-12533984D02*
X13167801Y-12562555D01*
X13167801Y-12562555D02*
X13148753Y-12581603D01*
X13148753Y-12581603D02*
X13129706Y-12591127D01*
X13434467Y-12733984D02*
X13320182Y-12733984D01*
X13377325Y-12733984D02*
X13377325Y-12533984D01*
X13377325Y-12533984D02*
X13358277Y-12562555D01*
X13358277Y-12562555D02*
X13339229Y-12581603D01*
X13339229Y-12581603D02*
X13320182Y-12591127D01*
X13548753Y-12619698D02*
X13529706Y-12610174D01*
X13529706Y-12610174D02*
X13520182Y-12600650D01*
X13520182Y-12600650D02*
X13510658Y-12581603D01*
X13510658Y-12581603D02*
X13510658Y-12572079D01*
X13510658Y-12572079D02*
X13520182Y-12553031D01*
X13520182Y-12553031D02*
X13529706Y-12543508D01*
X13529706Y-12543508D02*
X13548753Y-12533984D01*
X13548753Y-12533984D02*
X13586848Y-12533984D01*
X13586848Y-12533984D02*
X13605896Y-12543508D01*
X13605896Y-12543508D02*
X13615420Y-12553031D01*
X13615420Y-12553031D02*
X13624944Y-12572079D01*
X13624944Y-12572079D02*
X13624944Y-12581603D01*
X13624944Y-12581603D02*
X13615420Y-12600650D01*
X13615420Y-12600650D02*
X13605896Y-12610174D01*
X13605896Y-12610174D02*
X13586848Y-12619698D01*
X13586848Y-12619698D02*
X13548753Y-12619698D01*
X13548753Y-12619698D02*
X13529706Y-12629222D01*
X13529706Y-12629222D02*
X13520182Y-12638746D01*
X13520182Y-12638746D02*
X13510658Y-12657793D01*
X13510658Y-12657793D02*
X13510658Y-12695888D01*
X13510658Y-12695888D02*
X13520182Y-12714936D01*
X13520182Y-12714936D02*
X13529706Y-12724460D01*
X13529706Y-12724460D02*
X13548753Y-12733984D01*
X13548753Y-12733984D02*
X13586848Y-12733984D01*
X13586848Y-12733984D02*
X13605896Y-12724460D01*
X13605896Y-12724460D02*
X13615420Y-12714936D01*
X13615420Y-12714936D02*
X13624944Y-12695888D01*
X13624944Y-12695888D02*
X13624944Y-12657793D01*
X13624944Y-12657793D02*
X13615420Y-12638746D01*
X13615420Y-12638746D02*
X13605896Y-12629222D01*
X13605896Y-12629222D02*
X13586848Y-12619698D01*
X13701134Y-12533984D02*
X13701134Y-12572079D01*
X13777325Y-12533984D02*
X13777325Y-12572079D01*
X14072563Y-12810174D02*
X14063039Y-12800650D01*
X14063039Y-12800650D02*
X14043991Y-12772079D01*
X14043991Y-12772079D02*
X14034468Y-12753031D01*
X14034468Y-12753031D02*
X14024944Y-12724460D01*
X14024944Y-12724460D02*
X14015420Y-12676841D01*
X14015420Y-12676841D02*
X14015420Y-12638746D01*
X14015420Y-12638746D02*
X14024944Y-12591127D01*
X14024944Y-12591127D02*
X14034468Y-12562555D01*
X14034468Y-12562555D02*
X14043991Y-12543508D01*
X14043991Y-12543508D02*
X14063039Y-12514936D01*
X14063039Y-12514936D02*
X14072563Y-12505412D01*
X14253515Y-12733984D02*
X14139229Y-12733984D01*
X14196372Y-12733984D02*
X14196372Y-12533984D01*
X14196372Y-12533984D02*
X14177325Y-12562555D01*
X14177325Y-12562555D02*
X14158277Y-12581603D01*
X14158277Y-12581603D02*
X14139229Y-12591127D01*
X14320182Y-12533984D02*
X14443991Y-12533984D01*
X14443991Y-12533984D02*
X14377325Y-12610174D01*
X14377325Y-12610174D02*
X14405896Y-12610174D01*
X14405896Y-12610174D02*
X14424944Y-12619698D01*
X14424944Y-12619698D02*
X14434468Y-12629222D01*
X14434468Y-12629222D02*
X14443991Y-12648269D01*
X14443991Y-12648269D02*
X14443991Y-12695888D01*
X14443991Y-12695888D02*
X14434468Y-12714936D01*
X14434468Y-12714936D02*
X14424944Y-12724460D01*
X14424944Y-12724460D02*
X14405896Y-12733984D01*
X14405896Y-12733984D02*
X14348753Y-12733984D01*
X14348753Y-12733984D02*
X14329706Y-12724460D01*
X14329706Y-12724460D02*
X14320182Y-12714936D01*
X14682087Y-12733984D02*
X14682087Y-12533984D01*
X14767801Y-12733984D02*
X14767801Y-12629222D01*
X14767801Y-12629222D02*
X14758277Y-12610174D01*
X14758277Y-12610174D02*
X14739230Y-12600650D01*
X14739230Y-12600650D02*
X14710658Y-12600650D01*
X14710658Y-12600650D02*
X14691610Y-12610174D01*
X14691610Y-12610174D02*
X14682087Y-12619698D01*
X14891610Y-12733984D02*
X14872563Y-12724460D01*
X14872563Y-12724460D02*
X14863039Y-12714936D01*
X14863039Y-12714936D02*
X14853515Y-12695888D01*
X14853515Y-12695888D02*
X14853515Y-12638746D01*
X14853515Y-12638746D02*
X14863039Y-12619698D01*
X14863039Y-12619698D02*
X14872563Y-12610174D01*
X14872563Y-12610174D02*
X14891610Y-12600650D01*
X14891610Y-12600650D02*
X14920182Y-12600650D01*
X14920182Y-12600650D02*
X14939230Y-12610174D01*
X14939230Y-12610174D02*
X14948753Y-12619698D01*
X14948753Y-12619698D02*
X14958277Y-12638746D01*
X14958277Y-12638746D02*
X14958277Y-12695888D01*
X14958277Y-12695888D02*
X14948753Y-12714936D01*
X14948753Y-12714936D02*
X14939230Y-12724460D01*
X14939230Y-12724460D02*
X14920182Y-12733984D01*
X14920182Y-12733984D02*
X14891610Y-12733984D01*
X15072563Y-12733984D02*
X15053515Y-12724460D01*
X15053515Y-12724460D02*
X15043991Y-12705412D01*
X15043991Y-12705412D02*
X15043991Y-12533984D01*
X15224944Y-12724460D02*
X15205896Y-12733984D01*
X15205896Y-12733984D02*
X15167801Y-12733984D01*
X15167801Y-12733984D02*
X15148753Y-12724460D01*
X15148753Y-12724460D02*
X15139230Y-12705412D01*
X15139230Y-12705412D02*
X15139230Y-12629222D01*
X15139230Y-12629222D02*
X15148753Y-12610174D01*
X15148753Y-12610174D02*
X15167801Y-12600650D01*
X15167801Y-12600650D02*
X15205896Y-12600650D01*
X15205896Y-12600650D02*
X15224944Y-12610174D01*
X15224944Y-12610174D02*
X15234468Y-12629222D01*
X15234468Y-12629222D02*
X15234468Y-12648269D01*
X15234468Y-12648269D02*
X15139230Y-12667317D01*
X15310658Y-12724460D02*
X15329706Y-12733984D01*
X15329706Y-12733984D02*
X15367801Y-12733984D01*
X15367801Y-12733984D02*
X15386849Y-12724460D01*
X15386849Y-12724460D02*
X15396372Y-12705412D01*
X15396372Y-12705412D02*
X15396372Y-12695888D01*
X15396372Y-12695888D02*
X15386849Y-12676841D01*
X15386849Y-12676841D02*
X15367801Y-12667317D01*
X15367801Y-12667317D02*
X15339230Y-12667317D01*
X15339230Y-12667317D02*
X15320182Y-12657793D01*
X15320182Y-12657793D02*
X15310658Y-12638746D01*
X15310658Y-12638746D02*
X15310658Y-12629222D01*
X15310658Y-12629222D02*
X15320182Y-12610174D01*
X15320182Y-12610174D02*
X15339230Y-12600650D01*
X15339230Y-12600650D02*
X15367801Y-12600650D01*
X15367801Y-12600650D02*
X15386849Y-12610174D01*
X15463039Y-12810174D02*
X15472563Y-12800650D01*
X15472563Y-12800650D02*
X15491611Y-12772079D01*
X15491611Y-12772079D02*
X15501134Y-12753031D01*
X15501134Y-12753031D02*
X15510658Y-12724460D01*
X15510658Y-12724460D02*
X15520182Y-12676841D01*
X15520182Y-12676841D02*
X15520182Y-12638746D01*
X15520182Y-12638746D02*
X15510658Y-12591127D01*
X15510658Y-12591127D02*
X15501134Y-12562555D01*
X15501134Y-12562555D02*
X15491611Y-12543508D01*
X15491611Y-12543508D02*
X15472563Y-12514936D01*
X15472563Y-12514936D02*
X15463039Y-12505412D01*
D12*
X10497500Y-12906500D02*
G75*
G02*
X10417500Y-12906500I-40000J0D01*
G01*
X10417500Y-12906500D02*
G75*
G02*
X10497500Y-12906500I40000J0D01*
G01*
D11*
X10796372Y-12797984D02*
X10815420Y-12797984D01*
X10815420Y-12797984D02*
X10834467Y-12807508D01*
X10834467Y-12807508D02*
X10843991Y-12817031D01*
X10843991Y-12817031D02*
X10853515Y-12836079D01*
X10853515Y-12836079D02*
X10863039Y-12874174D01*
X10863039Y-12874174D02*
X10863039Y-12921793D01*
X10863039Y-12921793D02*
X10853515Y-12959888D01*
X10853515Y-12959888D02*
X10843991Y-12978936D01*
X10843991Y-12978936D02*
X10834467Y-12988460D01*
X10834467Y-12988460D02*
X10815420Y-12997984D01*
X10815420Y-12997984D02*
X10796372Y-12997984D01*
X10796372Y-12997984D02*
X10777324Y-12988460D01*
X10777324Y-12988460D02*
X10767801Y-12978936D01*
X10767801Y-12978936D02*
X10758277Y-12959888D01*
X10758277Y-12959888D02*
X10748753Y-12921793D01*
X10748753Y-12921793D02*
X10748753Y-12874174D01*
X10748753Y-12874174D02*
X10758277Y-12836079D01*
X10758277Y-12836079D02*
X10767801Y-12817031D01*
X10767801Y-12817031D02*
X10777324Y-12807508D01*
X10777324Y-12807508D02*
X10796372Y-12797984D01*
X10948753Y-12978936D02*
X10958277Y-12988460D01*
X10958277Y-12988460D02*
X10948753Y-12997984D01*
X10948753Y-12997984D02*
X10939229Y-12988460D01*
X10939229Y-12988460D02*
X10948753Y-12978936D01*
X10948753Y-12978936D02*
X10948753Y-12997984D01*
X11072563Y-12883698D02*
X11053515Y-12874174D01*
X11053515Y-12874174D02*
X11043991Y-12864650D01*
X11043991Y-12864650D02*
X11034467Y-12845603D01*
X11034467Y-12845603D02*
X11034467Y-12836079D01*
X11034467Y-12836079D02*
X11043991Y-12817031D01*
X11043991Y-12817031D02*
X11053515Y-12807508D01*
X11053515Y-12807508D02*
X11072563Y-12797984D01*
X11072563Y-12797984D02*
X11110658Y-12797984D01*
X11110658Y-12797984D02*
X11129705Y-12807508D01*
X11129705Y-12807508D02*
X11139229Y-12817031D01*
X11139229Y-12817031D02*
X11148753Y-12836079D01*
X11148753Y-12836079D02*
X11148753Y-12845603D01*
X11148753Y-12845603D02*
X11139229Y-12864650D01*
X11139229Y-12864650D02*
X11129705Y-12874174D01*
X11129705Y-12874174D02*
X11110658Y-12883698D01*
X11110658Y-12883698D02*
X11072563Y-12883698D01*
X11072563Y-12883698D02*
X11053515Y-12893222D01*
X11053515Y-12893222D02*
X11043991Y-12902746D01*
X11043991Y-12902746D02*
X11034467Y-12921793D01*
X11034467Y-12921793D02*
X11034467Y-12959888D01*
X11034467Y-12959888D02*
X11043991Y-12978936D01*
X11043991Y-12978936D02*
X11053515Y-12988460D01*
X11053515Y-12988460D02*
X11072563Y-12997984D01*
X11072563Y-12997984D02*
X11110658Y-12997984D01*
X11110658Y-12997984D02*
X11129705Y-12988460D01*
X11129705Y-12988460D02*
X11139229Y-12978936D01*
X11139229Y-12978936D02*
X11148753Y-12959888D01*
X11148753Y-12959888D02*
X11148753Y-12921793D01*
X11148753Y-12921793D02*
X11139229Y-12902746D01*
X11139229Y-12902746D02*
X11129705Y-12893222D01*
X11129705Y-12893222D02*
X11110658Y-12883698D01*
X11272562Y-12797984D02*
X11291610Y-12797984D01*
X11291610Y-12797984D02*
X11310658Y-12807508D01*
X11310658Y-12807508D02*
X11320182Y-12817031D01*
X11320182Y-12817031D02*
X11329705Y-12836079D01*
X11329705Y-12836079D02*
X11339229Y-12874174D01*
X11339229Y-12874174D02*
X11339229Y-12921793D01*
X11339229Y-12921793D02*
X11329705Y-12959888D01*
X11329705Y-12959888D02*
X11320182Y-12978936D01*
X11320182Y-12978936D02*
X11310658Y-12988460D01*
X11310658Y-12988460D02*
X11291610Y-12997984D01*
X11291610Y-12997984D02*
X11272562Y-12997984D01*
X11272562Y-12997984D02*
X11253515Y-12988460D01*
X11253515Y-12988460D02*
X11243991Y-12978936D01*
X11243991Y-12978936D02*
X11234467Y-12959888D01*
X11234467Y-12959888D02*
X11224943Y-12921793D01*
X11224943Y-12921793D02*
X11224943Y-12874174D01*
X11224943Y-12874174D02*
X11234467Y-12836079D01*
X11234467Y-12836079D02*
X11243991Y-12817031D01*
X11243991Y-12817031D02*
X11253515Y-12807508D01*
X11253515Y-12807508D02*
X11272562Y-12797984D01*
X11463039Y-12797984D02*
X11482086Y-12797984D01*
X11482086Y-12797984D02*
X11501134Y-12807508D01*
X11501134Y-12807508D02*
X11510658Y-12817031D01*
X11510658Y-12817031D02*
X11520182Y-12836079D01*
X11520182Y-12836079D02*
X11529705Y-12874174D01*
X11529705Y-12874174D02*
X11529705Y-12921793D01*
X11529705Y-12921793D02*
X11520182Y-12959888D01*
X11520182Y-12959888D02*
X11510658Y-12978936D01*
X11510658Y-12978936D02*
X11501134Y-12988460D01*
X11501134Y-12988460D02*
X11482086Y-12997984D01*
X11482086Y-12997984D02*
X11463039Y-12997984D01*
X11463039Y-12997984D02*
X11443991Y-12988460D01*
X11443991Y-12988460D02*
X11434467Y-12978936D01*
X11434467Y-12978936D02*
X11424943Y-12959888D01*
X11424943Y-12959888D02*
X11415420Y-12921793D01*
X11415420Y-12921793D02*
X11415420Y-12874174D01*
X11415420Y-12874174D02*
X11424943Y-12836079D01*
X11424943Y-12836079D02*
X11434467Y-12817031D01*
X11434467Y-12817031D02*
X11443991Y-12807508D01*
X11443991Y-12807508D02*
X11463039Y-12797984D01*
X11615420Y-12997984D02*
X11615420Y-12864650D01*
X11615420Y-12883698D02*
X11624943Y-12874174D01*
X11624943Y-12874174D02*
X11643991Y-12864650D01*
X11643991Y-12864650D02*
X11672563Y-12864650D01*
X11672563Y-12864650D02*
X11691610Y-12874174D01*
X11691610Y-12874174D02*
X11701134Y-12893222D01*
X11701134Y-12893222D02*
X11701134Y-12997984D01*
X11701134Y-12893222D02*
X11710658Y-12874174D01*
X11710658Y-12874174D02*
X11729705Y-12864650D01*
X11729705Y-12864650D02*
X11758277Y-12864650D01*
X11758277Y-12864650D02*
X11777324Y-12874174D01*
X11777324Y-12874174D02*
X11786848Y-12893222D01*
X11786848Y-12893222D02*
X11786848Y-12997984D01*
X11882086Y-12997984D02*
X11882086Y-12864650D01*
X11882086Y-12883698D02*
X11891610Y-12874174D01*
X11891610Y-12874174D02*
X11910658Y-12864650D01*
X11910658Y-12864650D02*
X11939229Y-12864650D01*
X11939229Y-12864650D02*
X11958277Y-12874174D01*
X11958277Y-12874174D02*
X11967801Y-12893222D01*
X11967801Y-12893222D02*
X11967801Y-12997984D01*
X11967801Y-12893222D02*
X11977324Y-12874174D01*
X11977324Y-12874174D02*
X11996372Y-12864650D01*
X11996372Y-12864650D02*
X12024943Y-12864650D01*
X12024943Y-12864650D02*
X12043991Y-12874174D01*
X12043991Y-12874174D02*
X12053515Y-12893222D01*
X12053515Y-12893222D02*
X12053515Y-12997984D01*
X12443991Y-12788460D02*
X12272563Y-13045603D01*
X12701134Y-12797984D02*
X12720182Y-12797984D01*
X12720182Y-12797984D02*
X12739229Y-12807508D01*
X12739229Y-12807508D02*
X12748753Y-12817031D01*
X12748753Y-12817031D02*
X12758277Y-12836079D01*
X12758277Y-12836079D02*
X12767801Y-12874174D01*
X12767801Y-12874174D02*
X12767801Y-12921793D01*
X12767801Y-12921793D02*
X12758277Y-12959888D01*
X12758277Y-12959888D02*
X12748753Y-12978936D01*
X12748753Y-12978936D02*
X12739229Y-12988460D01*
X12739229Y-12988460D02*
X12720182Y-12997984D01*
X12720182Y-12997984D02*
X12701134Y-12997984D01*
X12701134Y-12997984D02*
X12682086Y-12988460D01*
X12682086Y-12988460D02*
X12672563Y-12978936D01*
X12672563Y-12978936D02*
X12663039Y-12959888D01*
X12663039Y-12959888D02*
X12653515Y-12921793D01*
X12653515Y-12921793D02*
X12653515Y-12874174D01*
X12653515Y-12874174D02*
X12663039Y-12836079D01*
X12663039Y-12836079D02*
X12672563Y-12817031D01*
X12672563Y-12817031D02*
X12682086Y-12807508D01*
X12682086Y-12807508D02*
X12701134Y-12797984D01*
X12853515Y-12978936D02*
X12863039Y-12988460D01*
X12863039Y-12988460D02*
X12853515Y-12997984D01*
X12853515Y-12997984D02*
X12843991Y-12988460D01*
X12843991Y-12988460D02*
X12853515Y-12978936D01*
X12853515Y-12978936D02*
X12853515Y-12997984D01*
X12986848Y-12797984D02*
X13005896Y-12797984D01*
X13005896Y-12797984D02*
X13024944Y-12807508D01*
X13024944Y-12807508D02*
X13034467Y-12817031D01*
X13034467Y-12817031D02*
X13043991Y-12836079D01*
X13043991Y-12836079D02*
X13053515Y-12874174D01*
X13053515Y-12874174D02*
X13053515Y-12921793D01*
X13053515Y-12921793D02*
X13043991Y-12959888D01*
X13043991Y-12959888D02*
X13034467Y-12978936D01*
X13034467Y-12978936D02*
X13024944Y-12988460D01*
X13024944Y-12988460D02*
X13005896Y-12997984D01*
X13005896Y-12997984D02*
X12986848Y-12997984D01*
X12986848Y-12997984D02*
X12967801Y-12988460D01*
X12967801Y-12988460D02*
X12958277Y-12978936D01*
X12958277Y-12978936D02*
X12948753Y-12959888D01*
X12948753Y-12959888D02*
X12939229Y-12921793D01*
X12939229Y-12921793D02*
X12939229Y-12874174D01*
X12939229Y-12874174D02*
X12948753Y-12836079D01*
X12948753Y-12836079D02*
X12958277Y-12817031D01*
X12958277Y-12817031D02*
X12967801Y-12807508D01*
X12967801Y-12807508D02*
X12986848Y-12797984D01*
X13120182Y-12797984D02*
X13243991Y-12797984D01*
X13243991Y-12797984D02*
X13177325Y-12874174D01*
X13177325Y-12874174D02*
X13205896Y-12874174D01*
X13205896Y-12874174D02*
X13224944Y-12883698D01*
X13224944Y-12883698D02*
X13234467Y-12893222D01*
X13234467Y-12893222D02*
X13243991Y-12912269D01*
X13243991Y-12912269D02*
X13243991Y-12959888D01*
X13243991Y-12959888D02*
X13234467Y-12978936D01*
X13234467Y-12978936D02*
X13224944Y-12988460D01*
X13224944Y-12988460D02*
X13205896Y-12997984D01*
X13205896Y-12997984D02*
X13148753Y-12997984D01*
X13148753Y-12997984D02*
X13129706Y-12988460D01*
X13129706Y-12988460D02*
X13120182Y-12978936D01*
X13434467Y-12997984D02*
X13320182Y-12997984D01*
X13377325Y-12997984D02*
X13377325Y-12797984D01*
X13377325Y-12797984D02*
X13358277Y-12826555D01*
X13358277Y-12826555D02*
X13339229Y-12845603D01*
X13339229Y-12845603D02*
X13320182Y-12855127D01*
X13615420Y-12797984D02*
X13520182Y-12797984D01*
X13520182Y-12797984D02*
X13510658Y-12893222D01*
X13510658Y-12893222D02*
X13520182Y-12883698D01*
X13520182Y-12883698D02*
X13539229Y-12874174D01*
X13539229Y-12874174D02*
X13586848Y-12874174D01*
X13586848Y-12874174D02*
X13605896Y-12883698D01*
X13605896Y-12883698D02*
X13615420Y-12893222D01*
X13615420Y-12893222D02*
X13624944Y-12912269D01*
X13624944Y-12912269D02*
X13624944Y-12959888D01*
X13624944Y-12959888D02*
X13615420Y-12978936D01*
X13615420Y-12978936D02*
X13605896Y-12988460D01*
X13605896Y-12988460D02*
X13586848Y-12997984D01*
X13586848Y-12997984D02*
X13539229Y-12997984D01*
X13539229Y-12997984D02*
X13520182Y-12988460D01*
X13520182Y-12988460D02*
X13510658Y-12978936D01*
X13701134Y-12797984D02*
X13701134Y-12836079D01*
X13777325Y-12797984D02*
X13777325Y-12836079D01*
X14072563Y-13074174D02*
X14063039Y-13064650D01*
X14063039Y-13064650D02*
X14043991Y-13036079D01*
X14043991Y-13036079D02*
X14034468Y-13017031D01*
X14034468Y-13017031D02*
X14024944Y-12988460D01*
X14024944Y-12988460D02*
X14015420Y-12940841D01*
X14015420Y-12940841D02*
X14015420Y-12902746D01*
X14015420Y-12902746D02*
X14024944Y-12855127D01*
X14024944Y-12855127D02*
X14034468Y-12826555D01*
X14034468Y-12826555D02*
X14043991Y-12807508D01*
X14043991Y-12807508D02*
X14063039Y-12778936D01*
X14063039Y-12778936D02*
X14072563Y-12769412D01*
X14253515Y-12997984D02*
X14139229Y-12997984D01*
X14196372Y-12997984D02*
X14196372Y-12797984D01*
X14196372Y-12797984D02*
X14177325Y-12826555D01*
X14177325Y-12826555D02*
X14158277Y-12845603D01*
X14158277Y-12845603D02*
X14139229Y-12855127D01*
X14367801Y-12883698D02*
X14348753Y-12874174D01*
X14348753Y-12874174D02*
X14339229Y-12864650D01*
X14339229Y-12864650D02*
X14329706Y-12845603D01*
X14329706Y-12845603D02*
X14329706Y-12836079D01*
X14329706Y-12836079D02*
X14339229Y-12817031D01*
X14339229Y-12817031D02*
X14348753Y-12807508D01*
X14348753Y-12807508D02*
X14367801Y-12797984D01*
X14367801Y-12797984D02*
X14405896Y-12797984D01*
X14405896Y-12797984D02*
X14424944Y-12807508D01*
X14424944Y-12807508D02*
X14434468Y-12817031D01*
X14434468Y-12817031D02*
X14443991Y-12836079D01*
X14443991Y-12836079D02*
X14443991Y-12845603D01*
X14443991Y-12845603D02*
X14434468Y-12864650D01*
X14434468Y-12864650D02*
X14424944Y-12874174D01*
X14424944Y-12874174D02*
X14405896Y-12883698D01*
X14405896Y-12883698D02*
X14367801Y-12883698D01*
X14367801Y-12883698D02*
X14348753Y-12893222D01*
X14348753Y-12893222D02*
X14339229Y-12902746D01*
X14339229Y-12902746D02*
X14329706Y-12921793D01*
X14329706Y-12921793D02*
X14329706Y-12959888D01*
X14329706Y-12959888D02*
X14339229Y-12978936D01*
X14339229Y-12978936D02*
X14348753Y-12988460D01*
X14348753Y-12988460D02*
X14367801Y-12997984D01*
X14367801Y-12997984D02*
X14405896Y-12997984D01*
X14405896Y-12997984D02*
X14424944Y-12988460D01*
X14424944Y-12988460D02*
X14434468Y-12978936D01*
X14434468Y-12978936D02*
X14443991Y-12959888D01*
X14443991Y-12959888D02*
X14443991Y-12921793D01*
X14443991Y-12921793D02*
X14434468Y-12902746D01*
X14434468Y-12902746D02*
X14424944Y-12893222D01*
X14424944Y-12893222D02*
X14405896Y-12883698D01*
X14682087Y-12997984D02*
X14682087Y-12797984D01*
X14767801Y-12997984D02*
X14767801Y-12893222D01*
X14767801Y-12893222D02*
X14758277Y-12874174D01*
X14758277Y-12874174D02*
X14739230Y-12864650D01*
X14739230Y-12864650D02*
X14710658Y-12864650D01*
X14710658Y-12864650D02*
X14691610Y-12874174D01*
X14691610Y-12874174D02*
X14682087Y-12883698D01*
X14891610Y-12997984D02*
X14872563Y-12988460D01*
X14872563Y-12988460D02*
X14863039Y-12978936D01*
X14863039Y-12978936D02*
X14853515Y-12959888D01*
X14853515Y-12959888D02*
X14853515Y-12902746D01*
X14853515Y-12902746D02*
X14863039Y-12883698D01*
X14863039Y-12883698D02*
X14872563Y-12874174D01*
X14872563Y-12874174D02*
X14891610Y-12864650D01*
X14891610Y-12864650D02*
X14920182Y-12864650D01*
X14920182Y-12864650D02*
X14939230Y-12874174D01*
X14939230Y-12874174D02*
X14948753Y-12883698D01*
X14948753Y-12883698D02*
X14958277Y-12902746D01*
X14958277Y-12902746D02*
X14958277Y-12959888D01*
X14958277Y-12959888D02*
X14948753Y-12978936D01*
X14948753Y-12978936D02*
X14939230Y-12988460D01*
X14939230Y-12988460D02*
X14920182Y-12997984D01*
X14920182Y-12997984D02*
X14891610Y-12997984D01*
X15072563Y-12997984D02*
X15053515Y-12988460D01*
X15053515Y-12988460D02*
X15043991Y-12969412D01*
X15043991Y-12969412D02*
X15043991Y-12797984D01*
X15224944Y-12988460D02*
X15205896Y-12997984D01*
X15205896Y-12997984D02*
X15167801Y-12997984D01*
X15167801Y-12997984D02*
X15148753Y-12988460D01*
X15148753Y-12988460D02*
X15139230Y-12969412D01*
X15139230Y-12969412D02*
X15139230Y-12893222D01*
X15139230Y-12893222D02*
X15148753Y-12874174D01*
X15148753Y-12874174D02*
X15167801Y-12864650D01*
X15167801Y-12864650D02*
X15205896Y-12864650D01*
X15205896Y-12864650D02*
X15224944Y-12874174D01*
X15224944Y-12874174D02*
X15234468Y-12893222D01*
X15234468Y-12893222D02*
X15234468Y-12912269D01*
X15234468Y-12912269D02*
X15139230Y-12931317D01*
X15310658Y-12988460D02*
X15329706Y-12997984D01*
X15329706Y-12997984D02*
X15367801Y-12997984D01*
X15367801Y-12997984D02*
X15386849Y-12988460D01*
X15386849Y-12988460D02*
X15396372Y-12969412D01*
X15396372Y-12969412D02*
X15396372Y-12959888D01*
X15396372Y-12959888D02*
X15386849Y-12940841D01*
X15386849Y-12940841D02*
X15367801Y-12931317D01*
X15367801Y-12931317D02*
X15339230Y-12931317D01*
X15339230Y-12931317D02*
X15320182Y-12921793D01*
X15320182Y-12921793D02*
X15310658Y-12902746D01*
X15310658Y-12902746D02*
X15310658Y-12893222D01*
X15310658Y-12893222D02*
X15320182Y-12874174D01*
X15320182Y-12874174D02*
X15339230Y-12864650D01*
X15339230Y-12864650D02*
X15367801Y-12864650D01*
X15367801Y-12864650D02*
X15386849Y-12874174D01*
X15463039Y-13074174D02*
X15472563Y-13064650D01*
X15472563Y-13064650D02*
X15491611Y-13036079D01*
X15491611Y-13036079D02*
X15501134Y-13017031D01*
X15501134Y-13017031D02*
X15510658Y-12988460D01*
X15510658Y-12988460D02*
X15520182Y-12940841D01*
X15520182Y-12940841D02*
X15520182Y-12902746D01*
X15520182Y-12902746D02*
X15510658Y-12855127D01*
X15510658Y-12855127D02*
X15501134Y-12826555D01*
X15501134Y-12826555D02*
X15491611Y-12807508D01*
X15491611Y-12807508D02*
X15472563Y-12778936D01*
X15472563Y-12778936D02*
X15463039Y-12769412D01*
D12*
X10452500Y-13125500D02*
X10452500Y-13215500D01*
X10407500Y-13170500D02*
X10497500Y-13170500D01*
D11*
X10796372Y-13061984D02*
X10815420Y-13061984D01*
X10815420Y-13061984D02*
X10834467Y-13071508D01*
X10834467Y-13071508D02*
X10843991Y-13081031D01*
X10843991Y-13081031D02*
X10853515Y-13100079D01*
X10853515Y-13100079D02*
X10863039Y-13138174D01*
X10863039Y-13138174D02*
X10863039Y-13185793D01*
X10863039Y-13185793D02*
X10853515Y-13223888D01*
X10853515Y-13223888D02*
X10843991Y-13242936D01*
X10843991Y-13242936D02*
X10834467Y-13252460D01*
X10834467Y-13252460D02*
X10815420Y-13261984D01*
X10815420Y-13261984D02*
X10796372Y-13261984D01*
X10796372Y-13261984D02*
X10777324Y-13252460D01*
X10777324Y-13252460D02*
X10767801Y-13242936D01*
X10767801Y-13242936D02*
X10758277Y-13223888D01*
X10758277Y-13223888D02*
X10748753Y-13185793D01*
X10748753Y-13185793D02*
X10748753Y-13138174D01*
X10748753Y-13138174D02*
X10758277Y-13100079D01*
X10758277Y-13100079D02*
X10767801Y-13081031D01*
X10767801Y-13081031D02*
X10777324Y-13071508D01*
X10777324Y-13071508D02*
X10796372Y-13061984D01*
X10948753Y-13242936D02*
X10958277Y-13252460D01*
X10958277Y-13252460D02*
X10948753Y-13261984D01*
X10948753Y-13261984D02*
X10939229Y-13252460D01*
X10939229Y-13252460D02*
X10948753Y-13242936D01*
X10948753Y-13242936D02*
X10948753Y-13261984D01*
X11053515Y-13261984D02*
X11091610Y-13261984D01*
X11091610Y-13261984D02*
X11110658Y-13252460D01*
X11110658Y-13252460D02*
X11120182Y-13242936D01*
X11120182Y-13242936D02*
X11139229Y-13214365D01*
X11139229Y-13214365D02*
X11148753Y-13176269D01*
X11148753Y-13176269D02*
X11148753Y-13100079D01*
X11148753Y-13100079D02*
X11139229Y-13081031D01*
X11139229Y-13081031D02*
X11129705Y-13071508D01*
X11129705Y-13071508D02*
X11110658Y-13061984D01*
X11110658Y-13061984D02*
X11072563Y-13061984D01*
X11072563Y-13061984D02*
X11053515Y-13071508D01*
X11053515Y-13071508D02*
X11043991Y-13081031D01*
X11043991Y-13081031D02*
X11034467Y-13100079D01*
X11034467Y-13100079D02*
X11034467Y-13147698D01*
X11034467Y-13147698D02*
X11043991Y-13166746D01*
X11043991Y-13166746D02*
X11053515Y-13176269D01*
X11053515Y-13176269D02*
X11072563Y-13185793D01*
X11072563Y-13185793D02*
X11110658Y-13185793D01*
X11110658Y-13185793D02*
X11129705Y-13176269D01*
X11129705Y-13176269D02*
X11139229Y-13166746D01*
X11139229Y-13166746D02*
X11148753Y-13147698D01*
X11272562Y-13061984D02*
X11291610Y-13061984D01*
X11291610Y-13061984D02*
X11310658Y-13071508D01*
X11310658Y-13071508D02*
X11320182Y-13081031D01*
X11320182Y-13081031D02*
X11329705Y-13100079D01*
X11329705Y-13100079D02*
X11339229Y-13138174D01*
X11339229Y-13138174D02*
X11339229Y-13185793D01*
X11339229Y-13185793D02*
X11329705Y-13223888D01*
X11329705Y-13223888D02*
X11320182Y-13242936D01*
X11320182Y-13242936D02*
X11310658Y-13252460D01*
X11310658Y-13252460D02*
X11291610Y-13261984D01*
X11291610Y-13261984D02*
X11272562Y-13261984D01*
X11272562Y-13261984D02*
X11253515Y-13252460D01*
X11253515Y-13252460D02*
X11243991Y-13242936D01*
X11243991Y-13242936D02*
X11234467Y-13223888D01*
X11234467Y-13223888D02*
X11224943Y-13185793D01*
X11224943Y-13185793D02*
X11224943Y-13138174D01*
X11224943Y-13138174D02*
X11234467Y-13100079D01*
X11234467Y-13100079D02*
X11243991Y-13081031D01*
X11243991Y-13081031D02*
X11253515Y-13071508D01*
X11253515Y-13071508D02*
X11272562Y-13061984D01*
X11463039Y-13061984D02*
X11482086Y-13061984D01*
X11482086Y-13061984D02*
X11501134Y-13071508D01*
X11501134Y-13071508D02*
X11510658Y-13081031D01*
X11510658Y-13081031D02*
X11520182Y-13100079D01*
X11520182Y-13100079D02*
X11529705Y-13138174D01*
X11529705Y-13138174D02*
X11529705Y-13185793D01*
X11529705Y-13185793D02*
X11520182Y-13223888D01*
X11520182Y-13223888D02*
X11510658Y-13242936D01*
X11510658Y-13242936D02*
X11501134Y-13252460D01*
X11501134Y-13252460D02*
X11482086Y-13261984D01*
X11482086Y-13261984D02*
X11463039Y-13261984D01*
X11463039Y-13261984D02*
X11443991Y-13252460D01*
X11443991Y-13252460D02*
X11434467Y-13242936D01*
X11434467Y-13242936D02*
X11424943Y-13223888D01*
X11424943Y-13223888D02*
X11415420Y-13185793D01*
X11415420Y-13185793D02*
X11415420Y-13138174D01*
X11415420Y-13138174D02*
X11424943Y-13100079D01*
X11424943Y-13100079D02*
X11434467Y-13081031D01*
X11434467Y-13081031D02*
X11443991Y-13071508D01*
X11443991Y-13071508D02*
X11463039Y-13061984D01*
X11615420Y-13261984D02*
X11615420Y-13128650D01*
X11615420Y-13147698D02*
X11624943Y-13138174D01*
X11624943Y-13138174D02*
X11643991Y-13128650D01*
X11643991Y-13128650D02*
X11672563Y-13128650D01*
X11672563Y-13128650D02*
X11691610Y-13138174D01*
X11691610Y-13138174D02*
X11701134Y-13157222D01*
X11701134Y-13157222D02*
X11701134Y-13261984D01*
X11701134Y-13157222D02*
X11710658Y-13138174D01*
X11710658Y-13138174D02*
X11729705Y-13128650D01*
X11729705Y-13128650D02*
X11758277Y-13128650D01*
X11758277Y-13128650D02*
X11777324Y-13138174D01*
X11777324Y-13138174D02*
X11786848Y-13157222D01*
X11786848Y-13157222D02*
X11786848Y-13261984D01*
X11882086Y-13261984D02*
X11882086Y-13128650D01*
X11882086Y-13147698D02*
X11891610Y-13138174D01*
X11891610Y-13138174D02*
X11910658Y-13128650D01*
X11910658Y-13128650D02*
X11939229Y-13128650D01*
X11939229Y-13128650D02*
X11958277Y-13138174D01*
X11958277Y-13138174D02*
X11967801Y-13157222D01*
X11967801Y-13157222D02*
X11967801Y-13261984D01*
X11967801Y-13157222D02*
X11977324Y-13138174D01*
X11977324Y-13138174D02*
X11996372Y-13128650D01*
X11996372Y-13128650D02*
X12024943Y-13128650D01*
X12024943Y-13128650D02*
X12043991Y-13138174D01*
X12043991Y-13138174D02*
X12053515Y-13157222D01*
X12053515Y-13157222D02*
X12053515Y-13261984D01*
X12443991Y-13052460D02*
X12272563Y-13309603D01*
X12701134Y-13061984D02*
X12720182Y-13061984D01*
X12720182Y-13061984D02*
X12739229Y-13071508D01*
X12739229Y-13071508D02*
X12748753Y-13081031D01*
X12748753Y-13081031D02*
X12758277Y-13100079D01*
X12758277Y-13100079D02*
X12767801Y-13138174D01*
X12767801Y-13138174D02*
X12767801Y-13185793D01*
X12767801Y-13185793D02*
X12758277Y-13223888D01*
X12758277Y-13223888D02*
X12748753Y-13242936D01*
X12748753Y-13242936D02*
X12739229Y-13252460D01*
X12739229Y-13252460D02*
X12720182Y-13261984D01*
X12720182Y-13261984D02*
X12701134Y-13261984D01*
X12701134Y-13261984D02*
X12682086Y-13252460D01*
X12682086Y-13252460D02*
X12672563Y-13242936D01*
X12672563Y-13242936D02*
X12663039Y-13223888D01*
X12663039Y-13223888D02*
X12653515Y-13185793D01*
X12653515Y-13185793D02*
X12653515Y-13138174D01*
X12653515Y-13138174D02*
X12663039Y-13100079D01*
X12663039Y-13100079D02*
X12672563Y-13081031D01*
X12672563Y-13081031D02*
X12682086Y-13071508D01*
X12682086Y-13071508D02*
X12701134Y-13061984D01*
X12853515Y-13242936D02*
X12863039Y-13252460D01*
X12863039Y-13252460D02*
X12853515Y-13261984D01*
X12853515Y-13261984D02*
X12843991Y-13252460D01*
X12843991Y-13252460D02*
X12853515Y-13242936D01*
X12853515Y-13242936D02*
X12853515Y-13261984D01*
X12986848Y-13061984D02*
X13005896Y-13061984D01*
X13005896Y-13061984D02*
X13024944Y-13071508D01*
X13024944Y-13071508D02*
X13034467Y-13081031D01*
X13034467Y-13081031D02*
X13043991Y-13100079D01*
X13043991Y-13100079D02*
X13053515Y-13138174D01*
X13053515Y-13138174D02*
X13053515Y-13185793D01*
X13053515Y-13185793D02*
X13043991Y-13223888D01*
X13043991Y-13223888D02*
X13034467Y-13242936D01*
X13034467Y-13242936D02*
X13024944Y-13252460D01*
X13024944Y-13252460D02*
X13005896Y-13261984D01*
X13005896Y-13261984D02*
X12986848Y-13261984D01*
X12986848Y-13261984D02*
X12967801Y-13252460D01*
X12967801Y-13252460D02*
X12958277Y-13242936D01*
X12958277Y-13242936D02*
X12948753Y-13223888D01*
X12948753Y-13223888D02*
X12939229Y-13185793D01*
X12939229Y-13185793D02*
X12939229Y-13138174D01*
X12939229Y-13138174D02*
X12948753Y-13100079D01*
X12948753Y-13100079D02*
X12958277Y-13081031D01*
X12958277Y-13081031D02*
X12967801Y-13071508D01*
X12967801Y-13071508D02*
X12986848Y-13061984D01*
X13120182Y-13061984D02*
X13243991Y-13061984D01*
X13243991Y-13061984D02*
X13177325Y-13138174D01*
X13177325Y-13138174D02*
X13205896Y-13138174D01*
X13205896Y-13138174D02*
X13224944Y-13147698D01*
X13224944Y-13147698D02*
X13234467Y-13157222D01*
X13234467Y-13157222D02*
X13243991Y-13176269D01*
X13243991Y-13176269D02*
X13243991Y-13223888D01*
X13243991Y-13223888D02*
X13234467Y-13242936D01*
X13234467Y-13242936D02*
X13224944Y-13252460D01*
X13224944Y-13252460D02*
X13205896Y-13261984D01*
X13205896Y-13261984D02*
X13148753Y-13261984D01*
X13148753Y-13261984D02*
X13129706Y-13252460D01*
X13129706Y-13252460D02*
X13120182Y-13242936D01*
X13424944Y-13061984D02*
X13329706Y-13061984D01*
X13329706Y-13061984D02*
X13320182Y-13157222D01*
X13320182Y-13157222D02*
X13329706Y-13147698D01*
X13329706Y-13147698D02*
X13348753Y-13138174D01*
X13348753Y-13138174D02*
X13396372Y-13138174D01*
X13396372Y-13138174D02*
X13415420Y-13147698D01*
X13415420Y-13147698D02*
X13424944Y-13157222D01*
X13424944Y-13157222D02*
X13434467Y-13176269D01*
X13434467Y-13176269D02*
X13434467Y-13223888D01*
X13434467Y-13223888D02*
X13424944Y-13242936D01*
X13424944Y-13242936D02*
X13415420Y-13252460D01*
X13415420Y-13252460D02*
X13396372Y-13261984D01*
X13396372Y-13261984D02*
X13348753Y-13261984D01*
X13348753Y-13261984D02*
X13329706Y-13252460D01*
X13329706Y-13252460D02*
X13320182Y-13242936D01*
X13605896Y-13128650D02*
X13605896Y-13261984D01*
X13558277Y-13052460D02*
X13510658Y-13195317D01*
X13510658Y-13195317D02*
X13634467Y-13195317D01*
X13701134Y-13061984D02*
X13701134Y-13100079D01*
X13777325Y-13061984D02*
X13777325Y-13100079D01*
X14072563Y-13338174D02*
X14063039Y-13328650D01*
X14063039Y-13328650D02*
X14043991Y-13300079D01*
X14043991Y-13300079D02*
X14034468Y-13281031D01*
X14034468Y-13281031D02*
X14024944Y-13252460D01*
X14024944Y-13252460D02*
X14015420Y-13204841D01*
X14015420Y-13204841D02*
X14015420Y-13166746D01*
X14015420Y-13166746D02*
X14024944Y-13119127D01*
X14024944Y-13119127D02*
X14034468Y-13090555D01*
X14034468Y-13090555D02*
X14043991Y-13071508D01*
X14043991Y-13071508D02*
X14063039Y-13042936D01*
X14063039Y-13042936D02*
X14072563Y-13033412D01*
X14253515Y-13261984D02*
X14139229Y-13261984D01*
X14196372Y-13261984D02*
X14196372Y-13061984D01*
X14196372Y-13061984D02*
X14177325Y-13090555D01*
X14177325Y-13090555D02*
X14158277Y-13109603D01*
X14158277Y-13109603D02*
X14139229Y-13119127D01*
X14367801Y-13147698D02*
X14348753Y-13138174D01*
X14348753Y-13138174D02*
X14339229Y-13128650D01*
X14339229Y-13128650D02*
X14329706Y-13109603D01*
X14329706Y-13109603D02*
X14329706Y-13100079D01*
X14329706Y-13100079D02*
X14339229Y-13081031D01*
X14339229Y-13081031D02*
X14348753Y-13071508D01*
X14348753Y-13071508D02*
X14367801Y-13061984D01*
X14367801Y-13061984D02*
X14405896Y-13061984D01*
X14405896Y-13061984D02*
X14424944Y-13071508D01*
X14424944Y-13071508D02*
X14434468Y-13081031D01*
X14434468Y-13081031D02*
X14443991Y-13100079D01*
X14443991Y-13100079D02*
X14443991Y-13109603D01*
X14443991Y-13109603D02*
X14434468Y-13128650D01*
X14434468Y-13128650D02*
X14424944Y-13138174D01*
X14424944Y-13138174D02*
X14405896Y-13147698D01*
X14405896Y-13147698D02*
X14367801Y-13147698D01*
X14367801Y-13147698D02*
X14348753Y-13157222D01*
X14348753Y-13157222D02*
X14339229Y-13166746D01*
X14339229Y-13166746D02*
X14329706Y-13185793D01*
X14329706Y-13185793D02*
X14329706Y-13223888D01*
X14329706Y-13223888D02*
X14339229Y-13242936D01*
X14339229Y-13242936D02*
X14348753Y-13252460D01*
X14348753Y-13252460D02*
X14367801Y-13261984D01*
X14367801Y-13261984D02*
X14405896Y-13261984D01*
X14405896Y-13261984D02*
X14424944Y-13252460D01*
X14424944Y-13252460D02*
X14434468Y-13242936D01*
X14434468Y-13242936D02*
X14443991Y-13223888D01*
X14443991Y-13223888D02*
X14443991Y-13185793D01*
X14443991Y-13185793D02*
X14434468Y-13166746D01*
X14434468Y-13166746D02*
X14424944Y-13157222D01*
X14424944Y-13157222D02*
X14405896Y-13147698D01*
X14682087Y-13261984D02*
X14682087Y-13061984D01*
X14767801Y-13261984D02*
X14767801Y-13157222D01*
X14767801Y-13157222D02*
X14758277Y-13138174D01*
X14758277Y-13138174D02*
X14739230Y-13128650D01*
X14739230Y-13128650D02*
X14710658Y-13128650D01*
X14710658Y-13128650D02*
X14691610Y-13138174D01*
X14691610Y-13138174D02*
X14682087Y-13147698D01*
X14891610Y-13261984D02*
X14872563Y-13252460D01*
X14872563Y-13252460D02*
X14863039Y-13242936D01*
X14863039Y-13242936D02*
X14853515Y-13223888D01*
X14853515Y-13223888D02*
X14853515Y-13166746D01*
X14853515Y-13166746D02*
X14863039Y-13147698D01*
X14863039Y-13147698D02*
X14872563Y-13138174D01*
X14872563Y-13138174D02*
X14891610Y-13128650D01*
X14891610Y-13128650D02*
X14920182Y-13128650D01*
X14920182Y-13128650D02*
X14939230Y-13138174D01*
X14939230Y-13138174D02*
X14948753Y-13147698D01*
X14948753Y-13147698D02*
X14958277Y-13166746D01*
X14958277Y-13166746D02*
X14958277Y-13223888D01*
X14958277Y-13223888D02*
X14948753Y-13242936D01*
X14948753Y-13242936D02*
X14939230Y-13252460D01*
X14939230Y-13252460D02*
X14920182Y-13261984D01*
X14920182Y-13261984D02*
X14891610Y-13261984D01*
X15072563Y-13261984D02*
X15053515Y-13252460D01*
X15053515Y-13252460D02*
X15043991Y-13233412D01*
X15043991Y-13233412D02*
X15043991Y-13061984D01*
X15224944Y-13252460D02*
X15205896Y-13261984D01*
X15205896Y-13261984D02*
X15167801Y-13261984D01*
X15167801Y-13261984D02*
X15148753Y-13252460D01*
X15148753Y-13252460D02*
X15139230Y-13233412D01*
X15139230Y-13233412D02*
X15139230Y-13157222D01*
X15139230Y-13157222D02*
X15148753Y-13138174D01*
X15148753Y-13138174D02*
X15167801Y-13128650D01*
X15167801Y-13128650D02*
X15205896Y-13128650D01*
X15205896Y-13128650D02*
X15224944Y-13138174D01*
X15224944Y-13138174D02*
X15234468Y-13157222D01*
X15234468Y-13157222D02*
X15234468Y-13176269D01*
X15234468Y-13176269D02*
X15139230Y-13195317D01*
X15310658Y-13252460D02*
X15329706Y-13261984D01*
X15329706Y-13261984D02*
X15367801Y-13261984D01*
X15367801Y-13261984D02*
X15386849Y-13252460D01*
X15386849Y-13252460D02*
X15396372Y-13233412D01*
X15396372Y-13233412D02*
X15396372Y-13223888D01*
X15396372Y-13223888D02*
X15386849Y-13204841D01*
X15386849Y-13204841D02*
X15367801Y-13195317D01*
X15367801Y-13195317D02*
X15339230Y-13195317D01*
X15339230Y-13195317D02*
X15320182Y-13185793D01*
X15320182Y-13185793D02*
X15310658Y-13166746D01*
X15310658Y-13166746D02*
X15310658Y-13157222D01*
X15310658Y-13157222D02*
X15320182Y-13138174D01*
X15320182Y-13138174D02*
X15339230Y-13128650D01*
X15339230Y-13128650D02*
X15367801Y-13128650D01*
X15367801Y-13128650D02*
X15386849Y-13138174D01*
X15463039Y-13338174D02*
X15472563Y-13328650D01*
X15472563Y-13328650D02*
X15491611Y-13300079D01*
X15491611Y-13300079D02*
X15501134Y-13281031D01*
X15501134Y-13281031D02*
X15510658Y-13252460D01*
X15510658Y-13252460D02*
X15520182Y-13204841D01*
X15520182Y-13204841D02*
X15520182Y-13166746D01*
X15520182Y-13166746D02*
X15510658Y-13119127D01*
X15510658Y-13119127D02*
X15501134Y-13090555D01*
X15501134Y-13090555D02*
X15491611Y-13071508D01*
X15491611Y-13071508D02*
X15472563Y-13042936D01*
X15472563Y-13042936D02*
X15463039Y-13033412D01*
D12*
X10482856Y-13469856D02*
X10482856Y-13399144D01*
X10412144Y-13399144D01*
X10412144Y-13469856D01*
X10482856Y-13469856D01*
D11*
X10863039Y-13525984D02*
X10748753Y-13525984D01*
X10805896Y-13525984D02*
X10805896Y-13325984D01*
X10805896Y-13325984D02*
X10786848Y-13354555D01*
X10786848Y-13354555D02*
X10767801Y-13373603D01*
X10767801Y-13373603D02*
X10748753Y-13383127D01*
X10948753Y-13506936D02*
X10958277Y-13516460D01*
X10958277Y-13516460D02*
X10948753Y-13525984D01*
X10948753Y-13525984D02*
X10939229Y-13516460D01*
X10939229Y-13516460D02*
X10948753Y-13506936D01*
X10948753Y-13506936D02*
X10948753Y-13525984D01*
X11082086Y-13325984D02*
X11101134Y-13325984D01*
X11101134Y-13325984D02*
X11120182Y-13335508D01*
X11120182Y-13335508D02*
X11129705Y-13345031D01*
X11129705Y-13345031D02*
X11139229Y-13364079D01*
X11139229Y-13364079D02*
X11148753Y-13402174D01*
X11148753Y-13402174D02*
X11148753Y-13449793D01*
X11148753Y-13449793D02*
X11139229Y-13487888D01*
X11139229Y-13487888D02*
X11129705Y-13506936D01*
X11129705Y-13506936D02*
X11120182Y-13516460D01*
X11120182Y-13516460D02*
X11101134Y-13525984D01*
X11101134Y-13525984D02*
X11082086Y-13525984D01*
X11082086Y-13525984D02*
X11063039Y-13516460D01*
X11063039Y-13516460D02*
X11053515Y-13506936D01*
X11053515Y-13506936D02*
X11043991Y-13487888D01*
X11043991Y-13487888D02*
X11034467Y-13449793D01*
X11034467Y-13449793D02*
X11034467Y-13402174D01*
X11034467Y-13402174D02*
X11043991Y-13364079D01*
X11043991Y-13364079D02*
X11053515Y-13345031D01*
X11053515Y-13345031D02*
X11063039Y-13335508D01*
X11063039Y-13335508D02*
X11082086Y-13325984D01*
X11272562Y-13325984D02*
X11291610Y-13325984D01*
X11291610Y-13325984D02*
X11310658Y-13335508D01*
X11310658Y-13335508D02*
X11320182Y-13345031D01*
X11320182Y-13345031D02*
X11329705Y-13364079D01*
X11329705Y-13364079D02*
X11339229Y-13402174D01*
X11339229Y-13402174D02*
X11339229Y-13449793D01*
X11339229Y-13449793D02*
X11329705Y-13487888D01*
X11329705Y-13487888D02*
X11320182Y-13506936D01*
X11320182Y-13506936D02*
X11310658Y-13516460D01*
X11310658Y-13516460D02*
X11291610Y-13525984D01*
X11291610Y-13525984D02*
X11272562Y-13525984D01*
X11272562Y-13525984D02*
X11253515Y-13516460D01*
X11253515Y-13516460D02*
X11243991Y-13506936D01*
X11243991Y-13506936D02*
X11234467Y-13487888D01*
X11234467Y-13487888D02*
X11224943Y-13449793D01*
X11224943Y-13449793D02*
X11224943Y-13402174D01*
X11224943Y-13402174D02*
X11234467Y-13364079D01*
X11234467Y-13364079D02*
X11243991Y-13345031D01*
X11243991Y-13345031D02*
X11253515Y-13335508D01*
X11253515Y-13335508D02*
X11272562Y-13325984D01*
X11463039Y-13325984D02*
X11482086Y-13325984D01*
X11482086Y-13325984D02*
X11501134Y-13335508D01*
X11501134Y-13335508D02*
X11510658Y-13345031D01*
X11510658Y-13345031D02*
X11520182Y-13364079D01*
X11520182Y-13364079D02*
X11529705Y-13402174D01*
X11529705Y-13402174D02*
X11529705Y-13449793D01*
X11529705Y-13449793D02*
X11520182Y-13487888D01*
X11520182Y-13487888D02*
X11510658Y-13506936D01*
X11510658Y-13506936D02*
X11501134Y-13516460D01*
X11501134Y-13516460D02*
X11482086Y-13525984D01*
X11482086Y-13525984D02*
X11463039Y-13525984D01*
X11463039Y-13525984D02*
X11443991Y-13516460D01*
X11443991Y-13516460D02*
X11434467Y-13506936D01*
X11434467Y-13506936D02*
X11424943Y-13487888D01*
X11424943Y-13487888D02*
X11415420Y-13449793D01*
X11415420Y-13449793D02*
X11415420Y-13402174D01*
X11415420Y-13402174D02*
X11424943Y-13364079D01*
X11424943Y-13364079D02*
X11434467Y-13345031D01*
X11434467Y-13345031D02*
X11443991Y-13335508D01*
X11443991Y-13335508D02*
X11463039Y-13325984D01*
X11615420Y-13525984D02*
X11615420Y-13392650D01*
X11615420Y-13411698D02*
X11624943Y-13402174D01*
X11624943Y-13402174D02*
X11643991Y-13392650D01*
X11643991Y-13392650D02*
X11672563Y-13392650D01*
X11672563Y-13392650D02*
X11691610Y-13402174D01*
X11691610Y-13402174D02*
X11701134Y-13421222D01*
X11701134Y-13421222D02*
X11701134Y-13525984D01*
X11701134Y-13421222D02*
X11710658Y-13402174D01*
X11710658Y-13402174D02*
X11729705Y-13392650D01*
X11729705Y-13392650D02*
X11758277Y-13392650D01*
X11758277Y-13392650D02*
X11777324Y-13402174D01*
X11777324Y-13402174D02*
X11786848Y-13421222D01*
X11786848Y-13421222D02*
X11786848Y-13525984D01*
X11882086Y-13525984D02*
X11882086Y-13392650D01*
X11882086Y-13411698D02*
X11891610Y-13402174D01*
X11891610Y-13402174D02*
X11910658Y-13392650D01*
X11910658Y-13392650D02*
X11939229Y-13392650D01*
X11939229Y-13392650D02*
X11958277Y-13402174D01*
X11958277Y-13402174D02*
X11967801Y-13421222D01*
X11967801Y-13421222D02*
X11967801Y-13525984D01*
X11967801Y-13421222D02*
X11977324Y-13402174D01*
X11977324Y-13402174D02*
X11996372Y-13392650D01*
X11996372Y-13392650D02*
X12024943Y-13392650D01*
X12024943Y-13392650D02*
X12043991Y-13402174D01*
X12043991Y-13402174D02*
X12053515Y-13421222D01*
X12053515Y-13421222D02*
X12053515Y-13525984D01*
X12443991Y-13316460D02*
X12272563Y-13573603D01*
X12701134Y-13325984D02*
X12720182Y-13325984D01*
X12720182Y-13325984D02*
X12739229Y-13335508D01*
X12739229Y-13335508D02*
X12748753Y-13345031D01*
X12748753Y-13345031D02*
X12758277Y-13364079D01*
X12758277Y-13364079D02*
X12767801Y-13402174D01*
X12767801Y-13402174D02*
X12767801Y-13449793D01*
X12767801Y-13449793D02*
X12758277Y-13487888D01*
X12758277Y-13487888D02*
X12748753Y-13506936D01*
X12748753Y-13506936D02*
X12739229Y-13516460D01*
X12739229Y-13516460D02*
X12720182Y-13525984D01*
X12720182Y-13525984D02*
X12701134Y-13525984D01*
X12701134Y-13525984D02*
X12682086Y-13516460D01*
X12682086Y-13516460D02*
X12672563Y-13506936D01*
X12672563Y-13506936D02*
X12663039Y-13487888D01*
X12663039Y-13487888D02*
X12653515Y-13449793D01*
X12653515Y-13449793D02*
X12653515Y-13402174D01*
X12653515Y-13402174D02*
X12663039Y-13364079D01*
X12663039Y-13364079D02*
X12672563Y-13345031D01*
X12672563Y-13345031D02*
X12682086Y-13335508D01*
X12682086Y-13335508D02*
X12701134Y-13325984D01*
X12853515Y-13506936D02*
X12863039Y-13516460D01*
X12863039Y-13516460D02*
X12853515Y-13525984D01*
X12853515Y-13525984D02*
X12843991Y-13516460D01*
X12843991Y-13516460D02*
X12853515Y-13506936D01*
X12853515Y-13506936D02*
X12853515Y-13525984D01*
X12986848Y-13325984D02*
X13005896Y-13325984D01*
X13005896Y-13325984D02*
X13024944Y-13335508D01*
X13024944Y-13335508D02*
X13034467Y-13345031D01*
X13034467Y-13345031D02*
X13043991Y-13364079D01*
X13043991Y-13364079D02*
X13053515Y-13402174D01*
X13053515Y-13402174D02*
X13053515Y-13449793D01*
X13053515Y-13449793D02*
X13043991Y-13487888D01*
X13043991Y-13487888D02*
X13034467Y-13506936D01*
X13034467Y-13506936D02*
X13024944Y-13516460D01*
X13024944Y-13516460D02*
X13005896Y-13525984D01*
X13005896Y-13525984D02*
X12986848Y-13525984D01*
X12986848Y-13525984D02*
X12967801Y-13516460D01*
X12967801Y-13516460D02*
X12958277Y-13506936D01*
X12958277Y-13506936D02*
X12948753Y-13487888D01*
X12948753Y-13487888D02*
X12939229Y-13449793D01*
X12939229Y-13449793D02*
X12939229Y-13402174D01*
X12939229Y-13402174D02*
X12948753Y-13364079D01*
X12948753Y-13364079D02*
X12958277Y-13345031D01*
X12958277Y-13345031D02*
X12967801Y-13335508D01*
X12967801Y-13335508D02*
X12986848Y-13325984D01*
X13120182Y-13325984D02*
X13243991Y-13325984D01*
X13243991Y-13325984D02*
X13177325Y-13402174D01*
X13177325Y-13402174D02*
X13205896Y-13402174D01*
X13205896Y-13402174D02*
X13224944Y-13411698D01*
X13224944Y-13411698D02*
X13234467Y-13421222D01*
X13234467Y-13421222D02*
X13243991Y-13440269D01*
X13243991Y-13440269D02*
X13243991Y-13487888D01*
X13243991Y-13487888D02*
X13234467Y-13506936D01*
X13234467Y-13506936D02*
X13224944Y-13516460D01*
X13224944Y-13516460D02*
X13205896Y-13525984D01*
X13205896Y-13525984D02*
X13148753Y-13525984D01*
X13148753Y-13525984D02*
X13129706Y-13516460D01*
X13129706Y-13516460D02*
X13120182Y-13506936D01*
X13339229Y-13525984D02*
X13377325Y-13525984D01*
X13377325Y-13525984D02*
X13396372Y-13516460D01*
X13396372Y-13516460D02*
X13405896Y-13506936D01*
X13405896Y-13506936D02*
X13424944Y-13478365D01*
X13424944Y-13478365D02*
X13434467Y-13440269D01*
X13434467Y-13440269D02*
X13434467Y-13364079D01*
X13434467Y-13364079D02*
X13424944Y-13345031D01*
X13424944Y-13345031D02*
X13415420Y-13335508D01*
X13415420Y-13335508D02*
X13396372Y-13325984D01*
X13396372Y-13325984D02*
X13358277Y-13325984D01*
X13358277Y-13325984D02*
X13339229Y-13335508D01*
X13339229Y-13335508D02*
X13329706Y-13345031D01*
X13329706Y-13345031D02*
X13320182Y-13364079D01*
X13320182Y-13364079D02*
X13320182Y-13411698D01*
X13320182Y-13411698D02*
X13329706Y-13430746D01*
X13329706Y-13430746D02*
X13339229Y-13440269D01*
X13339229Y-13440269D02*
X13358277Y-13449793D01*
X13358277Y-13449793D02*
X13396372Y-13449793D01*
X13396372Y-13449793D02*
X13415420Y-13440269D01*
X13415420Y-13440269D02*
X13424944Y-13430746D01*
X13424944Y-13430746D02*
X13434467Y-13411698D01*
X13605896Y-13392650D02*
X13605896Y-13525984D01*
X13558277Y-13316460D02*
X13510658Y-13459317D01*
X13510658Y-13459317D02*
X13634467Y-13459317D01*
X13701134Y-13325984D02*
X13701134Y-13364079D01*
X13777325Y-13325984D02*
X13777325Y-13364079D01*
X14072563Y-13602174D02*
X14063039Y-13592650D01*
X14063039Y-13592650D02*
X14043991Y-13564079D01*
X14043991Y-13564079D02*
X14034468Y-13545031D01*
X14034468Y-13545031D02*
X14024944Y-13516460D01*
X14024944Y-13516460D02*
X14015420Y-13468841D01*
X14015420Y-13468841D02*
X14015420Y-13430746D01*
X14015420Y-13430746D02*
X14024944Y-13383127D01*
X14024944Y-13383127D02*
X14034468Y-13354555D01*
X14034468Y-13354555D02*
X14043991Y-13335508D01*
X14043991Y-13335508D02*
X14063039Y-13306936D01*
X14063039Y-13306936D02*
X14072563Y-13297412D01*
X14158277Y-13525984D02*
X14196372Y-13525984D01*
X14196372Y-13525984D02*
X14215420Y-13516460D01*
X14215420Y-13516460D02*
X14224944Y-13506936D01*
X14224944Y-13506936D02*
X14243991Y-13478365D01*
X14243991Y-13478365D02*
X14253515Y-13440269D01*
X14253515Y-13440269D02*
X14253515Y-13364079D01*
X14253515Y-13364079D02*
X14243991Y-13345031D01*
X14243991Y-13345031D02*
X14234468Y-13335508D01*
X14234468Y-13335508D02*
X14215420Y-13325984D01*
X14215420Y-13325984D02*
X14177325Y-13325984D01*
X14177325Y-13325984D02*
X14158277Y-13335508D01*
X14158277Y-13335508D02*
X14148753Y-13345031D01*
X14148753Y-13345031D02*
X14139229Y-13364079D01*
X14139229Y-13364079D02*
X14139229Y-13411698D01*
X14139229Y-13411698D02*
X14148753Y-13430746D01*
X14148753Y-13430746D02*
X14158277Y-13440269D01*
X14158277Y-13440269D02*
X14177325Y-13449793D01*
X14177325Y-13449793D02*
X14215420Y-13449793D01*
X14215420Y-13449793D02*
X14234468Y-13440269D01*
X14234468Y-13440269D02*
X14243991Y-13430746D01*
X14243991Y-13430746D02*
X14253515Y-13411698D01*
X14424944Y-13325984D02*
X14386848Y-13325984D01*
X14386848Y-13325984D02*
X14367801Y-13335508D01*
X14367801Y-13335508D02*
X14358277Y-13345031D01*
X14358277Y-13345031D02*
X14339229Y-13373603D01*
X14339229Y-13373603D02*
X14329706Y-13411698D01*
X14329706Y-13411698D02*
X14329706Y-13487888D01*
X14329706Y-13487888D02*
X14339229Y-13506936D01*
X14339229Y-13506936D02*
X14348753Y-13516460D01*
X14348753Y-13516460D02*
X14367801Y-13525984D01*
X14367801Y-13525984D02*
X14405896Y-13525984D01*
X14405896Y-13525984D02*
X14424944Y-13516460D01*
X14424944Y-13516460D02*
X14434468Y-13506936D01*
X14434468Y-13506936D02*
X14443991Y-13487888D01*
X14443991Y-13487888D02*
X14443991Y-13440269D01*
X14443991Y-13440269D02*
X14434468Y-13421222D01*
X14434468Y-13421222D02*
X14424944Y-13411698D01*
X14424944Y-13411698D02*
X14405896Y-13402174D01*
X14405896Y-13402174D02*
X14367801Y-13402174D01*
X14367801Y-13402174D02*
X14348753Y-13411698D01*
X14348753Y-13411698D02*
X14339229Y-13421222D01*
X14339229Y-13421222D02*
X14329706Y-13440269D01*
X14682087Y-13525984D02*
X14682087Y-13325984D01*
X14767801Y-13525984D02*
X14767801Y-13421222D01*
X14767801Y-13421222D02*
X14758277Y-13402174D01*
X14758277Y-13402174D02*
X14739230Y-13392650D01*
X14739230Y-13392650D02*
X14710658Y-13392650D01*
X14710658Y-13392650D02*
X14691610Y-13402174D01*
X14691610Y-13402174D02*
X14682087Y-13411698D01*
X14891610Y-13525984D02*
X14872563Y-13516460D01*
X14872563Y-13516460D02*
X14863039Y-13506936D01*
X14863039Y-13506936D02*
X14853515Y-13487888D01*
X14853515Y-13487888D02*
X14853515Y-13430746D01*
X14853515Y-13430746D02*
X14863039Y-13411698D01*
X14863039Y-13411698D02*
X14872563Y-13402174D01*
X14872563Y-13402174D02*
X14891610Y-13392650D01*
X14891610Y-13392650D02*
X14920182Y-13392650D01*
X14920182Y-13392650D02*
X14939230Y-13402174D01*
X14939230Y-13402174D02*
X14948753Y-13411698D01*
X14948753Y-13411698D02*
X14958277Y-13430746D01*
X14958277Y-13430746D02*
X14958277Y-13487888D01*
X14958277Y-13487888D02*
X14948753Y-13506936D01*
X14948753Y-13506936D02*
X14939230Y-13516460D01*
X14939230Y-13516460D02*
X14920182Y-13525984D01*
X14920182Y-13525984D02*
X14891610Y-13525984D01*
X15072563Y-13525984D02*
X15053515Y-13516460D01*
X15053515Y-13516460D02*
X15043991Y-13497412D01*
X15043991Y-13497412D02*
X15043991Y-13325984D01*
X15224944Y-13516460D02*
X15205896Y-13525984D01*
X15205896Y-13525984D02*
X15167801Y-13525984D01*
X15167801Y-13525984D02*
X15148753Y-13516460D01*
X15148753Y-13516460D02*
X15139230Y-13497412D01*
X15139230Y-13497412D02*
X15139230Y-13421222D01*
X15139230Y-13421222D02*
X15148753Y-13402174D01*
X15148753Y-13402174D02*
X15167801Y-13392650D01*
X15167801Y-13392650D02*
X15205896Y-13392650D01*
X15205896Y-13392650D02*
X15224944Y-13402174D01*
X15224944Y-13402174D02*
X15234468Y-13421222D01*
X15234468Y-13421222D02*
X15234468Y-13440269D01*
X15234468Y-13440269D02*
X15139230Y-13459317D01*
X15310658Y-13516460D02*
X15329706Y-13525984D01*
X15329706Y-13525984D02*
X15367801Y-13525984D01*
X15367801Y-13525984D02*
X15386849Y-13516460D01*
X15386849Y-13516460D02*
X15396372Y-13497412D01*
X15396372Y-13497412D02*
X15396372Y-13487888D01*
X15396372Y-13487888D02*
X15386849Y-13468841D01*
X15386849Y-13468841D02*
X15367801Y-13459317D01*
X15367801Y-13459317D02*
X15339230Y-13459317D01*
X15339230Y-13459317D02*
X15320182Y-13449793D01*
X15320182Y-13449793D02*
X15310658Y-13430746D01*
X15310658Y-13430746D02*
X15310658Y-13421222D01*
X15310658Y-13421222D02*
X15320182Y-13402174D01*
X15320182Y-13402174D02*
X15339230Y-13392650D01*
X15339230Y-13392650D02*
X15367801Y-13392650D01*
X15367801Y-13392650D02*
X15386849Y-13402174D01*
X15463039Y-13602174D02*
X15472563Y-13592650D01*
X15472563Y-13592650D02*
X15491611Y-13564079D01*
X15491611Y-13564079D02*
X15501134Y-13545031D01*
X15501134Y-13545031D02*
X15510658Y-13516460D01*
X15510658Y-13516460D02*
X15520182Y-13468841D01*
X15520182Y-13468841D02*
X15520182Y-13430746D01*
X15520182Y-13430746D02*
X15510658Y-13383127D01*
X15510658Y-13383127D02*
X15501134Y-13354555D01*
X15501134Y-13354555D02*
X15491611Y-13335508D01*
X15491611Y-13335508D02*
X15472563Y-13306936D01*
X15472563Y-13306936D02*
X15463039Y-13297412D01*
D13*
X10446500Y-13749500D02*
X10497500Y-13698500D01*
X10446500Y-13647500D01*
X10395500Y-13698500D01*
X10446500Y-13749500D01*
D11*
X10863039Y-13789984D02*
X10748753Y-13789984D01*
X10805896Y-13789984D02*
X10805896Y-13589984D01*
X10805896Y-13589984D02*
X10786848Y-13618555D01*
X10786848Y-13618555D02*
X10767801Y-13637603D01*
X10767801Y-13637603D02*
X10748753Y-13647127D01*
X10948753Y-13770936D02*
X10958277Y-13780460D01*
X10958277Y-13780460D02*
X10948753Y-13789984D01*
X10948753Y-13789984D02*
X10939229Y-13780460D01*
X10939229Y-13780460D02*
X10948753Y-13770936D01*
X10948753Y-13770936D02*
X10948753Y-13789984D01*
X11082086Y-13589984D02*
X11101134Y-13589984D01*
X11101134Y-13589984D02*
X11120182Y-13599508D01*
X11120182Y-13599508D02*
X11129705Y-13609031D01*
X11129705Y-13609031D02*
X11139229Y-13628079D01*
X11139229Y-13628079D02*
X11148753Y-13666174D01*
X11148753Y-13666174D02*
X11148753Y-13713793D01*
X11148753Y-13713793D02*
X11139229Y-13751888D01*
X11139229Y-13751888D02*
X11129705Y-13770936D01*
X11129705Y-13770936D02*
X11120182Y-13780460D01*
X11120182Y-13780460D02*
X11101134Y-13789984D01*
X11101134Y-13789984D02*
X11082086Y-13789984D01*
X11082086Y-13789984D02*
X11063039Y-13780460D01*
X11063039Y-13780460D02*
X11053515Y-13770936D01*
X11053515Y-13770936D02*
X11043991Y-13751888D01*
X11043991Y-13751888D02*
X11034467Y-13713793D01*
X11034467Y-13713793D02*
X11034467Y-13666174D01*
X11034467Y-13666174D02*
X11043991Y-13628079D01*
X11043991Y-13628079D02*
X11053515Y-13609031D01*
X11053515Y-13609031D02*
X11063039Y-13599508D01*
X11063039Y-13599508D02*
X11082086Y-13589984D01*
X11224943Y-13609031D02*
X11234467Y-13599508D01*
X11234467Y-13599508D02*
X11253515Y-13589984D01*
X11253515Y-13589984D02*
X11301134Y-13589984D01*
X11301134Y-13589984D02*
X11320182Y-13599508D01*
X11320182Y-13599508D02*
X11329705Y-13609031D01*
X11329705Y-13609031D02*
X11339229Y-13628079D01*
X11339229Y-13628079D02*
X11339229Y-13647127D01*
X11339229Y-13647127D02*
X11329705Y-13675698D01*
X11329705Y-13675698D02*
X11215420Y-13789984D01*
X11215420Y-13789984D02*
X11339229Y-13789984D01*
X11463039Y-13589984D02*
X11482086Y-13589984D01*
X11482086Y-13589984D02*
X11501134Y-13599508D01*
X11501134Y-13599508D02*
X11510658Y-13609031D01*
X11510658Y-13609031D02*
X11520182Y-13628079D01*
X11520182Y-13628079D02*
X11529705Y-13666174D01*
X11529705Y-13666174D02*
X11529705Y-13713793D01*
X11529705Y-13713793D02*
X11520182Y-13751888D01*
X11520182Y-13751888D02*
X11510658Y-13770936D01*
X11510658Y-13770936D02*
X11501134Y-13780460D01*
X11501134Y-13780460D02*
X11482086Y-13789984D01*
X11482086Y-13789984D02*
X11463039Y-13789984D01*
X11463039Y-13789984D02*
X11443991Y-13780460D01*
X11443991Y-13780460D02*
X11434467Y-13770936D01*
X11434467Y-13770936D02*
X11424943Y-13751888D01*
X11424943Y-13751888D02*
X11415420Y-13713793D01*
X11415420Y-13713793D02*
X11415420Y-13666174D01*
X11415420Y-13666174D02*
X11424943Y-13628079D01*
X11424943Y-13628079D02*
X11434467Y-13609031D01*
X11434467Y-13609031D02*
X11443991Y-13599508D01*
X11443991Y-13599508D02*
X11463039Y-13589984D01*
X11615420Y-13789984D02*
X11615420Y-13656650D01*
X11615420Y-13675698D02*
X11624943Y-13666174D01*
X11624943Y-13666174D02*
X11643991Y-13656650D01*
X11643991Y-13656650D02*
X11672563Y-13656650D01*
X11672563Y-13656650D02*
X11691610Y-13666174D01*
X11691610Y-13666174D02*
X11701134Y-13685222D01*
X11701134Y-13685222D02*
X11701134Y-13789984D01*
X11701134Y-13685222D02*
X11710658Y-13666174D01*
X11710658Y-13666174D02*
X11729705Y-13656650D01*
X11729705Y-13656650D02*
X11758277Y-13656650D01*
X11758277Y-13656650D02*
X11777324Y-13666174D01*
X11777324Y-13666174D02*
X11786848Y-13685222D01*
X11786848Y-13685222D02*
X11786848Y-13789984D01*
X11882086Y-13789984D02*
X11882086Y-13656650D01*
X11882086Y-13675698D02*
X11891610Y-13666174D01*
X11891610Y-13666174D02*
X11910658Y-13656650D01*
X11910658Y-13656650D02*
X11939229Y-13656650D01*
X11939229Y-13656650D02*
X11958277Y-13666174D01*
X11958277Y-13666174D02*
X11967801Y-13685222D01*
X11967801Y-13685222D02*
X11967801Y-13789984D01*
X11967801Y-13685222D02*
X11977324Y-13666174D01*
X11977324Y-13666174D02*
X11996372Y-13656650D01*
X11996372Y-13656650D02*
X12024943Y-13656650D01*
X12024943Y-13656650D02*
X12043991Y-13666174D01*
X12043991Y-13666174D02*
X12053515Y-13685222D01*
X12053515Y-13685222D02*
X12053515Y-13789984D01*
X12443991Y-13580460D02*
X12272563Y-13837603D01*
X12701134Y-13589984D02*
X12720182Y-13589984D01*
X12720182Y-13589984D02*
X12739229Y-13599508D01*
X12739229Y-13599508D02*
X12748753Y-13609031D01*
X12748753Y-13609031D02*
X12758277Y-13628079D01*
X12758277Y-13628079D02*
X12767801Y-13666174D01*
X12767801Y-13666174D02*
X12767801Y-13713793D01*
X12767801Y-13713793D02*
X12758277Y-13751888D01*
X12758277Y-13751888D02*
X12748753Y-13770936D01*
X12748753Y-13770936D02*
X12739229Y-13780460D01*
X12739229Y-13780460D02*
X12720182Y-13789984D01*
X12720182Y-13789984D02*
X12701134Y-13789984D01*
X12701134Y-13789984D02*
X12682086Y-13780460D01*
X12682086Y-13780460D02*
X12672563Y-13770936D01*
X12672563Y-13770936D02*
X12663039Y-13751888D01*
X12663039Y-13751888D02*
X12653515Y-13713793D01*
X12653515Y-13713793D02*
X12653515Y-13666174D01*
X12653515Y-13666174D02*
X12663039Y-13628079D01*
X12663039Y-13628079D02*
X12672563Y-13609031D01*
X12672563Y-13609031D02*
X12682086Y-13599508D01*
X12682086Y-13599508D02*
X12701134Y-13589984D01*
X12853515Y-13770936D02*
X12863039Y-13780460D01*
X12863039Y-13780460D02*
X12853515Y-13789984D01*
X12853515Y-13789984D02*
X12843991Y-13780460D01*
X12843991Y-13780460D02*
X12853515Y-13770936D01*
X12853515Y-13770936D02*
X12853515Y-13789984D01*
X12986848Y-13589984D02*
X13005896Y-13589984D01*
X13005896Y-13589984D02*
X13024944Y-13599508D01*
X13024944Y-13599508D02*
X13034467Y-13609031D01*
X13034467Y-13609031D02*
X13043991Y-13628079D01*
X13043991Y-13628079D02*
X13053515Y-13666174D01*
X13053515Y-13666174D02*
X13053515Y-13713793D01*
X13053515Y-13713793D02*
X13043991Y-13751888D01*
X13043991Y-13751888D02*
X13034467Y-13770936D01*
X13034467Y-13770936D02*
X13024944Y-13780460D01*
X13024944Y-13780460D02*
X13005896Y-13789984D01*
X13005896Y-13789984D02*
X12986848Y-13789984D01*
X12986848Y-13789984D02*
X12967801Y-13780460D01*
X12967801Y-13780460D02*
X12958277Y-13770936D01*
X12958277Y-13770936D02*
X12948753Y-13751888D01*
X12948753Y-13751888D02*
X12939229Y-13713793D01*
X12939229Y-13713793D02*
X12939229Y-13666174D01*
X12939229Y-13666174D02*
X12948753Y-13628079D01*
X12948753Y-13628079D02*
X12958277Y-13609031D01*
X12958277Y-13609031D02*
X12967801Y-13599508D01*
X12967801Y-13599508D02*
X12986848Y-13589984D01*
X13224944Y-13656650D02*
X13224944Y-13789984D01*
X13177325Y-13580460D02*
X13129706Y-13723317D01*
X13129706Y-13723317D02*
X13253515Y-13723317D01*
X13367801Y-13589984D02*
X13386848Y-13589984D01*
X13386848Y-13589984D02*
X13405896Y-13599508D01*
X13405896Y-13599508D02*
X13415420Y-13609031D01*
X13415420Y-13609031D02*
X13424944Y-13628079D01*
X13424944Y-13628079D02*
X13434467Y-13666174D01*
X13434467Y-13666174D02*
X13434467Y-13713793D01*
X13434467Y-13713793D02*
X13424944Y-13751888D01*
X13424944Y-13751888D02*
X13415420Y-13770936D01*
X13415420Y-13770936D02*
X13405896Y-13780460D01*
X13405896Y-13780460D02*
X13386848Y-13789984D01*
X13386848Y-13789984D02*
X13367801Y-13789984D01*
X13367801Y-13789984D02*
X13348753Y-13780460D01*
X13348753Y-13780460D02*
X13339229Y-13770936D01*
X13339229Y-13770936D02*
X13329706Y-13751888D01*
X13329706Y-13751888D02*
X13320182Y-13713793D01*
X13320182Y-13713793D02*
X13320182Y-13666174D01*
X13320182Y-13666174D02*
X13329706Y-13628079D01*
X13329706Y-13628079D02*
X13339229Y-13609031D01*
X13339229Y-13609031D02*
X13348753Y-13599508D01*
X13348753Y-13599508D02*
X13367801Y-13589984D01*
X13510658Y-13609031D02*
X13520182Y-13599508D01*
X13520182Y-13599508D02*
X13539229Y-13589984D01*
X13539229Y-13589984D02*
X13586848Y-13589984D01*
X13586848Y-13589984D02*
X13605896Y-13599508D01*
X13605896Y-13599508D02*
X13615420Y-13609031D01*
X13615420Y-13609031D02*
X13624944Y-13628079D01*
X13624944Y-13628079D02*
X13624944Y-13647127D01*
X13624944Y-13647127D02*
X13615420Y-13675698D01*
X13615420Y-13675698D02*
X13501134Y-13789984D01*
X13501134Y-13789984D02*
X13624944Y-13789984D01*
X13701134Y-13589984D02*
X13701134Y-13628079D01*
X13777325Y-13589984D02*
X13777325Y-13628079D01*
X14072563Y-13866174D02*
X14063039Y-13856650D01*
X14063039Y-13856650D02*
X14043991Y-13828079D01*
X14043991Y-13828079D02*
X14034468Y-13809031D01*
X14034468Y-13809031D02*
X14024944Y-13780460D01*
X14024944Y-13780460D02*
X14015420Y-13732841D01*
X14015420Y-13732841D02*
X14015420Y-13694746D01*
X14015420Y-13694746D02*
X14024944Y-13647127D01*
X14024944Y-13647127D02*
X14034468Y-13618555D01*
X14034468Y-13618555D02*
X14043991Y-13599508D01*
X14043991Y-13599508D02*
X14063039Y-13570936D01*
X14063039Y-13570936D02*
X14072563Y-13561412D01*
X14234468Y-13656650D02*
X14234468Y-13789984D01*
X14186848Y-13580460D02*
X14139229Y-13723317D01*
X14139229Y-13723317D02*
X14263039Y-13723317D01*
X14377325Y-13589984D02*
X14396372Y-13589984D01*
X14396372Y-13589984D02*
X14415420Y-13599508D01*
X14415420Y-13599508D02*
X14424944Y-13609031D01*
X14424944Y-13609031D02*
X14434468Y-13628079D01*
X14434468Y-13628079D02*
X14443991Y-13666174D01*
X14443991Y-13666174D02*
X14443991Y-13713793D01*
X14443991Y-13713793D02*
X14434468Y-13751888D01*
X14434468Y-13751888D02*
X14424944Y-13770936D01*
X14424944Y-13770936D02*
X14415420Y-13780460D01*
X14415420Y-13780460D02*
X14396372Y-13789984D01*
X14396372Y-13789984D02*
X14377325Y-13789984D01*
X14377325Y-13789984D02*
X14358277Y-13780460D01*
X14358277Y-13780460D02*
X14348753Y-13770936D01*
X14348753Y-13770936D02*
X14339229Y-13751888D01*
X14339229Y-13751888D02*
X14329706Y-13713793D01*
X14329706Y-13713793D02*
X14329706Y-13666174D01*
X14329706Y-13666174D02*
X14339229Y-13628079D01*
X14339229Y-13628079D02*
X14348753Y-13609031D01*
X14348753Y-13609031D02*
X14358277Y-13599508D01*
X14358277Y-13599508D02*
X14377325Y-13589984D01*
X14682087Y-13789984D02*
X14682087Y-13589984D01*
X14767801Y-13789984D02*
X14767801Y-13685222D01*
X14767801Y-13685222D02*
X14758277Y-13666174D01*
X14758277Y-13666174D02*
X14739230Y-13656650D01*
X14739230Y-13656650D02*
X14710658Y-13656650D01*
X14710658Y-13656650D02*
X14691610Y-13666174D01*
X14691610Y-13666174D02*
X14682087Y-13675698D01*
X14891610Y-13789984D02*
X14872563Y-13780460D01*
X14872563Y-13780460D02*
X14863039Y-13770936D01*
X14863039Y-13770936D02*
X14853515Y-13751888D01*
X14853515Y-13751888D02*
X14853515Y-13694746D01*
X14853515Y-13694746D02*
X14863039Y-13675698D01*
X14863039Y-13675698D02*
X14872563Y-13666174D01*
X14872563Y-13666174D02*
X14891610Y-13656650D01*
X14891610Y-13656650D02*
X14920182Y-13656650D01*
X14920182Y-13656650D02*
X14939230Y-13666174D01*
X14939230Y-13666174D02*
X14948753Y-13675698D01*
X14948753Y-13675698D02*
X14958277Y-13694746D01*
X14958277Y-13694746D02*
X14958277Y-13751888D01*
X14958277Y-13751888D02*
X14948753Y-13770936D01*
X14948753Y-13770936D02*
X14939230Y-13780460D01*
X14939230Y-13780460D02*
X14920182Y-13789984D01*
X14920182Y-13789984D02*
X14891610Y-13789984D01*
X15072563Y-13789984D02*
X15053515Y-13780460D01*
X15053515Y-13780460D02*
X15043991Y-13761412D01*
X15043991Y-13761412D02*
X15043991Y-13589984D01*
X15224944Y-13780460D02*
X15205896Y-13789984D01*
X15205896Y-13789984D02*
X15167801Y-13789984D01*
X15167801Y-13789984D02*
X15148753Y-13780460D01*
X15148753Y-13780460D02*
X15139230Y-13761412D01*
X15139230Y-13761412D02*
X15139230Y-13685222D01*
X15139230Y-13685222D02*
X15148753Y-13666174D01*
X15148753Y-13666174D02*
X15167801Y-13656650D01*
X15167801Y-13656650D02*
X15205896Y-13656650D01*
X15205896Y-13656650D02*
X15224944Y-13666174D01*
X15224944Y-13666174D02*
X15234468Y-13685222D01*
X15234468Y-13685222D02*
X15234468Y-13704269D01*
X15234468Y-13704269D02*
X15139230Y-13723317D01*
X15310658Y-13780460D02*
X15329706Y-13789984D01*
X15329706Y-13789984D02*
X15367801Y-13789984D01*
X15367801Y-13789984D02*
X15386849Y-13780460D01*
X15386849Y-13780460D02*
X15396372Y-13761412D01*
X15396372Y-13761412D02*
X15396372Y-13751888D01*
X15396372Y-13751888D02*
X15386849Y-13732841D01*
X15386849Y-13732841D02*
X15367801Y-13723317D01*
X15367801Y-13723317D02*
X15339230Y-13723317D01*
X15339230Y-13723317D02*
X15320182Y-13713793D01*
X15320182Y-13713793D02*
X15310658Y-13694746D01*
X15310658Y-13694746D02*
X15310658Y-13685222D01*
X15310658Y-13685222D02*
X15320182Y-13666174D01*
X15320182Y-13666174D02*
X15339230Y-13656650D01*
X15339230Y-13656650D02*
X15367801Y-13656650D01*
X15367801Y-13656650D02*
X15386849Y-13666174D01*
X15463039Y-13866174D02*
X15472563Y-13856650D01*
X15472563Y-13856650D02*
X15491611Y-13828079D01*
X15491611Y-13828079D02*
X15501134Y-13809031D01*
X15501134Y-13809031D02*
X15510658Y-13780460D01*
X15510658Y-13780460D02*
X15520182Y-13732841D01*
X15520182Y-13732841D02*
X15520182Y-13694746D01*
X15520182Y-13694746D02*
X15510658Y-13647127D01*
X15510658Y-13647127D02*
X15501134Y-13618555D01*
X15501134Y-13618555D02*
X15491611Y-13599508D01*
X15491611Y-13599508D02*
X15472563Y-13570936D01*
X15472563Y-13570936D02*
X15463039Y-13561412D01*
M02*
