%TF.GenerationSoftware,KiCad,Pcbnew,8.0.3*%
%TF.CreationDate,2024-07-03T23:55:26+09:00*%
%TF.ProjectId,mcu_rp2040,6d63755f-7270-4323-9034-302e6b696361,rev?*%
%TF.SameCoordinates,Original*%
%TF.FileFunction,Soldermask,Bot*%
%TF.FilePolarity,Negative*%
%FSLAX46Y46*%
G04 Gerber Fmt 4.6, Leading zero omitted, Abs format (unit mm)*
G04 Created by KiCad (PCBNEW 8.0.3) date 2024-07-03 23:55:26*
%MOMM*%
%LPD*%
G01*
G04 APERTURE LIST*
%ADD10R,1.800000X1.800000*%
%ADD11C,1.800000*%
%ADD12C,1.600000*%
%ADD13O,1.600000X1.600000*%
%ADD14R,1.700000X1.700000*%
%ADD15O,1.700000X1.700000*%
%ADD16O,1.800000X1.800000*%
%ADD17O,1.500000X1.500000*%
G04 APERTURE END LIST*
D10*
%TO.C,D7*%
X159080000Y-86500000D03*
D11*
X159080000Y-83960000D03*
%TD*%
D12*
%TO.C,R6*%
X159080000Y-71260000D03*
D13*
X159080000Y-81420000D03*
%TD*%
D14*
%TO.C,J5*%
X163615000Y-61100000D03*
D15*
X166155000Y-61100000D03*
X163615000Y-58560000D03*
X166155000Y-58560000D03*
X163615000Y-56020000D03*
X166155000Y-56020000D03*
X163615000Y-53480000D03*
X166155000Y-53480000D03*
X163615000Y-50940000D03*
X166155000Y-50940000D03*
X163615000Y-48400000D03*
X166155000Y-48400000D03*
%TD*%
D14*
%TO.C,J2*%
X110820000Y-66180000D03*
D15*
X108280000Y-66180000D03*
X110820000Y-68720000D03*
X108280000Y-68720000D03*
X110820000Y-71260000D03*
X108280000Y-71260000D03*
X110820000Y-73800000D03*
X108280000Y-73800000D03*
X110820000Y-76340000D03*
X108280000Y-76340000D03*
X110820000Y-78880000D03*
X108280000Y-78880000D03*
%TD*%
D10*
%TO.C,D5*%
X159080000Y-50940000D03*
D11*
X159080000Y-48400000D03*
%TD*%
D14*
%TO.C,J6*%
X163615000Y-78880000D03*
D15*
X166155000Y-78880000D03*
X163615000Y-76340000D03*
X166155000Y-76340000D03*
X163615000Y-73800000D03*
X166155000Y-73800000D03*
X163615000Y-71260000D03*
X166155000Y-71260000D03*
X163615000Y-68720000D03*
X166155000Y-68720000D03*
X163615000Y-66180000D03*
X166155000Y-66180000D03*
%TD*%
D12*
%TO.C,R4*%
X115900000Y-109360000D03*
D13*
X115900000Y-99200000D03*
%TD*%
D14*
%TO.C,J8*%
X163615000Y-114440000D03*
D15*
X166155000Y-114440000D03*
X163615000Y-111900000D03*
X166155000Y-111900000D03*
X163615000Y-109360000D03*
X166155000Y-109360000D03*
X163615000Y-106820000D03*
X166155000Y-106820000D03*
X163615000Y-104280000D03*
X166155000Y-104280000D03*
X163615000Y-101740000D03*
X166155000Y-101740000D03*
%TD*%
D12*
%TO.C,R3*%
X115900000Y-91580000D03*
D13*
X115900000Y-81420000D03*
%TD*%
D12*
%TO.C,R8*%
X159080000Y-106820000D03*
D13*
X159080000Y-116980000D03*
%TD*%
D10*
%TO.C,D2*%
X115900000Y-76340000D03*
D11*
X115900000Y-78880000D03*
%TD*%
D14*
%TO.C,J3*%
X110820000Y-83960000D03*
D15*
X108280000Y-83960000D03*
X110820000Y-86500000D03*
X108280000Y-86500000D03*
X110820000Y-89040000D03*
X108280000Y-89040000D03*
X110820000Y-91580000D03*
X108280000Y-91580000D03*
X110820000Y-94120000D03*
X108280000Y-94120000D03*
X110820000Y-96660000D03*
X108280000Y-96660000D03*
%TD*%
D16*
%TO.C,U2*%
X134765000Y-48530000D03*
D17*
X135065000Y-51560000D03*
X139915000Y-51560000D03*
D16*
X140215000Y-48530000D03*
D15*
X128600000Y-48400000D03*
X128600000Y-50940000D03*
D14*
X128600000Y-53480000D03*
D15*
X128600000Y-56020000D03*
X128600000Y-58560000D03*
X128600000Y-61100000D03*
X128600000Y-63640000D03*
D14*
X128600000Y-66180000D03*
D15*
X128600000Y-68720000D03*
X128600000Y-71260000D03*
X128600000Y-73800000D03*
X128600000Y-76340000D03*
D14*
X128600000Y-78880000D03*
D15*
X128600000Y-81420000D03*
X128600000Y-83960000D03*
X128600000Y-86500000D03*
X128600000Y-89040000D03*
D14*
X128600000Y-91580000D03*
D15*
X128600000Y-94120000D03*
X128600000Y-96660000D03*
X146380000Y-96660000D03*
X146380000Y-94120000D03*
D14*
X146380000Y-91580000D03*
D15*
X146380000Y-89040000D03*
X146380000Y-86500000D03*
X146380000Y-83960000D03*
X146380000Y-81420000D03*
D14*
X146380000Y-78880000D03*
D15*
X146380000Y-76340000D03*
X146380000Y-73800000D03*
X146380000Y-71260000D03*
X146380000Y-68720000D03*
D14*
X146380000Y-66180000D03*
D15*
X146380000Y-63640000D03*
X146380000Y-61100000D03*
X146380000Y-58560000D03*
X146380000Y-56020000D03*
D14*
X146380000Y-53480000D03*
D15*
X146380000Y-50940000D03*
X146380000Y-48400000D03*
%TD*%
D10*
%TO.C,D9*%
X153500000Y-49275000D03*
D11*
X153500000Y-46735000D03*
%TD*%
D12*
%TO.C,R7*%
X159080000Y-89040000D03*
D13*
X159080000Y-99200000D03*
%TD*%
D14*
%TO.C,J7*%
X163615000Y-96660000D03*
D15*
X166155000Y-96660000D03*
X163615000Y-94120000D03*
X166155000Y-94120000D03*
X163615000Y-91580000D03*
X166155000Y-91580000D03*
X163615000Y-89040000D03*
X166155000Y-89040000D03*
X163615000Y-86500000D03*
X166155000Y-86500000D03*
X163615000Y-83960000D03*
X166155000Y-83960000D03*
%TD*%
D10*
%TO.C,D1*%
X115900000Y-58560000D03*
D11*
X115900000Y-61100000D03*
%TD*%
D14*
%TO.C,J4*%
X110820000Y-101740000D03*
D15*
X108280000Y-101740000D03*
X110820000Y-104280000D03*
X108280000Y-104280000D03*
X110820000Y-106820000D03*
X108280000Y-106820000D03*
X110820000Y-109360000D03*
X108280000Y-109360000D03*
X110820000Y-111900000D03*
X108280000Y-111900000D03*
X110820000Y-114440000D03*
X108280000Y-114440000D03*
%TD*%
D12*
%TO.C,R1*%
X115900000Y-56020000D03*
D13*
X115900000Y-45860000D03*
%TD*%
D14*
%TO.C,J1*%
X110820000Y-48400000D03*
D15*
X108280000Y-48400000D03*
X110820000Y-50940000D03*
X108280000Y-50940000D03*
X110820000Y-53480000D03*
X108280000Y-53480000D03*
X110820000Y-56020000D03*
X108280000Y-56020000D03*
X110820000Y-58560000D03*
X108280000Y-58560000D03*
X110820000Y-61100000D03*
X108280000Y-61100000D03*
%TD*%
D12*
%TO.C,R9*%
X153000000Y-52820000D03*
D13*
X153000000Y-62980000D03*
%TD*%
D10*
%TO.C,D6*%
X159080000Y-68720000D03*
D11*
X159080000Y-66180000D03*
%TD*%
D10*
%TO.C,D3*%
X115900000Y-94120000D03*
D11*
X115900000Y-96660000D03*
%TD*%
D10*
%TO.C,D4*%
X115900000Y-111900000D03*
D11*
X115900000Y-114440000D03*
%TD*%
D12*
%TO.C,R2*%
X115900000Y-73800000D03*
D13*
X115900000Y-63640000D03*
%TD*%
D10*
%TO.C,D8*%
X159080000Y-104280000D03*
D11*
X159080000Y-101740000D03*
%TD*%
D12*
%TO.C,R5*%
X159080000Y-53480000D03*
D13*
X159080000Y-63640000D03*
%TD*%
M02*
