%TF.GenerationSoftware,KiCad,Pcbnew,8.0.3*%
%TF.CreationDate,2024-07-03T23:55:28+09:00*%
%TF.ProjectId,mcu_rp2040,6d63755f-7270-4323-9034-302e6b696361,rev?*%
%TF.SameCoordinates,Original*%
%TF.FileFunction,Drillmap*%
%TF.FilePolarity,Positive*%
%FSLAX45Y45*%
G04 Gerber Fmt 4.5, Leading zero omitted, Abs format (unit mm)*
G04 Created by KiCad (PCBNEW 8.0.3) date 2024-07-03 23:55:28*
%MOMM*%
%LPD*%
G01*
G04 APERTURE LIST*
%ADD10C,0.050000*%
%ADD11C,0.200000*%
%ADD12C,0.150000*%
%ADD13C,0.180000*%
G04 APERTURE END LIST*
D10*
X12300000Y-5000000D02*
G75*
G02*
X11900000Y-5000000I-200000J0D01*
G01*
X11900000Y-5000000D02*
G75*
G02*
X12300000Y-5000000I200000J0D01*
G01*
X12700000Y-10600000D02*
G75*
G02*
X12300000Y-10600000I-200000J0D01*
G01*
X12300000Y-10600000D02*
G75*
G02*
X12700000Y-10600000I200000J0D01*
G01*
X15300000Y-10600000D02*
G75*
G02*
X14900000Y-10600000I-200000J0D01*
G01*
X14900000Y-10600000D02*
G75*
G02*
X15300000Y-10600000I200000J0D01*
G01*
X10500000Y-4300000D02*
X17100000Y-4300000D01*
X17100000Y-12000000D01*
X10500000Y-12000000D01*
X10500000Y-4300000D01*
D11*
D12*
X13431500Y-5081000D02*
X13581500Y-5231000D01*
X13581500Y-5081000D02*
X13431500Y-5231000D01*
X13916500Y-5081000D02*
X14066500Y-5231000D01*
X14066500Y-5081000D02*
X13916500Y-5231000D01*
D13*
X13566500Y-4853000D02*
G75*
G02*
X13386500Y-4853000I-90000J0D01*
G01*
X13386500Y-4853000D02*
G75*
G02*
X13566500Y-4853000I90000J0D01*
G01*
X14111500Y-4853000D02*
G75*
G02*
X13931500Y-4853000I-90000J0D01*
G01*
X13931500Y-4853000D02*
G75*
G02*
X14111500Y-4853000I90000J0D01*
G01*
D11*
X10758277Y-12313984D02*
X10758277Y-12113984D01*
X10758277Y-12113984D02*
X10805896Y-12113984D01*
X10805896Y-12113984D02*
X10834467Y-12123508D01*
X10834467Y-12123508D02*
X10853515Y-12142555D01*
X10853515Y-12142555D02*
X10863039Y-12161603D01*
X10863039Y-12161603D02*
X10872563Y-12199698D01*
X10872563Y-12199698D02*
X10872563Y-12228269D01*
X10872563Y-12228269D02*
X10863039Y-12266365D01*
X10863039Y-12266365D02*
X10853515Y-12285412D01*
X10853515Y-12285412D02*
X10834467Y-12304460D01*
X10834467Y-12304460D02*
X10805896Y-12313984D01*
X10805896Y-12313984D02*
X10758277Y-12313984D01*
X10958277Y-12313984D02*
X10958277Y-12180650D01*
X10958277Y-12218746D02*
X10967801Y-12199698D01*
X10967801Y-12199698D02*
X10977324Y-12190174D01*
X10977324Y-12190174D02*
X10996372Y-12180650D01*
X10996372Y-12180650D02*
X11015420Y-12180650D01*
X11082086Y-12313984D02*
X11082086Y-12180650D01*
X11082086Y-12113984D02*
X11072563Y-12123508D01*
X11072563Y-12123508D02*
X11082086Y-12133031D01*
X11082086Y-12133031D02*
X11091610Y-12123508D01*
X11091610Y-12123508D02*
X11082086Y-12113984D01*
X11082086Y-12113984D02*
X11082086Y-12133031D01*
X11205896Y-12313984D02*
X11186848Y-12304460D01*
X11186848Y-12304460D02*
X11177324Y-12285412D01*
X11177324Y-12285412D02*
X11177324Y-12113984D01*
X11310658Y-12313984D02*
X11291610Y-12304460D01*
X11291610Y-12304460D02*
X11282086Y-12285412D01*
X11282086Y-12285412D02*
X11282086Y-12113984D01*
X11539229Y-12313984D02*
X11539229Y-12113984D01*
X11539229Y-12113984D02*
X11605896Y-12256841D01*
X11605896Y-12256841D02*
X11672562Y-12113984D01*
X11672562Y-12113984D02*
X11672562Y-12313984D01*
X11853515Y-12313984D02*
X11853515Y-12209222D01*
X11853515Y-12209222D02*
X11843991Y-12190174D01*
X11843991Y-12190174D02*
X11824943Y-12180650D01*
X11824943Y-12180650D02*
X11786848Y-12180650D01*
X11786848Y-12180650D02*
X11767801Y-12190174D01*
X11853515Y-12304460D02*
X11834467Y-12313984D01*
X11834467Y-12313984D02*
X11786848Y-12313984D01*
X11786848Y-12313984D02*
X11767801Y-12304460D01*
X11767801Y-12304460D02*
X11758277Y-12285412D01*
X11758277Y-12285412D02*
X11758277Y-12266365D01*
X11758277Y-12266365D02*
X11767801Y-12247317D01*
X11767801Y-12247317D02*
X11786848Y-12237793D01*
X11786848Y-12237793D02*
X11834467Y-12237793D01*
X11834467Y-12237793D02*
X11853515Y-12228269D01*
X11948753Y-12180650D02*
X11948753Y-12380650D01*
X11948753Y-12190174D02*
X11967801Y-12180650D01*
X11967801Y-12180650D02*
X12005896Y-12180650D01*
X12005896Y-12180650D02*
X12024943Y-12190174D01*
X12024943Y-12190174D02*
X12034467Y-12199698D01*
X12034467Y-12199698D02*
X12043991Y-12218746D01*
X12043991Y-12218746D02*
X12043991Y-12275888D01*
X12043991Y-12275888D02*
X12034467Y-12294936D01*
X12034467Y-12294936D02*
X12024943Y-12304460D01*
X12024943Y-12304460D02*
X12005896Y-12313984D01*
X12005896Y-12313984D02*
X11967801Y-12313984D01*
X11967801Y-12313984D02*
X11948753Y-12304460D01*
X12129705Y-12294936D02*
X12139229Y-12304460D01*
X12139229Y-12304460D02*
X12129705Y-12313984D01*
X12129705Y-12313984D02*
X12120182Y-12304460D01*
X12120182Y-12304460D02*
X12129705Y-12294936D01*
X12129705Y-12294936D02*
X12129705Y-12313984D01*
X12129705Y-12190174D02*
X12139229Y-12199698D01*
X12139229Y-12199698D02*
X12129705Y-12209222D01*
X12129705Y-12209222D02*
X12120182Y-12199698D01*
X12120182Y-12199698D02*
X12129705Y-12190174D01*
X12129705Y-12190174D02*
X12129705Y-12209222D01*
D12*
X10347500Y-12567500D02*
X10497500Y-12717500D01*
X10497500Y-12567500D02*
X10347500Y-12717500D01*
D11*
X10863039Y-12733984D02*
X10748753Y-12733984D01*
X10805896Y-12733984D02*
X10805896Y-12533984D01*
X10805896Y-12533984D02*
X10786848Y-12562555D01*
X10786848Y-12562555D02*
X10767801Y-12581603D01*
X10767801Y-12581603D02*
X10748753Y-12591127D01*
X10948753Y-12714936D02*
X10958277Y-12724460D01*
X10958277Y-12724460D02*
X10948753Y-12733984D01*
X10948753Y-12733984D02*
X10939229Y-12724460D01*
X10939229Y-12724460D02*
X10948753Y-12714936D01*
X10948753Y-12714936D02*
X10948753Y-12733984D01*
X11139229Y-12533984D02*
X11043991Y-12533984D01*
X11043991Y-12533984D02*
X11034467Y-12629222D01*
X11034467Y-12629222D02*
X11043991Y-12619698D01*
X11043991Y-12619698D02*
X11063039Y-12610174D01*
X11063039Y-12610174D02*
X11110658Y-12610174D01*
X11110658Y-12610174D02*
X11129705Y-12619698D01*
X11129705Y-12619698D02*
X11139229Y-12629222D01*
X11139229Y-12629222D02*
X11148753Y-12648269D01*
X11148753Y-12648269D02*
X11148753Y-12695888D01*
X11148753Y-12695888D02*
X11139229Y-12714936D01*
X11139229Y-12714936D02*
X11129705Y-12724460D01*
X11129705Y-12724460D02*
X11110658Y-12733984D01*
X11110658Y-12733984D02*
X11063039Y-12733984D01*
X11063039Y-12733984D02*
X11043991Y-12724460D01*
X11043991Y-12724460D02*
X11034467Y-12714936D01*
X11272562Y-12533984D02*
X11291610Y-12533984D01*
X11291610Y-12533984D02*
X11310658Y-12543508D01*
X11310658Y-12543508D02*
X11320182Y-12553031D01*
X11320182Y-12553031D02*
X11329705Y-12572079D01*
X11329705Y-12572079D02*
X11339229Y-12610174D01*
X11339229Y-12610174D02*
X11339229Y-12657793D01*
X11339229Y-12657793D02*
X11329705Y-12695888D01*
X11329705Y-12695888D02*
X11320182Y-12714936D01*
X11320182Y-12714936D02*
X11310658Y-12724460D01*
X11310658Y-12724460D02*
X11291610Y-12733984D01*
X11291610Y-12733984D02*
X11272562Y-12733984D01*
X11272562Y-12733984D02*
X11253515Y-12724460D01*
X11253515Y-12724460D02*
X11243991Y-12714936D01*
X11243991Y-12714936D02*
X11234467Y-12695888D01*
X11234467Y-12695888D02*
X11224943Y-12657793D01*
X11224943Y-12657793D02*
X11224943Y-12610174D01*
X11224943Y-12610174D02*
X11234467Y-12572079D01*
X11234467Y-12572079D02*
X11243991Y-12553031D01*
X11243991Y-12553031D02*
X11253515Y-12543508D01*
X11253515Y-12543508D02*
X11272562Y-12533984D01*
X11463039Y-12533984D02*
X11482086Y-12533984D01*
X11482086Y-12533984D02*
X11501134Y-12543508D01*
X11501134Y-12543508D02*
X11510658Y-12553031D01*
X11510658Y-12553031D02*
X11520182Y-12572079D01*
X11520182Y-12572079D02*
X11529705Y-12610174D01*
X11529705Y-12610174D02*
X11529705Y-12657793D01*
X11529705Y-12657793D02*
X11520182Y-12695888D01*
X11520182Y-12695888D02*
X11510658Y-12714936D01*
X11510658Y-12714936D02*
X11501134Y-12724460D01*
X11501134Y-12724460D02*
X11482086Y-12733984D01*
X11482086Y-12733984D02*
X11463039Y-12733984D01*
X11463039Y-12733984D02*
X11443991Y-12724460D01*
X11443991Y-12724460D02*
X11434467Y-12714936D01*
X11434467Y-12714936D02*
X11424943Y-12695888D01*
X11424943Y-12695888D02*
X11415420Y-12657793D01*
X11415420Y-12657793D02*
X11415420Y-12610174D01*
X11415420Y-12610174D02*
X11424943Y-12572079D01*
X11424943Y-12572079D02*
X11434467Y-12553031D01*
X11434467Y-12553031D02*
X11443991Y-12543508D01*
X11443991Y-12543508D02*
X11463039Y-12533984D01*
X11615420Y-12733984D02*
X11615420Y-12600650D01*
X11615420Y-12619698D02*
X11624943Y-12610174D01*
X11624943Y-12610174D02*
X11643991Y-12600650D01*
X11643991Y-12600650D02*
X11672563Y-12600650D01*
X11672563Y-12600650D02*
X11691610Y-12610174D01*
X11691610Y-12610174D02*
X11701134Y-12629222D01*
X11701134Y-12629222D02*
X11701134Y-12733984D01*
X11701134Y-12629222D02*
X11710658Y-12610174D01*
X11710658Y-12610174D02*
X11729705Y-12600650D01*
X11729705Y-12600650D02*
X11758277Y-12600650D01*
X11758277Y-12600650D02*
X11777324Y-12610174D01*
X11777324Y-12610174D02*
X11786848Y-12629222D01*
X11786848Y-12629222D02*
X11786848Y-12733984D01*
X11882086Y-12733984D02*
X11882086Y-12600650D01*
X11882086Y-12619698D02*
X11891610Y-12610174D01*
X11891610Y-12610174D02*
X11910658Y-12600650D01*
X11910658Y-12600650D02*
X11939229Y-12600650D01*
X11939229Y-12600650D02*
X11958277Y-12610174D01*
X11958277Y-12610174D02*
X11967801Y-12629222D01*
X11967801Y-12629222D02*
X11967801Y-12733984D01*
X11967801Y-12629222D02*
X11977324Y-12610174D01*
X11977324Y-12610174D02*
X11996372Y-12600650D01*
X11996372Y-12600650D02*
X12024943Y-12600650D01*
X12024943Y-12600650D02*
X12043991Y-12610174D01*
X12043991Y-12610174D02*
X12053515Y-12629222D01*
X12053515Y-12629222D02*
X12053515Y-12733984D01*
X12443991Y-12524460D02*
X12272563Y-12781603D01*
X12701134Y-12533984D02*
X12720182Y-12533984D01*
X12720182Y-12533984D02*
X12739229Y-12543508D01*
X12739229Y-12543508D02*
X12748753Y-12553031D01*
X12748753Y-12553031D02*
X12758277Y-12572079D01*
X12758277Y-12572079D02*
X12767801Y-12610174D01*
X12767801Y-12610174D02*
X12767801Y-12657793D01*
X12767801Y-12657793D02*
X12758277Y-12695888D01*
X12758277Y-12695888D02*
X12748753Y-12714936D01*
X12748753Y-12714936D02*
X12739229Y-12724460D01*
X12739229Y-12724460D02*
X12720182Y-12733984D01*
X12720182Y-12733984D02*
X12701134Y-12733984D01*
X12701134Y-12733984D02*
X12682086Y-12724460D01*
X12682086Y-12724460D02*
X12672563Y-12714936D01*
X12672563Y-12714936D02*
X12663039Y-12695888D01*
X12663039Y-12695888D02*
X12653515Y-12657793D01*
X12653515Y-12657793D02*
X12653515Y-12610174D01*
X12653515Y-12610174D02*
X12663039Y-12572079D01*
X12663039Y-12572079D02*
X12672563Y-12553031D01*
X12672563Y-12553031D02*
X12682086Y-12543508D01*
X12682086Y-12543508D02*
X12701134Y-12533984D01*
X12853515Y-12714936D02*
X12863039Y-12724460D01*
X12863039Y-12724460D02*
X12853515Y-12733984D01*
X12853515Y-12733984D02*
X12843991Y-12724460D01*
X12843991Y-12724460D02*
X12853515Y-12714936D01*
X12853515Y-12714936D02*
X12853515Y-12733984D01*
X12986848Y-12533984D02*
X13005896Y-12533984D01*
X13005896Y-12533984D02*
X13024944Y-12543508D01*
X13024944Y-12543508D02*
X13034467Y-12553031D01*
X13034467Y-12553031D02*
X13043991Y-12572079D01*
X13043991Y-12572079D02*
X13053515Y-12610174D01*
X13053515Y-12610174D02*
X13053515Y-12657793D01*
X13053515Y-12657793D02*
X13043991Y-12695888D01*
X13043991Y-12695888D02*
X13034467Y-12714936D01*
X13034467Y-12714936D02*
X13024944Y-12724460D01*
X13024944Y-12724460D02*
X13005896Y-12733984D01*
X13005896Y-12733984D02*
X12986848Y-12733984D01*
X12986848Y-12733984D02*
X12967801Y-12724460D01*
X12967801Y-12724460D02*
X12958277Y-12714936D01*
X12958277Y-12714936D02*
X12948753Y-12695888D01*
X12948753Y-12695888D02*
X12939229Y-12657793D01*
X12939229Y-12657793D02*
X12939229Y-12610174D01*
X12939229Y-12610174D02*
X12948753Y-12572079D01*
X12948753Y-12572079D02*
X12958277Y-12553031D01*
X12958277Y-12553031D02*
X12967801Y-12543508D01*
X12967801Y-12543508D02*
X12986848Y-12533984D01*
X13234467Y-12533984D02*
X13139229Y-12533984D01*
X13139229Y-12533984D02*
X13129706Y-12629222D01*
X13129706Y-12629222D02*
X13139229Y-12619698D01*
X13139229Y-12619698D02*
X13158277Y-12610174D01*
X13158277Y-12610174D02*
X13205896Y-12610174D01*
X13205896Y-12610174D02*
X13224944Y-12619698D01*
X13224944Y-12619698D02*
X13234467Y-12629222D01*
X13234467Y-12629222D02*
X13243991Y-12648269D01*
X13243991Y-12648269D02*
X13243991Y-12695888D01*
X13243991Y-12695888D02*
X13234467Y-12714936D01*
X13234467Y-12714936D02*
X13224944Y-12724460D01*
X13224944Y-12724460D02*
X13205896Y-12733984D01*
X13205896Y-12733984D02*
X13158277Y-12733984D01*
X13158277Y-12733984D02*
X13139229Y-12724460D01*
X13139229Y-12724460D02*
X13129706Y-12714936D01*
X13339229Y-12733984D02*
X13377325Y-12733984D01*
X13377325Y-12733984D02*
X13396372Y-12724460D01*
X13396372Y-12724460D02*
X13405896Y-12714936D01*
X13405896Y-12714936D02*
X13424944Y-12686365D01*
X13424944Y-12686365D02*
X13434467Y-12648269D01*
X13434467Y-12648269D02*
X13434467Y-12572079D01*
X13434467Y-12572079D02*
X13424944Y-12553031D01*
X13424944Y-12553031D02*
X13415420Y-12543508D01*
X13415420Y-12543508D02*
X13396372Y-12533984D01*
X13396372Y-12533984D02*
X13358277Y-12533984D01*
X13358277Y-12533984D02*
X13339229Y-12543508D01*
X13339229Y-12543508D02*
X13329706Y-12553031D01*
X13329706Y-12553031D02*
X13320182Y-12572079D01*
X13320182Y-12572079D02*
X13320182Y-12619698D01*
X13320182Y-12619698D02*
X13329706Y-12638746D01*
X13329706Y-12638746D02*
X13339229Y-12648269D01*
X13339229Y-12648269D02*
X13358277Y-12657793D01*
X13358277Y-12657793D02*
X13396372Y-12657793D01*
X13396372Y-12657793D02*
X13415420Y-12648269D01*
X13415420Y-12648269D02*
X13424944Y-12638746D01*
X13424944Y-12638746D02*
X13434467Y-12619698D01*
X13624944Y-12733984D02*
X13510658Y-12733984D01*
X13567801Y-12733984D02*
X13567801Y-12533984D01*
X13567801Y-12533984D02*
X13548753Y-12562555D01*
X13548753Y-12562555D02*
X13529706Y-12581603D01*
X13529706Y-12581603D02*
X13510658Y-12591127D01*
X13701134Y-12533984D02*
X13701134Y-12572079D01*
X13777325Y-12533984D02*
X13777325Y-12572079D01*
X14072563Y-12810174D02*
X14063039Y-12800650D01*
X14063039Y-12800650D02*
X14043991Y-12772079D01*
X14043991Y-12772079D02*
X14034468Y-12753031D01*
X14034468Y-12753031D02*
X14024944Y-12724460D01*
X14024944Y-12724460D02*
X14015420Y-12676841D01*
X14015420Y-12676841D02*
X14015420Y-12638746D01*
X14015420Y-12638746D02*
X14024944Y-12591127D01*
X14024944Y-12591127D02*
X14034468Y-12562555D01*
X14034468Y-12562555D02*
X14043991Y-12543508D01*
X14043991Y-12543508D02*
X14063039Y-12514936D01*
X14063039Y-12514936D02*
X14072563Y-12505412D01*
X14139229Y-12553031D02*
X14148753Y-12543508D01*
X14148753Y-12543508D02*
X14167801Y-12533984D01*
X14167801Y-12533984D02*
X14215420Y-12533984D01*
X14215420Y-12533984D02*
X14234468Y-12543508D01*
X14234468Y-12543508D02*
X14243991Y-12553031D01*
X14243991Y-12553031D02*
X14253515Y-12572079D01*
X14253515Y-12572079D02*
X14253515Y-12591127D01*
X14253515Y-12591127D02*
X14243991Y-12619698D01*
X14243991Y-12619698D02*
X14129706Y-12733984D01*
X14129706Y-12733984D02*
X14253515Y-12733984D01*
X14491610Y-12733984D02*
X14491610Y-12533984D01*
X14577325Y-12733984D02*
X14577325Y-12629222D01*
X14577325Y-12629222D02*
X14567801Y-12610174D01*
X14567801Y-12610174D02*
X14548753Y-12600650D01*
X14548753Y-12600650D02*
X14520182Y-12600650D01*
X14520182Y-12600650D02*
X14501134Y-12610174D01*
X14501134Y-12610174D02*
X14491610Y-12619698D01*
X14701134Y-12733984D02*
X14682087Y-12724460D01*
X14682087Y-12724460D02*
X14672563Y-12714936D01*
X14672563Y-12714936D02*
X14663039Y-12695888D01*
X14663039Y-12695888D02*
X14663039Y-12638746D01*
X14663039Y-12638746D02*
X14672563Y-12619698D01*
X14672563Y-12619698D02*
X14682087Y-12610174D01*
X14682087Y-12610174D02*
X14701134Y-12600650D01*
X14701134Y-12600650D02*
X14729706Y-12600650D01*
X14729706Y-12600650D02*
X14748753Y-12610174D01*
X14748753Y-12610174D02*
X14758277Y-12619698D01*
X14758277Y-12619698D02*
X14767801Y-12638746D01*
X14767801Y-12638746D02*
X14767801Y-12695888D01*
X14767801Y-12695888D02*
X14758277Y-12714936D01*
X14758277Y-12714936D02*
X14748753Y-12724460D01*
X14748753Y-12724460D02*
X14729706Y-12733984D01*
X14729706Y-12733984D02*
X14701134Y-12733984D01*
X14882087Y-12733984D02*
X14863039Y-12724460D01*
X14863039Y-12724460D02*
X14853515Y-12705412D01*
X14853515Y-12705412D02*
X14853515Y-12533984D01*
X15034468Y-12724460D02*
X15015420Y-12733984D01*
X15015420Y-12733984D02*
X14977325Y-12733984D01*
X14977325Y-12733984D02*
X14958277Y-12724460D01*
X14958277Y-12724460D02*
X14948753Y-12705412D01*
X14948753Y-12705412D02*
X14948753Y-12629222D01*
X14948753Y-12629222D02*
X14958277Y-12610174D01*
X14958277Y-12610174D02*
X14977325Y-12600650D01*
X14977325Y-12600650D02*
X15015420Y-12600650D01*
X15015420Y-12600650D02*
X15034468Y-12610174D01*
X15034468Y-12610174D02*
X15043991Y-12629222D01*
X15043991Y-12629222D02*
X15043991Y-12648269D01*
X15043991Y-12648269D02*
X14948753Y-12667317D01*
X15120182Y-12724460D02*
X15139230Y-12733984D01*
X15139230Y-12733984D02*
X15177325Y-12733984D01*
X15177325Y-12733984D02*
X15196372Y-12724460D01*
X15196372Y-12724460D02*
X15205896Y-12705412D01*
X15205896Y-12705412D02*
X15205896Y-12695888D01*
X15205896Y-12695888D02*
X15196372Y-12676841D01*
X15196372Y-12676841D02*
X15177325Y-12667317D01*
X15177325Y-12667317D02*
X15148753Y-12667317D01*
X15148753Y-12667317D02*
X15129706Y-12657793D01*
X15129706Y-12657793D02*
X15120182Y-12638746D01*
X15120182Y-12638746D02*
X15120182Y-12629222D01*
X15120182Y-12629222D02*
X15129706Y-12610174D01*
X15129706Y-12610174D02*
X15148753Y-12600650D01*
X15148753Y-12600650D02*
X15177325Y-12600650D01*
X15177325Y-12600650D02*
X15196372Y-12610174D01*
X15272563Y-12810174D02*
X15282087Y-12800650D01*
X15282087Y-12800650D02*
X15301134Y-12772079D01*
X15301134Y-12772079D02*
X15310658Y-12753031D01*
X15310658Y-12753031D02*
X15320182Y-12724460D01*
X15320182Y-12724460D02*
X15329706Y-12676841D01*
X15329706Y-12676841D02*
X15329706Y-12638746D01*
X15329706Y-12638746D02*
X15320182Y-12591127D01*
X15320182Y-12591127D02*
X15310658Y-12562555D01*
X15310658Y-12562555D02*
X15301134Y-12543508D01*
X15301134Y-12543508D02*
X15282087Y-12514936D01*
X15282087Y-12514936D02*
X15272563Y-12505412D01*
X15634468Y-12810174D02*
X15624944Y-12800650D01*
X15624944Y-12800650D02*
X15605896Y-12772079D01*
X15605896Y-12772079D02*
X15596372Y-12753031D01*
X15596372Y-12753031D02*
X15586849Y-12724460D01*
X15586849Y-12724460D02*
X15577325Y-12676841D01*
X15577325Y-12676841D02*
X15577325Y-12638746D01*
X15577325Y-12638746D02*
X15586849Y-12591127D01*
X15586849Y-12591127D02*
X15596372Y-12562555D01*
X15596372Y-12562555D02*
X15605896Y-12543508D01*
X15605896Y-12543508D02*
X15624944Y-12514936D01*
X15624944Y-12514936D02*
X15634468Y-12505412D01*
X15710658Y-12600650D02*
X15710658Y-12733984D01*
X15710658Y-12619698D02*
X15720182Y-12610174D01*
X15720182Y-12610174D02*
X15739230Y-12600650D01*
X15739230Y-12600650D02*
X15767801Y-12600650D01*
X15767801Y-12600650D02*
X15786849Y-12610174D01*
X15786849Y-12610174D02*
X15796372Y-12629222D01*
X15796372Y-12629222D02*
X15796372Y-12733984D01*
X15920182Y-12733984D02*
X15901134Y-12724460D01*
X15901134Y-12724460D02*
X15891611Y-12714936D01*
X15891611Y-12714936D02*
X15882087Y-12695888D01*
X15882087Y-12695888D02*
X15882087Y-12638746D01*
X15882087Y-12638746D02*
X15891611Y-12619698D01*
X15891611Y-12619698D02*
X15901134Y-12610174D01*
X15901134Y-12610174D02*
X15920182Y-12600650D01*
X15920182Y-12600650D02*
X15948753Y-12600650D01*
X15948753Y-12600650D02*
X15967801Y-12610174D01*
X15967801Y-12610174D02*
X15977325Y-12619698D01*
X15977325Y-12619698D02*
X15986849Y-12638746D01*
X15986849Y-12638746D02*
X15986849Y-12695888D01*
X15986849Y-12695888D02*
X15977325Y-12714936D01*
X15977325Y-12714936D02*
X15967801Y-12724460D01*
X15967801Y-12724460D02*
X15948753Y-12733984D01*
X15948753Y-12733984D02*
X15920182Y-12733984D01*
X16043992Y-12600650D02*
X16120182Y-12600650D01*
X16072563Y-12533984D02*
X16072563Y-12705412D01*
X16072563Y-12705412D02*
X16082087Y-12724460D01*
X16082087Y-12724460D02*
X16101134Y-12733984D01*
X16101134Y-12733984D02*
X16120182Y-12733984D01*
X16339230Y-12600650D02*
X16339230Y-12800650D01*
X16339230Y-12610174D02*
X16358277Y-12600650D01*
X16358277Y-12600650D02*
X16396373Y-12600650D01*
X16396373Y-12600650D02*
X16415420Y-12610174D01*
X16415420Y-12610174D02*
X16424944Y-12619698D01*
X16424944Y-12619698D02*
X16434468Y-12638746D01*
X16434468Y-12638746D02*
X16434468Y-12695888D01*
X16434468Y-12695888D02*
X16424944Y-12714936D01*
X16424944Y-12714936D02*
X16415420Y-12724460D01*
X16415420Y-12724460D02*
X16396373Y-12733984D01*
X16396373Y-12733984D02*
X16358277Y-12733984D01*
X16358277Y-12733984D02*
X16339230Y-12724460D01*
X16548753Y-12733984D02*
X16529706Y-12724460D01*
X16529706Y-12724460D02*
X16520182Y-12705412D01*
X16520182Y-12705412D02*
X16520182Y-12533984D01*
X16710658Y-12733984D02*
X16710658Y-12629222D01*
X16710658Y-12629222D02*
X16701134Y-12610174D01*
X16701134Y-12610174D02*
X16682087Y-12600650D01*
X16682087Y-12600650D02*
X16643992Y-12600650D01*
X16643992Y-12600650D02*
X16624944Y-12610174D01*
X16710658Y-12724460D02*
X16691611Y-12733984D01*
X16691611Y-12733984D02*
X16643992Y-12733984D01*
X16643992Y-12733984D02*
X16624944Y-12724460D01*
X16624944Y-12724460D02*
X16615420Y-12705412D01*
X16615420Y-12705412D02*
X16615420Y-12686365D01*
X16615420Y-12686365D02*
X16624944Y-12667317D01*
X16624944Y-12667317D02*
X16643992Y-12657793D01*
X16643992Y-12657793D02*
X16691611Y-12657793D01*
X16691611Y-12657793D02*
X16710658Y-12648269D01*
X16777325Y-12600650D02*
X16853515Y-12600650D01*
X16805896Y-12533984D02*
X16805896Y-12705412D01*
X16805896Y-12705412D02*
X16815420Y-12724460D01*
X16815420Y-12724460D02*
X16834468Y-12733984D01*
X16834468Y-12733984D02*
X16853515Y-12733984D01*
X16996373Y-12724460D02*
X16977325Y-12733984D01*
X16977325Y-12733984D02*
X16939230Y-12733984D01*
X16939230Y-12733984D02*
X16920182Y-12724460D01*
X16920182Y-12724460D02*
X16910658Y-12705412D01*
X16910658Y-12705412D02*
X16910658Y-12629222D01*
X16910658Y-12629222D02*
X16920182Y-12610174D01*
X16920182Y-12610174D02*
X16939230Y-12600650D01*
X16939230Y-12600650D02*
X16977325Y-12600650D01*
X16977325Y-12600650D02*
X16996373Y-12610174D01*
X16996373Y-12610174D02*
X17005896Y-12629222D01*
X17005896Y-12629222D02*
X17005896Y-12648269D01*
X17005896Y-12648269D02*
X16910658Y-12667317D01*
X17177325Y-12733984D02*
X17177325Y-12533984D01*
X17177325Y-12724460D02*
X17158277Y-12733984D01*
X17158277Y-12733984D02*
X17120182Y-12733984D01*
X17120182Y-12733984D02*
X17101135Y-12724460D01*
X17101135Y-12724460D02*
X17091611Y-12714936D01*
X17091611Y-12714936D02*
X17082087Y-12695888D01*
X17082087Y-12695888D02*
X17082087Y-12638746D01*
X17082087Y-12638746D02*
X17091611Y-12619698D01*
X17091611Y-12619698D02*
X17101135Y-12610174D01*
X17101135Y-12610174D02*
X17120182Y-12600650D01*
X17120182Y-12600650D02*
X17158277Y-12600650D01*
X17158277Y-12600650D02*
X17177325Y-12610174D01*
X17253516Y-12810174D02*
X17263039Y-12800650D01*
X17263039Y-12800650D02*
X17282087Y-12772079D01*
X17282087Y-12772079D02*
X17291611Y-12753031D01*
X17291611Y-12753031D02*
X17301135Y-12724460D01*
X17301135Y-12724460D02*
X17310658Y-12676841D01*
X17310658Y-12676841D02*
X17310658Y-12638746D01*
X17310658Y-12638746D02*
X17301135Y-12591127D01*
X17301135Y-12591127D02*
X17291611Y-12562555D01*
X17291611Y-12562555D02*
X17282087Y-12543508D01*
X17282087Y-12543508D02*
X17263039Y-12514936D01*
X17263039Y-12514936D02*
X17253516Y-12505412D01*
D13*
X10497500Y-12912500D02*
G75*
G02*
X10317500Y-12912500I-90000J0D01*
G01*
X10317500Y-12912500D02*
G75*
G02*
X10497500Y-12912500I90000J0D01*
G01*
D11*
X10863039Y-13003984D02*
X10748753Y-13003984D01*
X10805896Y-13003984D02*
X10805896Y-12803984D01*
X10805896Y-12803984D02*
X10786848Y-12832555D01*
X10786848Y-12832555D02*
X10767801Y-12851603D01*
X10767801Y-12851603D02*
X10748753Y-12861127D01*
X10948753Y-12984936D02*
X10958277Y-12994460D01*
X10958277Y-12994460D02*
X10948753Y-13003984D01*
X10948753Y-13003984D02*
X10939229Y-12994460D01*
X10939229Y-12994460D02*
X10948753Y-12984936D01*
X10948753Y-12984936D02*
X10948753Y-13003984D01*
X11072563Y-12889698D02*
X11053515Y-12880174D01*
X11053515Y-12880174D02*
X11043991Y-12870650D01*
X11043991Y-12870650D02*
X11034467Y-12851603D01*
X11034467Y-12851603D02*
X11034467Y-12842079D01*
X11034467Y-12842079D02*
X11043991Y-12823031D01*
X11043991Y-12823031D02*
X11053515Y-12813508D01*
X11053515Y-12813508D02*
X11072563Y-12803984D01*
X11072563Y-12803984D02*
X11110658Y-12803984D01*
X11110658Y-12803984D02*
X11129705Y-12813508D01*
X11129705Y-12813508D02*
X11139229Y-12823031D01*
X11139229Y-12823031D02*
X11148753Y-12842079D01*
X11148753Y-12842079D02*
X11148753Y-12851603D01*
X11148753Y-12851603D02*
X11139229Y-12870650D01*
X11139229Y-12870650D02*
X11129705Y-12880174D01*
X11129705Y-12880174D02*
X11110658Y-12889698D01*
X11110658Y-12889698D02*
X11072563Y-12889698D01*
X11072563Y-12889698D02*
X11053515Y-12899222D01*
X11053515Y-12899222D02*
X11043991Y-12908746D01*
X11043991Y-12908746D02*
X11034467Y-12927793D01*
X11034467Y-12927793D02*
X11034467Y-12965888D01*
X11034467Y-12965888D02*
X11043991Y-12984936D01*
X11043991Y-12984936D02*
X11053515Y-12994460D01*
X11053515Y-12994460D02*
X11072563Y-13003984D01*
X11072563Y-13003984D02*
X11110658Y-13003984D01*
X11110658Y-13003984D02*
X11129705Y-12994460D01*
X11129705Y-12994460D02*
X11139229Y-12984936D01*
X11139229Y-12984936D02*
X11148753Y-12965888D01*
X11148753Y-12965888D02*
X11148753Y-12927793D01*
X11148753Y-12927793D02*
X11139229Y-12908746D01*
X11139229Y-12908746D02*
X11129705Y-12899222D01*
X11129705Y-12899222D02*
X11110658Y-12889698D01*
X11272562Y-12803984D02*
X11291610Y-12803984D01*
X11291610Y-12803984D02*
X11310658Y-12813508D01*
X11310658Y-12813508D02*
X11320182Y-12823031D01*
X11320182Y-12823031D02*
X11329705Y-12842079D01*
X11329705Y-12842079D02*
X11339229Y-12880174D01*
X11339229Y-12880174D02*
X11339229Y-12927793D01*
X11339229Y-12927793D02*
X11329705Y-12965888D01*
X11329705Y-12965888D02*
X11320182Y-12984936D01*
X11320182Y-12984936D02*
X11310658Y-12994460D01*
X11310658Y-12994460D02*
X11291610Y-13003984D01*
X11291610Y-13003984D02*
X11272562Y-13003984D01*
X11272562Y-13003984D02*
X11253515Y-12994460D01*
X11253515Y-12994460D02*
X11243991Y-12984936D01*
X11243991Y-12984936D02*
X11234467Y-12965888D01*
X11234467Y-12965888D02*
X11224943Y-12927793D01*
X11224943Y-12927793D02*
X11224943Y-12880174D01*
X11224943Y-12880174D02*
X11234467Y-12842079D01*
X11234467Y-12842079D02*
X11243991Y-12823031D01*
X11243991Y-12823031D02*
X11253515Y-12813508D01*
X11253515Y-12813508D02*
X11272562Y-12803984D01*
X11463039Y-12803984D02*
X11482086Y-12803984D01*
X11482086Y-12803984D02*
X11501134Y-12813508D01*
X11501134Y-12813508D02*
X11510658Y-12823031D01*
X11510658Y-12823031D02*
X11520182Y-12842079D01*
X11520182Y-12842079D02*
X11529705Y-12880174D01*
X11529705Y-12880174D02*
X11529705Y-12927793D01*
X11529705Y-12927793D02*
X11520182Y-12965888D01*
X11520182Y-12965888D02*
X11510658Y-12984936D01*
X11510658Y-12984936D02*
X11501134Y-12994460D01*
X11501134Y-12994460D02*
X11482086Y-13003984D01*
X11482086Y-13003984D02*
X11463039Y-13003984D01*
X11463039Y-13003984D02*
X11443991Y-12994460D01*
X11443991Y-12994460D02*
X11434467Y-12984936D01*
X11434467Y-12984936D02*
X11424943Y-12965888D01*
X11424943Y-12965888D02*
X11415420Y-12927793D01*
X11415420Y-12927793D02*
X11415420Y-12880174D01*
X11415420Y-12880174D02*
X11424943Y-12842079D01*
X11424943Y-12842079D02*
X11434467Y-12823031D01*
X11434467Y-12823031D02*
X11443991Y-12813508D01*
X11443991Y-12813508D02*
X11463039Y-12803984D01*
X11615420Y-13003984D02*
X11615420Y-12870650D01*
X11615420Y-12889698D02*
X11624943Y-12880174D01*
X11624943Y-12880174D02*
X11643991Y-12870650D01*
X11643991Y-12870650D02*
X11672563Y-12870650D01*
X11672563Y-12870650D02*
X11691610Y-12880174D01*
X11691610Y-12880174D02*
X11701134Y-12899222D01*
X11701134Y-12899222D02*
X11701134Y-13003984D01*
X11701134Y-12899222D02*
X11710658Y-12880174D01*
X11710658Y-12880174D02*
X11729705Y-12870650D01*
X11729705Y-12870650D02*
X11758277Y-12870650D01*
X11758277Y-12870650D02*
X11777324Y-12880174D01*
X11777324Y-12880174D02*
X11786848Y-12899222D01*
X11786848Y-12899222D02*
X11786848Y-13003984D01*
X11882086Y-13003984D02*
X11882086Y-12870650D01*
X11882086Y-12889698D02*
X11891610Y-12880174D01*
X11891610Y-12880174D02*
X11910658Y-12870650D01*
X11910658Y-12870650D02*
X11939229Y-12870650D01*
X11939229Y-12870650D02*
X11958277Y-12880174D01*
X11958277Y-12880174D02*
X11967801Y-12899222D01*
X11967801Y-12899222D02*
X11967801Y-13003984D01*
X11967801Y-12899222D02*
X11977324Y-12880174D01*
X11977324Y-12880174D02*
X11996372Y-12870650D01*
X11996372Y-12870650D02*
X12024943Y-12870650D01*
X12024943Y-12870650D02*
X12043991Y-12880174D01*
X12043991Y-12880174D02*
X12053515Y-12899222D01*
X12053515Y-12899222D02*
X12053515Y-13003984D01*
X12443991Y-12794460D02*
X12272563Y-13051603D01*
X12701134Y-12803984D02*
X12720182Y-12803984D01*
X12720182Y-12803984D02*
X12739229Y-12813508D01*
X12739229Y-12813508D02*
X12748753Y-12823031D01*
X12748753Y-12823031D02*
X12758277Y-12842079D01*
X12758277Y-12842079D02*
X12767801Y-12880174D01*
X12767801Y-12880174D02*
X12767801Y-12927793D01*
X12767801Y-12927793D02*
X12758277Y-12965888D01*
X12758277Y-12965888D02*
X12748753Y-12984936D01*
X12748753Y-12984936D02*
X12739229Y-12994460D01*
X12739229Y-12994460D02*
X12720182Y-13003984D01*
X12720182Y-13003984D02*
X12701134Y-13003984D01*
X12701134Y-13003984D02*
X12682086Y-12994460D01*
X12682086Y-12994460D02*
X12672563Y-12984936D01*
X12672563Y-12984936D02*
X12663039Y-12965888D01*
X12663039Y-12965888D02*
X12653515Y-12927793D01*
X12653515Y-12927793D02*
X12653515Y-12880174D01*
X12653515Y-12880174D02*
X12663039Y-12842079D01*
X12663039Y-12842079D02*
X12672563Y-12823031D01*
X12672563Y-12823031D02*
X12682086Y-12813508D01*
X12682086Y-12813508D02*
X12701134Y-12803984D01*
X12853515Y-12984936D02*
X12863039Y-12994460D01*
X12863039Y-12994460D02*
X12853515Y-13003984D01*
X12853515Y-13003984D02*
X12843991Y-12994460D01*
X12843991Y-12994460D02*
X12853515Y-12984936D01*
X12853515Y-12984936D02*
X12853515Y-13003984D01*
X12986848Y-12803984D02*
X13005896Y-12803984D01*
X13005896Y-12803984D02*
X13024944Y-12813508D01*
X13024944Y-12813508D02*
X13034467Y-12823031D01*
X13034467Y-12823031D02*
X13043991Y-12842079D01*
X13043991Y-12842079D02*
X13053515Y-12880174D01*
X13053515Y-12880174D02*
X13053515Y-12927793D01*
X13053515Y-12927793D02*
X13043991Y-12965888D01*
X13043991Y-12965888D02*
X13034467Y-12984936D01*
X13034467Y-12984936D02*
X13024944Y-12994460D01*
X13024944Y-12994460D02*
X13005896Y-13003984D01*
X13005896Y-13003984D02*
X12986848Y-13003984D01*
X12986848Y-13003984D02*
X12967801Y-12994460D01*
X12967801Y-12994460D02*
X12958277Y-12984936D01*
X12958277Y-12984936D02*
X12948753Y-12965888D01*
X12948753Y-12965888D02*
X12939229Y-12927793D01*
X12939229Y-12927793D02*
X12939229Y-12880174D01*
X12939229Y-12880174D02*
X12948753Y-12842079D01*
X12948753Y-12842079D02*
X12958277Y-12823031D01*
X12958277Y-12823031D02*
X12967801Y-12813508D01*
X12967801Y-12813508D02*
X12986848Y-12803984D01*
X13120182Y-12803984D02*
X13253515Y-12803984D01*
X13253515Y-12803984D02*
X13167801Y-13003984D01*
X13367801Y-12803984D02*
X13386848Y-12803984D01*
X13386848Y-12803984D02*
X13405896Y-12813508D01*
X13405896Y-12813508D02*
X13415420Y-12823031D01*
X13415420Y-12823031D02*
X13424944Y-12842079D01*
X13424944Y-12842079D02*
X13434467Y-12880174D01*
X13434467Y-12880174D02*
X13434467Y-12927793D01*
X13434467Y-12927793D02*
X13424944Y-12965888D01*
X13424944Y-12965888D02*
X13415420Y-12984936D01*
X13415420Y-12984936D02*
X13405896Y-12994460D01*
X13405896Y-12994460D02*
X13386848Y-13003984D01*
X13386848Y-13003984D02*
X13367801Y-13003984D01*
X13367801Y-13003984D02*
X13348753Y-12994460D01*
X13348753Y-12994460D02*
X13339229Y-12984936D01*
X13339229Y-12984936D02*
X13329706Y-12965888D01*
X13329706Y-12965888D02*
X13320182Y-12927793D01*
X13320182Y-12927793D02*
X13320182Y-12880174D01*
X13320182Y-12880174D02*
X13329706Y-12842079D01*
X13329706Y-12842079D02*
X13339229Y-12823031D01*
X13339229Y-12823031D02*
X13348753Y-12813508D01*
X13348753Y-12813508D02*
X13367801Y-12803984D01*
X13529706Y-13003984D02*
X13567801Y-13003984D01*
X13567801Y-13003984D02*
X13586848Y-12994460D01*
X13586848Y-12994460D02*
X13596372Y-12984936D01*
X13596372Y-12984936D02*
X13615420Y-12956365D01*
X13615420Y-12956365D02*
X13624944Y-12918269D01*
X13624944Y-12918269D02*
X13624944Y-12842079D01*
X13624944Y-12842079D02*
X13615420Y-12823031D01*
X13615420Y-12823031D02*
X13605896Y-12813508D01*
X13605896Y-12813508D02*
X13586848Y-12803984D01*
X13586848Y-12803984D02*
X13548753Y-12803984D01*
X13548753Y-12803984D02*
X13529706Y-12813508D01*
X13529706Y-12813508D02*
X13520182Y-12823031D01*
X13520182Y-12823031D02*
X13510658Y-12842079D01*
X13510658Y-12842079D02*
X13510658Y-12889698D01*
X13510658Y-12889698D02*
X13520182Y-12908746D01*
X13520182Y-12908746D02*
X13529706Y-12918269D01*
X13529706Y-12918269D02*
X13548753Y-12927793D01*
X13548753Y-12927793D02*
X13586848Y-12927793D01*
X13586848Y-12927793D02*
X13605896Y-12918269D01*
X13605896Y-12918269D02*
X13615420Y-12908746D01*
X13615420Y-12908746D02*
X13624944Y-12889698D01*
X13701134Y-12803984D02*
X13701134Y-12842079D01*
X13777325Y-12803984D02*
X13777325Y-12842079D01*
X14072563Y-13080174D02*
X14063039Y-13070650D01*
X14063039Y-13070650D02*
X14043991Y-13042079D01*
X14043991Y-13042079D02*
X14034468Y-13023031D01*
X14034468Y-13023031D02*
X14024944Y-12994460D01*
X14024944Y-12994460D02*
X14015420Y-12946841D01*
X14015420Y-12946841D02*
X14015420Y-12908746D01*
X14015420Y-12908746D02*
X14024944Y-12861127D01*
X14024944Y-12861127D02*
X14034468Y-12832555D01*
X14034468Y-12832555D02*
X14043991Y-12813508D01*
X14043991Y-12813508D02*
X14063039Y-12784936D01*
X14063039Y-12784936D02*
X14072563Y-12775412D01*
X14139229Y-12823031D02*
X14148753Y-12813508D01*
X14148753Y-12813508D02*
X14167801Y-12803984D01*
X14167801Y-12803984D02*
X14215420Y-12803984D01*
X14215420Y-12803984D02*
X14234468Y-12813508D01*
X14234468Y-12813508D02*
X14243991Y-12823031D01*
X14243991Y-12823031D02*
X14253515Y-12842079D01*
X14253515Y-12842079D02*
X14253515Y-12861127D01*
X14253515Y-12861127D02*
X14243991Y-12889698D01*
X14243991Y-12889698D02*
X14129706Y-13003984D01*
X14129706Y-13003984D02*
X14253515Y-13003984D01*
X14491610Y-13003984D02*
X14491610Y-12803984D01*
X14577325Y-13003984D02*
X14577325Y-12899222D01*
X14577325Y-12899222D02*
X14567801Y-12880174D01*
X14567801Y-12880174D02*
X14548753Y-12870650D01*
X14548753Y-12870650D02*
X14520182Y-12870650D01*
X14520182Y-12870650D02*
X14501134Y-12880174D01*
X14501134Y-12880174D02*
X14491610Y-12889698D01*
X14701134Y-13003984D02*
X14682087Y-12994460D01*
X14682087Y-12994460D02*
X14672563Y-12984936D01*
X14672563Y-12984936D02*
X14663039Y-12965888D01*
X14663039Y-12965888D02*
X14663039Y-12908746D01*
X14663039Y-12908746D02*
X14672563Y-12889698D01*
X14672563Y-12889698D02*
X14682087Y-12880174D01*
X14682087Y-12880174D02*
X14701134Y-12870650D01*
X14701134Y-12870650D02*
X14729706Y-12870650D01*
X14729706Y-12870650D02*
X14748753Y-12880174D01*
X14748753Y-12880174D02*
X14758277Y-12889698D01*
X14758277Y-12889698D02*
X14767801Y-12908746D01*
X14767801Y-12908746D02*
X14767801Y-12965888D01*
X14767801Y-12965888D02*
X14758277Y-12984936D01*
X14758277Y-12984936D02*
X14748753Y-12994460D01*
X14748753Y-12994460D02*
X14729706Y-13003984D01*
X14729706Y-13003984D02*
X14701134Y-13003984D01*
X14882087Y-13003984D02*
X14863039Y-12994460D01*
X14863039Y-12994460D02*
X14853515Y-12975412D01*
X14853515Y-12975412D02*
X14853515Y-12803984D01*
X15034468Y-12994460D02*
X15015420Y-13003984D01*
X15015420Y-13003984D02*
X14977325Y-13003984D01*
X14977325Y-13003984D02*
X14958277Y-12994460D01*
X14958277Y-12994460D02*
X14948753Y-12975412D01*
X14948753Y-12975412D02*
X14948753Y-12899222D01*
X14948753Y-12899222D02*
X14958277Y-12880174D01*
X14958277Y-12880174D02*
X14977325Y-12870650D01*
X14977325Y-12870650D02*
X15015420Y-12870650D01*
X15015420Y-12870650D02*
X15034468Y-12880174D01*
X15034468Y-12880174D02*
X15043991Y-12899222D01*
X15043991Y-12899222D02*
X15043991Y-12918269D01*
X15043991Y-12918269D02*
X14948753Y-12937317D01*
X15120182Y-12994460D02*
X15139230Y-13003984D01*
X15139230Y-13003984D02*
X15177325Y-13003984D01*
X15177325Y-13003984D02*
X15196372Y-12994460D01*
X15196372Y-12994460D02*
X15205896Y-12975412D01*
X15205896Y-12975412D02*
X15205896Y-12965888D01*
X15205896Y-12965888D02*
X15196372Y-12946841D01*
X15196372Y-12946841D02*
X15177325Y-12937317D01*
X15177325Y-12937317D02*
X15148753Y-12937317D01*
X15148753Y-12937317D02*
X15129706Y-12927793D01*
X15129706Y-12927793D02*
X15120182Y-12908746D01*
X15120182Y-12908746D02*
X15120182Y-12899222D01*
X15120182Y-12899222D02*
X15129706Y-12880174D01*
X15129706Y-12880174D02*
X15148753Y-12870650D01*
X15148753Y-12870650D02*
X15177325Y-12870650D01*
X15177325Y-12870650D02*
X15196372Y-12880174D01*
X15272563Y-13080174D02*
X15282087Y-13070650D01*
X15282087Y-13070650D02*
X15301134Y-13042079D01*
X15301134Y-13042079D02*
X15310658Y-13023031D01*
X15310658Y-13023031D02*
X15320182Y-12994460D01*
X15320182Y-12994460D02*
X15329706Y-12946841D01*
X15329706Y-12946841D02*
X15329706Y-12908746D01*
X15329706Y-12908746D02*
X15320182Y-12861127D01*
X15320182Y-12861127D02*
X15310658Y-12832555D01*
X15310658Y-12832555D02*
X15301134Y-12813508D01*
X15301134Y-12813508D02*
X15282087Y-12784936D01*
X15282087Y-12784936D02*
X15272563Y-12775412D01*
X15634468Y-13080174D02*
X15624944Y-13070650D01*
X15624944Y-13070650D02*
X15605896Y-13042079D01*
X15605896Y-13042079D02*
X15596372Y-13023031D01*
X15596372Y-13023031D02*
X15586849Y-12994460D01*
X15586849Y-12994460D02*
X15577325Y-12946841D01*
X15577325Y-12946841D02*
X15577325Y-12908746D01*
X15577325Y-12908746D02*
X15586849Y-12861127D01*
X15586849Y-12861127D02*
X15596372Y-12832555D01*
X15596372Y-12832555D02*
X15605896Y-12813508D01*
X15605896Y-12813508D02*
X15624944Y-12784936D01*
X15624944Y-12784936D02*
X15634468Y-12775412D01*
X15710658Y-12870650D02*
X15710658Y-13003984D01*
X15710658Y-12889698D02*
X15720182Y-12880174D01*
X15720182Y-12880174D02*
X15739230Y-12870650D01*
X15739230Y-12870650D02*
X15767801Y-12870650D01*
X15767801Y-12870650D02*
X15786849Y-12880174D01*
X15786849Y-12880174D02*
X15796372Y-12899222D01*
X15796372Y-12899222D02*
X15796372Y-13003984D01*
X15920182Y-13003984D02*
X15901134Y-12994460D01*
X15901134Y-12994460D02*
X15891611Y-12984936D01*
X15891611Y-12984936D02*
X15882087Y-12965888D01*
X15882087Y-12965888D02*
X15882087Y-12908746D01*
X15882087Y-12908746D02*
X15891611Y-12889698D01*
X15891611Y-12889698D02*
X15901134Y-12880174D01*
X15901134Y-12880174D02*
X15920182Y-12870650D01*
X15920182Y-12870650D02*
X15948753Y-12870650D01*
X15948753Y-12870650D02*
X15967801Y-12880174D01*
X15967801Y-12880174D02*
X15977325Y-12889698D01*
X15977325Y-12889698D02*
X15986849Y-12908746D01*
X15986849Y-12908746D02*
X15986849Y-12965888D01*
X15986849Y-12965888D02*
X15977325Y-12984936D01*
X15977325Y-12984936D02*
X15967801Y-12994460D01*
X15967801Y-12994460D02*
X15948753Y-13003984D01*
X15948753Y-13003984D02*
X15920182Y-13003984D01*
X16043992Y-12870650D02*
X16120182Y-12870650D01*
X16072563Y-12803984D02*
X16072563Y-12975412D01*
X16072563Y-12975412D02*
X16082087Y-12994460D01*
X16082087Y-12994460D02*
X16101134Y-13003984D01*
X16101134Y-13003984D02*
X16120182Y-13003984D01*
X16339230Y-12870650D02*
X16339230Y-13070650D01*
X16339230Y-12880174D02*
X16358277Y-12870650D01*
X16358277Y-12870650D02*
X16396373Y-12870650D01*
X16396373Y-12870650D02*
X16415420Y-12880174D01*
X16415420Y-12880174D02*
X16424944Y-12889698D01*
X16424944Y-12889698D02*
X16434468Y-12908746D01*
X16434468Y-12908746D02*
X16434468Y-12965888D01*
X16434468Y-12965888D02*
X16424944Y-12984936D01*
X16424944Y-12984936D02*
X16415420Y-12994460D01*
X16415420Y-12994460D02*
X16396373Y-13003984D01*
X16396373Y-13003984D02*
X16358277Y-13003984D01*
X16358277Y-13003984D02*
X16339230Y-12994460D01*
X16548753Y-13003984D02*
X16529706Y-12994460D01*
X16529706Y-12994460D02*
X16520182Y-12975412D01*
X16520182Y-12975412D02*
X16520182Y-12803984D01*
X16710658Y-13003984D02*
X16710658Y-12899222D01*
X16710658Y-12899222D02*
X16701134Y-12880174D01*
X16701134Y-12880174D02*
X16682087Y-12870650D01*
X16682087Y-12870650D02*
X16643992Y-12870650D01*
X16643992Y-12870650D02*
X16624944Y-12880174D01*
X16710658Y-12994460D02*
X16691611Y-13003984D01*
X16691611Y-13003984D02*
X16643992Y-13003984D01*
X16643992Y-13003984D02*
X16624944Y-12994460D01*
X16624944Y-12994460D02*
X16615420Y-12975412D01*
X16615420Y-12975412D02*
X16615420Y-12956365D01*
X16615420Y-12956365D02*
X16624944Y-12937317D01*
X16624944Y-12937317D02*
X16643992Y-12927793D01*
X16643992Y-12927793D02*
X16691611Y-12927793D01*
X16691611Y-12927793D02*
X16710658Y-12918269D01*
X16777325Y-12870650D02*
X16853515Y-12870650D01*
X16805896Y-12803984D02*
X16805896Y-12975412D01*
X16805896Y-12975412D02*
X16815420Y-12994460D01*
X16815420Y-12994460D02*
X16834468Y-13003984D01*
X16834468Y-13003984D02*
X16853515Y-13003984D01*
X16996373Y-12994460D02*
X16977325Y-13003984D01*
X16977325Y-13003984D02*
X16939230Y-13003984D01*
X16939230Y-13003984D02*
X16920182Y-12994460D01*
X16920182Y-12994460D02*
X16910658Y-12975412D01*
X16910658Y-12975412D02*
X16910658Y-12899222D01*
X16910658Y-12899222D02*
X16920182Y-12880174D01*
X16920182Y-12880174D02*
X16939230Y-12870650D01*
X16939230Y-12870650D02*
X16977325Y-12870650D01*
X16977325Y-12870650D02*
X16996373Y-12880174D01*
X16996373Y-12880174D02*
X17005896Y-12899222D01*
X17005896Y-12899222D02*
X17005896Y-12918269D01*
X17005896Y-12918269D02*
X16910658Y-12937317D01*
X17177325Y-13003984D02*
X17177325Y-12803984D01*
X17177325Y-12994460D02*
X17158277Y-13003984D01*
X17158277Y-13003984D02*
X17120182Y-13003984D01*
X17120182Y-13003984D02*
X17101135Y-12994460D01*
X17101135Y-12994460D02*
X17091611Y-12984936D01*
X17091611Y-12984936D02*
X17082087Y-12965888D01*
X17082087Y-12965888D02*
X17082087Y-12908746D01*
X17082087Y-12908746D02*
X17091611Y-12889698D01*
X17091611Y-12889698D02*
X17101135Y-12880174D01*
X17101135Y-12880174D02*
X17120182Y-12870650D01*
X17120182Y-12870650D02*
X17158277Y-12870650D01*
X17158277Y-12870650D02*
X17177325Y-12880174D01*
X17253516Y-13080174D02*
X17263039Y-13070650D01*
X17263039Y-13070650D02*
X17282087Y-13042079D01*
X17282087Y-13042079D02*
X17291611Y-13023031D01*
X17291611Y-13023031D02*
X17301135Y-12994460D01*
X17301135Y-12994460D02*
X17310658Y-12946841D01*
X17310658Y-12946841D02*
X17310658Y-12908746D01*
X17310658Y-12908746D02*
X17301135Y-12861127D01*
X17301135Y-12861127D02*
X17291611Y-12832555D01*
X17291611Y-12832555D02*
X17282087Y-12813508D01*
X17282087Y-12813508D02*
X17263039Y-12784936D01*
X17263039Y-12784936D02*
X17253516Y-12775412D01*
M02*
