M48
; DRILL file {KiCad 8.0.3} date 2024-07-03T23:55:28+0900
; FORMAT={-:-/ absolute / inch / decimal}
; #@! TF.CreationDate,2024-07-03T23:55:28+09:00
; #@! TF.GenerationSoftware,Kicad,Pcbnew,8.0.3
; #@! TF.FileFunction,Plated,1,2,PTH
FMAT,2
INCH
; #@! TA.AperFunction,Plated,PTH,ViaDrill
T1C0.0118
; #@! TA.AperFunction,Plated,PTH,ComponentDrill
T2C0.0315
; #@! TA.AperFunction,Plated,PTH,ComponentDrill
T3C0.0354
; #@! TA.AperFunction,Plated,PTH,ComponentDrill
T4C0.0394
; #@! TA.AperFunction,Plated,PTH,ComponentDrill
T5C0.0402
%
G90
G05
T1
X4.4606Y-1.935
X4.4606Y-2.5827
X4.4606Y-3.9843
X4.4646Y-3.3031
X6.0503Y-3.7448
X6.055Y-3.6415
X6.2318Y-2.9207
X6.2323Y-2.2047
X6.2441Y-3.6299
X6.3307Y-3.1024
X6.3346Y-2.4252
X6.3465Y-3.6772
X6.3543Y-4.4528
T2
X4.563Y-1.8055
X4.563Y-2.2055
X4.563Y-2.5055
X4.563Y-2.9055
X4.563Y-3.2055
X4.563Y-3.6055
X4.563Y-3.9055
X4.563Y-4.3055
X6.0236Y-2.0795
X6.0236Y-2.4795
X6.263Y-2.1055
X6.263Y-2.5055
X6.263Y-2.8055
X6.263Y-3.2055
X6.263Y-3.5055
X6.263Y-3.9055
X6.263Y-4.2055
X6.263Y-4.6055
T3
X4.563Y-2.3055
X4.563Y-2.4055
X4.563Y-3.0055
X4.563Y-3.1055
X4.563Y-3.7055
X4.563Y-3.8055
X4.563Y-4.4055
X4.563Y-4.5055
X6.0433Y-1.84
X6.0433Y-1.94
X6.263Y-1.9055
X6.263Y-2.0055
X6.263Y-2.6055
X6.263Y-2.7055
X6.263Y-3.3055
X6.263Y-3.4055
X6.263Y-4.0055
X6.263Y-4.1055
T4
X4.263Y-1.9055
X4.263Y-2.0055
X4.263Y-2.1055
X4.263Y-2.2055
X4.263Y-2.3055
X4.263Y-2.4055
X4.263Y-2.6055
X4.263Y-2.7055
X4.263Y-2.8055
X4.263Y-2.9055
X4.263Y-3.0055
X4.263Y-3.1055
X4.263Y-3.3055
X4.263Y-3.4055
X4.263Y-3.5055
X4.263Y-3.6055
X4.263Y-3.7055
X4.263Y-3.8055
X4.263Y-4.0055
X4.263Y-4.1055
X4.263Y-4.2055
X4.263Y-4.3055
X4.263Y-4.4055
X4.263Y-4.5055
X4.363Y-1.9055
X4.363Y-2.0055
X4.363Y-2.1055
X4.363Y-2.2055
X4.363Y-2.3055
X4.363Y-2.4055
X4.363Y-2.6055
X4.363Y-2.7055
X4.363Y-2.8055
X4.363Y-2.9055
X4.363Y-3.0055
X4.363Y-3.1055
X4.363Y-3.3055
X4.363Y-3.4055
X4.363Y-3.5055
X4.363Y-3.6055
X4.363Y-3.7055
X4.363Y-3.8055
X4.363Y-4.0055
X4.363Y-4.1055
X4.363Y-4.2055
X4.363Y-4.3055
X4.363Y-4.4055
X4.363Y-4.5055
X6.4415Y-1.9055
X6.4415Y-2.0055
X6.4415Y-2.1055
X6.4415Y-2.2055
X6.4415Y-2.3055
X6.4415Y-2.4055
X6.4415Y-2.6055
X6.4415Y-2.7055
X6.4415Y-2.8055
X6.4415Y-2.9055
X6.4415Y-3.0055
X6.4415Y-3.1055
X6.4415Y-3.3055
X6.4415Y-3.4055
X6.4415Y-3.5055
X6.4415Y-3.6055
X6.4415Y-3.7055
X6.4415Y-3.8055
X6.4415Y-4.0055
X6.4415Y-4.1055
X6.4415Y-4.2055
X6.4415Y-4.3055
X6.4415Y-4.4055
X6.4415Y-4.5055
X6.5415Y-1.9055
X6.5415Y-2.0055
X6.5415Y-2.1055
X6.5415Y-2.2055
X6.5415Y-2.3055
X6.5415Y-2.4055
X6.5415Y-2.6055
X6.5415Y-2.7055
X6.5415Y-2.8055
X6.5415Y-2.9055
X6.5415Y-3.0055
X6.5415Y-3.1055
X6.5415Y-3.3055
X6.5415Y-3.4055
X6.5415Y-3.5055
X6.5415Y-3.6055
X6.5415Y-3.7055
X6.5415Y-3.8055
X6.5415Y-4.0055
X6.5415Y-4.1055
X6.5415Y-4.2055
X6.5415Y-4.3055
X6.5415Y-4.4055
X6.5415Y-4.5055
T5
X5.063Y-1.9055
X5.063Y-2.0055
X5.063Y-2.1055
X5.063Y-2.2055
X5.063Y-2.3055
X5.063Y-2.4055
X5.063Y-2.5055
X5.063Y-2.6055
X5.063Y-2.7055
X5.063Y-2.8055
X5.063Y-2.9055
X5.063Y-3.0055
X5.063Y-3.1055
X5.063Y-3.2055
X5.063Y-3.3055
X5.063Y-3.4055
X5.063Y-3.5055
X5.063Y-3.6055
X5.063Y-3.7055
X5.063Y-3.8055
X5.763Y-1.9055
X5.763Y-2.0055
X5.763Y-2.1055
X5.763Y-2.2055
X5.763Y-2.3055
X5.763Y-2.4055
X5.763Y-2.5055
X5.763Y-2.6055
X5.763Y-2.7055
X5.763Y-2.8055
X5.763Y-2.9055
X5.763Y-3.0055
X5.763Y-3.1055
X5.763Y-3.2055
X5.763Y-3.3055
X5.763Y-3.4055
X5.763Y-3.5055
X5.763Y-3.6055
X5.763Y-3.7055
X5.763Y-3.8055
M30
